%TF.GenerationSoftware,KiCad,Pcbnew,(5.1.6)-1*%
%TF.CreationDate,2020-09-29T18:05:28+08:00*%
%TF.ProjectId,stlink,73746c69-6e6b-42e6-9b69-6361645f7063,rev?*%
%TF.SameCoordinates,Original*%
%TF.FileFunction,Soldermask,Top*%
%TF.FilePolarity,Negative*%
%FSLAX46Y46*%
G04 Gerber Fmt 4.6, Leading zero omitted, Abs format (unit mm)*
G04 Created by KiCad (PCBNEW (5.1.6)-1) date 2020-09-29 18:05:28*
%MOMM*%
%LPD*%
G01*
G04 APERTURE LIST*
%ADD10R,1.300000X2.000000*%
%ADD11O,1.300000X2.000000*%
%ADD12R,1.600000X2.000000*%
%ADD13C,1.550000*%
%ADD14R,0.500000X1.450000*%
%ADD15R,1.100000X1.900000*%
%ADD16R,4.100000X1.370000*%
%ADD17C,1.200000*%
%ADD18O,3.600000X2.000000*%
%ADD19R,2.600000X1.200000*%
G04 APERTURE END LIST*
D10*
%TO.C,J1*%
X8100000Y-11437500D03*
X13900000Y-11437500D03*
D11*
X14500000Y-11437500D03*
X7500000Y-11437500D03*
D12*
X10000000Y-11437500D03*
D13*
X13500000Y-8737500D03*
D14*
X11000000Y-8737500D03*
X11650000Y-8737500D03*
X12300000Y-8737500D03*
X9700000Y-8737500D03*
X10350000Y-8737500D03*
D13*
X8500000Y-8737500D03*
D12*
X12000000Y-11437500D03*
%TD*%
D15*
%TO.C,Y1*%
X9940000Y-1230000D03*
X7440000Y-1230000D03*
%TD*%
%TO.C,R3*%
G36*
G01*
X13210000Y-7002500D02*
X13210000Y-7397500D01*
G75*
G02*
X13037500Y-7570000I-172500J0D01*
G01*
X12692500Y-7570000D01*
G75*
G02*
X12520000Y-7397500I0J172500D01*
G01*
X12520000Y-7002500D01*
G75*
G02*
X12692500Y-6830000I172500J0D01*
G01*
X13037500Y-6830000D01*
G75*
G02*
X13210000Y-7002500I0J-172500D01*
G01*
G37*
G36*
G01*
X14180000Y-7002500D02*
X14180000Y-7397500D01*
G75*
G02*
X14007500Y-7570000I-172500J0D01*
G01*
X13662500Y-7570000D01*
G75*
G02*
X13490000Y-7397500I0J172500D01*
G01*
X13490000Y-7002500D01*
G75*
G02*
X13662500Y-6830000I172500J0D01*
G01*
X14007500Y-6830000D01*
G75*
G02*
X14180000Y-7002500I0J-172500D01*
G01*
G37*
%TD*%
%TO.C,R2*%
G36*
G01*
X8052500Y-4740000D02*
X8447500Y-4740000D01*
G75*
G02*
X8620000Y-4912500I0J-172500D01*
G01*
X8620000Y-5257500D01*
G75*
G02*
X8447500Y-5430000I-172500J0D01*
G01*
X8052500Y-5430000D01*
G75*
G02*
X7880000Y-5257500I0J172500D01*
G01*
X7880000Y-4912500D01*
G75*
G02*
X8052500Y-4740000I172500J0D01*
G01*
G37*
G36*
G01*
X8052500Y-3770000D02*
X8447500Y-3770000D01*
G75*
G02*
X8620000Y-3942500I0J-172500D01*
G01*
X8620000Y-4287500D01*
G75*
G02*
X8447500Y-4460000I-172500J0D01*
G01*
X8052500Y-4460000D01*
G75*
G02*
X7880000Y-4287500I0J172500D01*
G01*
X7880000Y-3942500D01*
G75*
G02*
X8052500Y-3770000I172500J0D01*
G01*
G37*
%TD*%
%TO.C,R1*%
G36*
G01*
X7447500Y-4460000D02*
X7052500Y-4460000D01*
G75*
G02*
X6880000Y-4287500I0J172500D01*
G01*
X6880000Y-3942500D01*
G75*
G02*
X7052500Y-3770000I172500J0D01*
G01*
X7447500Y-3770000D01*
G75*
G02*
X7620000Y-3942500I0J-172500D01*
G01*
X7620000Y-4287500D01*
G75*
G02*
X7447500Y-4460000I-172500J0D01*
G01*
G37*
G36*
G01*
X7447500Y-5430000D02*
X7052500Y-5430000D01*
G75*
G02*
X6880000Y-5257500I0J172500D01*
G01*
X6880000Y-4912500D01*
G75*
G02*
X7052500Y-4740000I172500J0D01*
G01*
X7447500Y-4740000D01*
G75*
G02*
X7620000Y-4912500I0J-172500D01*
G01*
X7620000Y-5257500D01*
G75*
G02*
X7447500Y-5430000I-172500J0D01*
G01*
G37*
%TD*%
D16*
%TO.C,J3*%
X20700000Y-11980000D03*
X20700000Y-9440000D03*
X20700000Y-6900000D03*
X20700000Y-4360000D03*
X20700000Y-1820000D03*
%TD*%
D17*
%TO.C,J2*%
X2000000Y-4600000D03*
X2000000Y-9200000D03*
D18*
X2000000Y-1200000D03*
X2000000Y-12600000D03*
D19*
X4750000Y-3400000D03*
X4750000Y-10400000D03*
X4750000Y-5900000D03*
X4750000Y-7900000D03*
%TD*%
%TO.C,D1*%
G36*
G01*
X10400000Y-5731250D02*
X10400000Y-5168750D01*
G75*
G02*
X10643750Y-4925000I243750J0D01*
G01*
X11131250Y-4925000D01*
G75*
G02*
X11375000Y-5168750I0J-243750D01*
G01*
X11375000Y-5731250D01*
G75*
G02*
X11131250Y-5975000I-243750J0D01*
G01*
X10643750Y-5975000D01*
G75*
G02*
X10400000Y-5731250I0J243750D01*
G01*
G37*
G36*
G01*
X8825000Y-5731250D02*
X8825000Y-5168750D01*
G75*
G02*
X9068750Y-4925000I243750J0D01*
G01*
X9556250Y-4925000D01*
G75*
G02*
X9800000Y-5168750I0J-243750D01*
G01*
X9800000Y-5731250D01*
G75*
G02*
X9556250Y-5975000I-243750J0D01*
G01*
X9068750Y-5975000D01*
G75*
G02*
X8825000Y-5731250I0J243750D01*
G01*
G37*
%TD*%
%TO.C,C2*%
G36*
G01*
X9510000Y-2702500D02*
X9510000Y-3097500D01*
G75*
G02*
X9337500Y-3270000I-172500J0D01*
G01*
X8992500Y-3270000D01*
G75*
G02*
X8820000Y-3097500I0J172500D01*
G01*
X8820000Y-2702500D01*
G75*
G02*
X8992500Y-2530000I172500J0D01*
G01*
X9337500Y-2530000D01*
G75*
G02*
X9510000Y-2702500I0J-172500D01*
G01*
G37*
G36*
G01*
X10480000Y-2702500D02*
X10480000Y-3097500D01*
G75*
G02*
X10307500Y-3270000I-172500J0D01*
G01*
X9962500Y-3270000D01*
G75*
G02*
X9790000Y-3097500I0J172500D01*
G01*
X9790000Y-2702500D01*
G75*
G02*
X9962500Y-2530000I172500J0D01*
G01*
X10307500Y-2530000D01*
G75*
G02*
X10480000Y-2702500I0J-172500D01*
G01*
G37*
%TD*%
%TO.C,C1*%
G36*
G01*
X7840000Y-3097500D02*
X7840000Y-2702500D01*
G75*
G02*
X8012500Y-2530000I172500J0D01*
G01*
X8357500Y-2530000D01*
G75*
G02*
X8530000Y-2702500I0J-172500D01*
G01*
X8530000Y-3097500D01*
G75*
G02*
X8357500Y-3270000I-172500J0D01*
G01*
X8012500Y-3270000D01*
G75*
G02*
X7840000Y-3097500I0J172500D01*
G01*
G37*
G36*
G01*
X6870000Y-3097500D02*
X6870000Y-2702500D01*
G75*
G02*
X7042500Y-2530000I172500J0D01*
G01*
X7387500Y-2530000D01*
G75*
G02*
X7560000Y-2702500I0J-172500D01*
G01*
X7560000Y-3097500D01*
G75*
G02*
X7387500Y-3270000I-172500J0D01*
G01*
X7042500Y-3270000D01*
G75*
G02*
X6870000Y-3097500I0J172500D01*
G01*
G37*
%TD*%
M02*
