%TF.GenerationSoftware,KiCad,Pcbnew,(5.1.6)-1*%
%TF.CreationDate,2020-09-29T18:05:28+08:00*%
%TF.ProjectId,stlink,73746c69-6e6b-42e6-9b69-6361645f7063,rev?*%
%TF.SameCoordinates,Original*%
%TF.FileFunction,Soldermask,Bot*%
%TF.FilePolarity,Negative*%
%FSLAX46Y46*%
G04 Gerber Fmt 4.6, Leading zero omitted, Abs format (unit mm)*
G04 Created by KiCad (PCBNEW (5.1.6)-1) date 2020-09-29 18:05:28*
%MOMM*%
%LPD*%
G01*
G04 APERTURE LIST*
%ADD10C,1.100000*%
%ADD11O,1.300000X2.000000*%
%ADD12C,0.100000*%
%ADD13R,1.940000X2.300000*%
%ADD14R,1.600000X1.100000*%
%ADD15R,1.900000X1.100000*%
%ADD16R,4.100000X1.370000*%
%ADD17C,1.200000*%
%ADD18O,3.600000X2.000000*%
G04 APERTURE END LIST*
D10*
%TO.C,J4*%
X13540000Y-13100000D03*
X11000000Y-13100000D03*
X8460000Y-13100000D03*
%TD*%
D11*
%TO.C,J1*%
X14500000Y-11437500D03*
X7500000Y-11437500D03*
%TD*%
%TO.C,U1*%
G36*
G01*
X6918191Y-7545235D02*
X7483876Y-6979549D01*
G75*
G02*
X7607620Y-6979549I61872J-61872D01*
G01*
X7731364Y-7103293D01*
G75*
G02*
X7731364Y-7227037I-61872J-61872D01*
G01*
X7165678Y-7792723D01*
G75*
G02*
X7041934Y-7792723I-61872J61872D01*
G01*
X6918190Y-7668979D01*
G75*
G02*
X6918190Y-7545235I61872J61872D01*
G01*
G37*
G36*
G01*
X7271744Y-7898788D02*
X7837429Y-7333102D01*
G75*
G02*
X7961173Y-7333102I61872J-61872D01*
G01*
X8084917Y-7456846D01*
G75*
G02*
X8084917Y-7580590I-61872J-61872D01*
G01*
X7519231Y-8146276D01*
G75*
G02*
X7395487Y-8146276I-61872J61872D01*
G01*
X7271743Y-8022532D01*
G75*
G02*
X7271743Y-7898788I61872J61872D01*
G01*
G37*
G36*
G01*
X7625298Y-8252342D02*
X8190983Y-7686656D01*
G75*
G02*
X8314727Y-7686656I61872J-61872D01*
G01*
X8438471Y-7810400D01*
G75*
G02*
X8438471Y-7934144I-61872J-61872D01*
G01*
X7872785Y-8499830D01*
G75*
G02*
X7749041Y-8499830I-61872J61872D01*
G01*
X7625297Y-8376086D01*
G75*
G02*
X7625297Y-8252342I61872J61872D01*
G01*
G37*
G36*
G01*
X7978851Y-8605895D02*
X8544536Y-8040209D01*
G75*
G02*
X8668280Y-8040209I61872J-61872D01*
G01*
X8792024Y-8163953D01*
G75*
G02*
X8792024Y-8287697I-61872J-61872D01*
G01*
X8226338Y-8853383D01*
G75*
G02*
X8102594Y-8853383I-61872J61872D01*
G01*
X7978850Y-8729639D01*
G75*
G02*
X7978850Y-8605895I61872J61872D01*
G01*
G37*
G36*
G01*
X8332404Y-8959448D02*
X8898089Y-8393762D01*
G75*
G02*
X9021833Y-8393762I61872J-61872D01*
G01*
X9145577Y-8517506D01*
G75*
G02*
X9145577Y-8641250I-61872J-61872D01*
G01*
X8579891Y-9206936D01*
G75*
G02*
X8456147Y-9206936I-61872J61872D01*
G01*
X8332403Y-9083192D01*
G75*
G02*
X8332403Y-8959448I61872J61872D01*
G01*
G37*
G36*
G01*
X8685958Y-9313002D02*
X9251643Y-8747316D01*
G75*
G02*
X9375387Y-8747316I61872J-61872D01*
G01*
X9499131Y-8871060D01*
G75*
G02*
X9499131Y-8994804I-61872J-61872D01*
G01*
X8933445Y-9560490D01*
G75*
G02*
X8809701Y-9560490I-61872J61872D01*
G01*
X8685957Y-9436746D01*
G75*
G02*
X8685957Y-9313002I61872J61872D01*
G01*
G37*
G36*
G01*
X9039511Y-9666555D02*
X9605196Y-9100869D01*
G75*
G02*
X9728940Y-9100869I61872J-61872D01*
G01*
X9852684Y-9224613D01*
G75*
G02*
X9852684Y-9348357I-61872J-61872D01*
G01*
X9286998Y-9914043D01*
G75*
G02*
X9163254Y-9914043I-61872J61872D01*
G01*
X9039510Y-9790299D01*
G75*
G02*
X9039510Y-9666555I61872J61872D01*
G01*
G37*
G36*
G01*
X9393065Y-10020109D02*
X9958750Y-9454423D01*
G75*
G02*
X10082494Y-9454423I61872J-61872D01*
G01*
X10206238Y-9578167D01*
G75*
G02*
X10206238Y-9701911I-61872J-61872D01*
G01*
X9640552Y-10267597D01*
G75*
G02*
X9516808Y-10267597I-61872J61872D01*
G01*
X9393064Y-10143853D01*
G75*
G02*
X9393064Y-10020109I61872J61872D01*
G01*
G37*
G36*
G01*
X9746618Y-10373662D02*
X10312303Y-9807976D01*
G75*
G02*
X10436047Y-9807976I61872J-61872D01*
G01*
X10559791Y-9931720D01*
G75*
G02*
X10559791Y-10055464I-61872J-61872D01*
G01*
X9994105Y-10621150D01*
G75*
G02*
X9870361Y-10621150I-61872J61872D01*
G01*
X9746617Y-10497406D01*
G75*
G02*
X9746617Y-10373662I61872J61872D01*
G01*
G37*
G36*
G01*
X10100171Y-10727215D02*
X10665856Y-10161529D01*
G75*
G02*
X10789600Y-10161529I61872J-61872D01*
G01*
X10913344Y-10285273D01*
G75*
G02*
X10913344Y-10409017I-61872J-61872D01*
G01*
X10347658Y-10974703D01*
G75*
G02*
X10223914Y-10974703I-61872J61872D01*
G01*
X10100170Y-10850959D01*
G75*
G02*
X10100170Y-10727215I61872J61872D01*
G01*
G37*
G36*
G01*
X10453725Y-11080769D02*
X11019410Y-10515083D01*
G75*
G02*
X11143154Y-10515083I61872J-61872D01*
G01*
X11266898Y-10638827D01*
G75*
G02*
X11266898Y-10762571I-61872J-61872D01*
G01*
X10701212Y-11328257D01*
G75*
G02*
X10577468Y-11328257I-61872J61872D01*
G01*
X10453724Y-11204513D01*
G75*
G02*
X10453724Y-11080769I61872J61872D01*
G01*
G37*
G36*
G01*
X10807278Y-11434322D02*
X11372963Y-10868636D01*
G75*
G02*
X11496707Y-10868636I61872J-61872D01*
G01*
X11620451Y-10992380D01*
G75*
G02*
X11620451Y-11116124I-61872J-61872D01*
G01*
X11054765Y-11681810D01*
G75*
G02*
X10931021Y-11681810I-61872J61872D01*
G01*
X10807277Y-11558066D01*
G75*
G02*
X10807277Y-11434322I61872J61872D01*
G01*
G37*
G36*
G01*
X11779550Y-10992380D02*
X11903293Y-10868636D01*
G75*
G02*
X12027037Y-10868636I61872J-61872D01*
G01*
X12592723Y-11434322D01*
G75*
G02*
X12592723Y-11558066I-61872J-61872D01*
G01*
X12468979Y-11681810D01*
G75*
G02*
X12345235Y-11681810I-61872J61872D01*
G01*
X11779549Y-11116124D01*
G75*
G02*
X11779549Y-10992380I61872J61872D01*
G01*
G37*
G36*
G01*
X12133103Y-10638827D02*
X12256846Y-10515083D01*
G75*
G02*
X12380590Y-10515083I61872J-61872D01*
G01*
X12946276Y-11080769D01*
G75*
G02*
X12946276Y-11204513I-61872J-61872D01*
G01*
X12822532Y-11328257D01*
G75*
G02*
X12698788Y-11328257I-61872J61872D01*
G01*
X12133102Y-10762571D01*
G75*
G02*
X12133102Y-10638827I61872J61872D01*
G01*
G37*
G36*
G01*
X12486657Y-10285273D02*
X12610400Y-10161529D01*
G75*
G02*
X12734144Y-10161529I61872J-61872D01*
G01*
X13299830Y-10727215D01*
G75*
G02*
X13299830Y-10850959I-61872J-61872D01*
G01*
X13176086Y-10974703D01*
G75*
G02*
X13052342Y-10974703I-61872J61872D01*
G01*
X12486656Y-10409017D01*
G75*
G02*
X12486656Y-10285273I61872J61872D01*
G01*
G37*
G36*
G01*
X12840210Y-9931720D02*
X12963953Y-9807976D01*
G75*
G02*
X13087697Y-9807976I61872J-61872D01*
G01*
X13653383Y-10373662D01*
G75*
G02*
X13653383Y-10497406I-61872J-61872D01*
G01*
X13529639Y-10621150D01*
G75*
G02*
X13405895Y-10621150I-61872J61872D01*
G01*
X12840209Y-10055464D01*
G75*
G02*
X12840209Y-9931720I61872J61872D01*
G01*
G37*
G36*
G01*
X13193763Y-9578167D02*
X13317506Y-9454423D01*
G75*
G02*
X13441250Y-9454423I61872J-61872D01*
G01*
X14006936Y-10020109D01*
G75*
G02*
X14006936Y-10143853I-61872J-61872D01*
G01*
X13883192Y-10267597D01*
G75*
G02*
X13759448Y-10267597I-61872J61872D01*
G01*
X13193762Y-9701911D01*
G75*
G02*
X13193762Y-9578167I61872J61872D01*
G01*
G37*
G36*
G01*
X13547317Y-9224613D02*
X13671060Y-9100869D01*
G75*
G02*
X13794804Y-9100869I61872J-61872D01*
G01*
X14360490Y-9666555D01*
G75*
G02*
X14360490Y-9790299I-61872J-61872D01*
G01*
X14236746Y-9914043D01*
G75*
G02*
X14113002Y-9914043I-61872J61872D01*
G01*
X13547316Y-9348357D01*
G75*
G02*
X13547316Y-9224613I61872J61872D01*
G01*
G37*
G36*
G01*
X13900870Y-8871060D02*
X14024613Y-8747316D01*
G75*
G02*
X14148357Y-8747316I61872J-61872D01*
G01*
X14714043Y-9313002D01*
G75*
G02*
X14714043Y-9436746I-61872J-61872D01*
G01*
X14590299Y-9560490D01*
G75*
G02*
X14466555Y-9560490I-61872J61872D01*
G01*
X13900869Y-8994804D01*
G75*
G02*
X13900869Y-8871060I61872J61872D01*
G01*
G37*
G36*
G01*
X14254424Y-8517506D02*
X14378167Y-8393762D01*
G75*
G02*
X14501911Y-8393762I61872J-61872D01*
G01*
X15067597Y-8959448D01*
G75*
G02*
X15067597Y-9083192I-61872J-61872D01*
G01*
X14943853Y-9206936D01*
G75*
G02*
X14820109Y-9206936I-61872J61872D01*
G01*
X14254423Y-8641250D01*
G75*
G02*
X14254423Y-8517506I61872J61872D01*
G01*
G37*
G36*
G01*
X14607977Y-8163953D02*
X14731720Y-8040209D01*
G75*
G02*
X14855464Y-8040209I61872J-61872D01*
G01*
X15421150Y-8605895D01*
G75*
G02*
X15421150Y-8729639I-61872J-61872D01*
G01*
X15297406Y-8853383D01*
G75*
G02*
X15173662Y-8853383I-61872J61872D01*
G01*
X14607976Y-8287697D01*
G75*
G02*
X14607976Y-8163953I61872J61872D01*
G01*
G37*
G36*
G01*
X14961530Y-7810400D02*
X15085273Y-7686656D01*
G75*
G02*
X15209017Y-7686656I61872J-61872D01*
G01*
X15774703Y-8252342D01*
G75*
G02*
X15774703Y-8376086I-61872J-61872D01*
G01*
X15650959Y-8499830D01*
G75*
G02*
X15527215Y-8499830I-61872J61872D01*
G01*
X14961529Y-7934144D01*
G75*
G02*
X14961529Y-7810400I61872J61872D01*
G01*
G37*
G36*
G01*
X15315084Y-7456846D02*
X15438827Y-7333102D01*
G75*
G02*
X15562571Y-7333102I61872J-61872D01*
G01*
X16128257Y-7898788D01*
G75*
G02*
X16128257Y-8022532I-61872J-61872D01*
G01*
X16004513Y-8146276D01*
G75*
G02*
X15880769Y-8146276I-61872J61872D01*
G01*
X15315083Y-7580590D01*
G75*
G02*
X15315083Y-7456846I61872J61872D01*
G01*
G37*
G36*
G01*
X15668637Y-7103293D02*
X15792380Y-6979549D01*
G75*
G02*
X15916124Y-6979549I61872J-61872D01*
G01*
X16481810Y-7545235D01*
G75*
G02*
X16481810Y-7668979I-61872J-61872D01*
G01*
X16358066Y-7792723D01*
G75*
G02*
X16234322Y-7792723I-61872J61872D01*
G01*
X15668636Y-7227037D01*
G75*
G02*
X15668636Y-7103293I61872J61872D01*
G01*
G37*
G36*
G01*
X15668637Y-6572963D02*
X16234322Y-6007277D01*
G75*
G02*
X16358066Y-6007277I61872J-61872D01*
G01*
X16481810Y-6131021D01*
G75*
G02*
X16481810Y-6254765I-61872J-61872D01*
G01*
X15916124Y-6820451D01*
G75*
G02*
X15792380Y-6820451I-61872J61872D01*
G01*
X15668636Y-6696707D01*
G75*
G02*
X15668636Y-6572963I61872J61872D01*
G01*
G37*
G36*
G01*
X15315084Y-6219410D02*
X15880769Y-5653724D01*
G75*
G02*
X16004513Y-5653724I61872J-61872D01*
G01*
X16128257Y-5777468D01*
G75*
G02*
X16128257Y-5901212I-61872J-61872D01*
G01*
X15562571Y-6466898D01*
G75*
G02*
X15438827Y-6466898I-61872J61872D01*
G01*
X15315083Y-6343154D01*
G75*
G02*
X15315083Y-6219410I61872J61872D01*
G01*
G37*
G36*
G01*
X14961530Y-5865856D02*
X15527215Y-5300170D01*
G75*
G02*
X15650959Y-5300170I61872J-61872D01*
G01*
X15774703Y-5423914D01*
G75*
G02*
X15774703Y-5547658I-61872J-61872D01*
G01*
X15209017Y-6113344D01*
G75*
G02*
X15085273Y-6113344I-61872J61872D01*
G01*
X14961529Y-5989600D01*
G75*
G02*
X14961529Y-5865856I61872J61872D01*
G01*
G37*
G36*
G01*
X14607977Y-5512303D02*
X15173662Y-4946617D01*
G75*
G02*
X15297406Y-4946617I61872J-61872D01*
G01*
X15421150Y-5070361D01*
G75*
G02*
X15421150Y-5194105I-61872J-61872D01*
G01*
X14855464Y-5759791D01*
G75*
G02*
X14731720Y-5759791I-61872J61872D01*
G01*
X14607976Y-5636047D01*
G75*
G02*
X14607976Y-5512303I61872J61872D01*
G01*
G37*
G36*
G01*
X14254424Y-5158750D02*
X14820109Y-4593064D01*
G75*
G02*
X14943853Y-4593064I61872J-61872D01*
G01*
X15067597Y-4716808D01*
G75*
G02*
X15067597Y-4840552I-61872J-61872D01*
G01*
X14501911Y-5406238D01*
G75*
G02*
X14378167Y-5406238I-61872J61872D01*
G01*
X14254423Y-5282494D01*
G75*
G02*
X14254423Y-5158750I61872J61872D01*
G01*
G37*
G36*
G01*
X13900870Y-4805196D02*
X14466555Y-4239510D01*
G75*
G02*
X14590299Y-4239510I61872J-61872D01*
G01*
X14714043Y-4363254D01*
G75*
G02*
X14714043Y-4486998I-61872J-61872D01*
G01*
X14148357Y-5052684D01*
G75*
G02*
X14024613Y-5052684I-61872J61872D01*
G01*
X13900869Y-4928940D01*
G75*
G02*
X13900869Y-4805196I61872J61872D01*
G01*
G37*
G36*
G01*
X13547317Y-4451643D02*
X14113002Y-3885957D01*
G75*
G02*
X14236746Y-3885957I61872J-61872D01*
G01*
X14360490Y-4009701D01*
G75*
G02*
X14360490Y-4133445I-61872J-61872D01*
G01*
X13794804Y-4699131D01*
G75*
G02*
X13671060Y-4699131I-61872J61872D01*
G01*
X13547316Y-4575387D01*
G75*
G02*
X13547316Y-4451643I61872J61872D01*
G01*
G37*
G36*
G01*
X13193763Y-4098089D02*
X13759448Y-3532403D01*
G75*
G02*
X13883192Y-3532403I61872J-61872D01*
G01*
X14006936Y-3656147D01*
G75*
G02*
X14006936Y-3779891I-61872J-61872D01*
G01*
X13441250Y-4345577D01*
G75*
G02*
X13317506Y-4345577I-61872J61872D01*
G01*
X13193762Y-4221833D01*
G75*
G02*
X13193762Y-4098089I61872J61872D01*
G01*
G37*
G36*
G01*
X12840210Y-3744536D02*
X13405895Y-3178850D01*
G75*
G02*
X13529639Y-3178850I61872J-61872D01*
G01*
X13653383Y-3302594D01*
G75*
G02*
X13653383Y-3426338I-61872J-61872D01*
G01*
X13087697Y-3992024D01*
G75*
G02*
X12963953Y-3992024I-61872J61872D01*
G01*
X12840209Y-3868280D01*
G75*
G02*
X12840209Y-3744536I61872J61872D01*
G01*
G37*
G36*
G01*
X12486657Y-3390983D02*
X13052342Y-2825297D01*
G75*
G02*
X13176086Y-2825297I61872J-61872D01*
G01*
X13299830Y-2949041D01*
G75*
G02*
X13299830Y-3072785I-61872J-61872D01*
G01*
X12734144Y-3638471D01*
G75*
G02*
X12610400Y-3638471I-61872J61872D01*
G01*
X12486656Y-3514727D01*
G75*
G02*
X12486656Y-3390983I61872J61872D01*
G01*
G37*
G36*
G01*
X12133103Y-3037429D02*
X12698788Y-2471743D01*
G75*
G02*
X12822532Y-2471743I61872J-61872D01*
G01*
X12946276Y-2595487D01*
G75*
G02*
X12946276Y-2719231I-61872J-61872D01*
G01*
X12380590Y-3284917D01*
G75*
G02*
X12256846Y-3284917I-61872J61872D01*
G01*
X12133102Y-3161173D01*
G75*
G02*
X12133102Y-3037429I61872J61872D01*
G01*
G37*
G36*
G01*
X11779550Y-2683876D02*
X12345235Y-2118190D01*
G75*
G02*
X12468979Y-2118190I61872J-61872D01*
G01*
X12592723Y-2241934D01*
G75*
G02*
X12592723Y-2365678I-61872J-61872D01*
G01*
X12027037Y-2931364D01*
G75*
G02*
X11903293Y-2931364I-61872J61872D01*
G01*
X11779549Y-2807620D01*
G75*
G02*
X11779549Y-2683876I61872J61872D01*
G01*
G37*
G36*
G01*
X10807278Y-2241934D02*
X10931021Y-2118190D01*
G75*
G02*
X11054765Y-2118190I61872J-61872D01*
G01*
X11620451Y-2683876D01*
G75*
G02*
X11620451Y-2807620I-61872J-61872D01*
G01*
X11496707Y-2931364D01*
G75*
G02*
X11372963Y-2931364I-61872J61872D01*
G01*
X10807277Y-2365678D01*
G75*
G02*
X10807277Y-2241934I61872J61872D01*
G01*
G37*
G36*
G01*
X10453725Y-2595487D02*
X10577468Y-2471743D01*
G75*
G02*
X10701212Y-2471743I61872J-61872D01*
G01*
X11266898Y-3037429D01*
G75*
G02*
X11266898Y-3161173I-61872J-61872D01*
G01*
X11143154Y-3284917D01*
G75*
G02*
X11019410Y-3284917I-61872J61872D01*
G01*
X10453724Y-2719231D01*
G75*
G02*
X10453724Y-2595487I61872J61872D01*
G01*
G37*
G36*
G01*
X10100171Y-2949041D02*
X10223914Y-2825297D01*
G75*
G02*
X10347658Y-2825297I61872J-61872D01*
G01*
X10913344Y-3390983D01*
G75*
G02*
X10913344Y-3514727I-61872J-61872D01*
G01*
X10789600Y-3638471D01*
G75*
G02*
X10665856Y-3638471I-61872J61872D01*
G01*
X10100170Y-3072785D01*
G75*
G02*
X10100170Y-2949041I61872J61872D01*
G01*
G37*
G36*
G01*
X9746618Y-3302594D02*
X9870361Y-3178850D01*
G75*
G02*
X9994105Y-3178850I61872J-61872D01*
G01*
X10559791Y-3744536D01*
G75*
G02*
X10559791Y-3868280I-61872J-61872D01*
G01*
X10436047Y-3992024D01*
G75*
G02*
X10312303Y-3992024I-61872J61872D01*
G01*
X9746617Y-3426338D01*
G75*
G02*
X9746617Y-3302594I61872J61872D01*
G01*
G37*
G36*
G01*
X9393065Y-3656147D02*
X9516808Y-3532403D01*
G75*
G02*
X9640552Y-3532403I61872J-61872D01*
G01*
X10206238Y-4098089D01*
G75*
G02*
X10206238Y-4221833I-61872J-61872D01*
G01*
X10082494Y-4345577D01*
G75*
G02*
X9958750Y-4345577I-61872J61872D01*
G01*
X9393064Y-3779891D01*
G75*
G02*
X9393064Y-3656147I61872J61872D01*
G01*
G37*
G36*
G01*
X9039511Y-4009701D02*
X9163254Y-3885957D01*
G75*
G02*
X9286998Y-3885957I61872J-61872D01*
G01*
X9852684Y-4451643D01*
G75*
G02*
X9852684Y-4575387I-61872J-61872D01*
G01*
X9728940Y-4699131D01*
G75*
G02*
X9605196Y-4699131I-61872J61872D01*
G01*
X9039510Y-4133445D01*
G75*
G02*
X9039510Y-4009701I61872J61872D01*
G01*
G37*
G36*
G01*
X8685958Y-4363254D02*
X8809701Y-4239510D01*
G75*
G02*
X8933445Y-4239510I61872J-61872D01*
G01*
X9499131Y-4805196D01*
G75*
G02*
X9499131Y-4928940I-61872J-61872D01*
G01*
X9375387Y-5052684D01*
G75*
G02*
X9251643Y-5052684I-61872J61872D01*
G01*
X8685957Y-4486998D01*
G75*
G02*
X8685957Y-4363254I61872J61872D01*
G01*
G37*
G36*
G01*
X8332404Y-4716808D02*
X8456147Y-4593064D01*
G75*
G02*
X8579891Y-4593064I61872J-61872D01*
G01*
X9145577Y-5158750D01*
G75*
G02*
X9145577Y-5282494I-61872J-61872D01*
G01*
X9021833Y-5406238D01*
G75*
G02*
X8898089Y-5406238I-61872J61872D01*
G01*
X8332403Y-4840552D01*
G75*
G02*
X8332403Y-4716808I61872J61872D01*
G01*
G37*
G36*
G01*
X7978851Y-5070361D02*
X8102594Y-4946617D01*
G75*
G02*
X8226338Y-4946617I61872J-61872D01*
G01*
X8792024Y-5512303D01*
G75*
G02*
X8792024Y-5636047I-61872J-61872D01*
G01*
X8668280Y-5759791D01*
G75*
G02*
X8544536Y-5759791I-61872J61872D01*
G01*
X7978850Y-5194105D01*
G75*
G02*
X7978850Y-5070361I61872J61872D01*
G01*
G37*
G36*
G01*
X7625298Y-5423914D02*
X7749041Y-5300170D01*
G75*
G02*
X7872785Y-5300170I61872J-61872D01*
G01*
X8438471Y-5865856D01*
G75*
G02*
X8438471Y-5989600I-61872J-61872D01*
G01*
X8314727Y-6113344D01*
G75*
G02*
X8190983Y-6113344I-61872J61872D01*
G01*
X7625297Y-5547658D01*
G75*
G02*
X7625297Y-5423914I61872J61872D01*
G01*
G37*
G36*
G01*
X7271744Y-5777468D02*
X7395487Y-5653724D01*
G75*
G02*
X7519231Y-5653724I61872J-61872D01*
G01*
X8084917Y-6219410D01*
G75*
G02*
X8084917Y-6343154I-61872J-61872D01*
G01*
X7961173Y-6466898D01*
G75*
G02*
X7837429Y-6466898I-61872J61872D01*
G01*
X7271743Y-5901212D01*
G75*
G02*
X7271743Y-5777468I61872J61872D01*
G01*
G37*
G36*
G01*
X6918191Y-6131021D02*
X7041934Y-6007277D01*
G75*
G02*
X7165678Y-6007277I61872J-61872D01*
G01*
X7731364Y-6572963D01*
G75*
G02*
X7731364Y-6696707I-61872J-61872D01*
G01*
X7607620Y-6820451D01*
G75*
G02*
X7483876Y-6820451I-61872J61872D01*
G01*
X6918190Y-6254765D01*
G75*
G02*
X6918190Y-6131021I61872J61872D01*
G01*
G37*
%TD*%
D12*
%TO.C,U2*%
G36*
X3859700Y-7326033D02*
G01*
X2759700Y-8096033D01*
X2759700Y-5703967D01*
X3859700Y-6473967D01*
X3859700Y-7326033D01*
G37*
D13*
X1900000Y-6900000D03*
D14*
X4713500Y-8400000D03*
D15*
X4567000Y-6900000D03*
D14*
X4713500Y-5400000D03*
D12*
G36*
X91500Y-6374092D02*
G01*
X1041500Y-5703504D01*
X1041500Y-8096496D01*
X91500Y-7425908D01*
X91500Y-6374092D01*
G37*
%TD*%
%TO.C,JP1*%
G36*
X8784162Y-11498489D02*
G01*
X8779542Y-11489845D01*
X8776697Y-11480465D01*
X8775736Y-11470711D01*
X8776697Y-11460957D01*
X8779542Y-11451576D01*
X8784162Y-11442933D01*
X8790381Y-11435355D01*
X9285355Y-10940381D01*
X9292933Y-10934162D01*
X9301576Y-10929542D01*
X9310957Y-10926697D01*
X9320711Y-10925736D01*
X9330465Y-10926697D01*
X9339845Y-10929542D01*
X9348489Y-10934162D01*
X9356066Y-10940381D01*
X9851041Y-11435355D01*
X9857259Y-11442933D01*
X9861879Y-11451576D01*
X9864725Y-11460957D01*
X9865685Y-11470711D01*
X9864725Y-11480465D01*
X9861879Y-11489845D01*
X9857259Y-11498489D01*
X9851041Y-11506066D01*
X9843463Y-11512284D01*
X9834820Y-11516905D01*
X9825439Y-11519750D01*
X9815685Y-11520710D01*
X9370710Y-11520710D01*
X9370710Y-11965685D01*
X9369750Y-11975439D01*
X9366905Y-11984820D01*
X9362284Y-11993463D01*
X9356066Y-12001041D01*
X9348489Y-12007259D01*
X9339845Y-12011879D01*
X9330465Y-12014725D01*
X9320711Y-12015685D01*
X9310957Y-12014725D01*
X9301576Y-12011879D01*
X9292933Y-12007259D01*
X9285355Y-12001041D01*
X8790381Y-11506066D01*
X8784162Y-11498489D01*
G37*
G36*
X9367525Y-12081851D02*
G01*
X9362905Y-12073208D01*
X9360059Y-12063827D01*
X9359099Y-12054073D01*
X9359099Y-11559099D01*
X9360059Y-11549345D01*
X9362905Y-11539964D01*
X9367525Y-11531321D01*
X9373743Y-11523743D01*
X9381321Y-11517525D01*
X9389964Y-11512905D01*
X9399345Y-11510059D01*
X9409099Y-11509099D01*
X9904073Y-11509099D01*
X9913827Y-11510059D01*
X9923208Y-11512905D01*
X9931851Y-11517525D01*
X9939429Y-11523743D01*
X10186916Y-11771231D01*
X10193134Y-11778808D01*
X10197755Y-11787452D01*
X10200600Y-11796832D01*
X10201560Y-11806586D01*
X10200600Y-11816340D01*
X10197755Y-11825720D01*
X10193134Y-11834364D01*
X10186916Y-11841941D01*
X9691941Y-12336916D01*
X9684364Y-12343134D01*
X9675720Y-12347755D01*
X9666340Y-12350600D01*
X9656586Y-12351560D01*
X9646832Y-12350600D01*
X9637452Y-12347755D01*
X9628808Y-12343134D01*
X9621231Y-12336916D01*
X9373743Y-12089429D01*
X9367525Y-12081851D01*
G37*
G36*
X9985391Y-11640416D02*
G01*
X9490416Y-12135391D01*
X8995441Y-11640416D01*
X9490416Y-11145441D01*
X9985391Y-11640416D01*
G37*
%TD*%
D16*
%TO.C,J3*%
X20700000Y-1820000D03*
X20700000Y-4360000D03*
X20700000Y-6900000D03*
X20700000Y-9440000D03*
X20700000Y-11980000D03*
%TD*%
D17*
%TO.C,J2*%
X2000000Y-4600000D03*
X2000000Y-9200000D03*
D18*
X2000000Y-1200000D03*
X2000000Y-12600000D03*
%TD*%
%TO.C,C4*%
G36*
G01*
X2400000Y-3881250D02*
X2400000Y-2918750D01*
G75*
G02*
X2668750Y-2650000I268750J0D01*
G01*
X3206250Y-2650000D01*
G75*
G02*
X3475000Y-2918750I0J-268750D01*
G01*
X3475000Y-3881250D01*
G75*
G02*
X3206250Y-4150000I-268750J0D01*
G01*
X2668750Y-4150000D01*
G75*
G02*
X2400000Y-3881250I0J268750D01*
G01*
G37*
G36*
G01*
X525000Y-3881250D02*
X525000Y-2918750D01*
G75*
G02*
X793750Y-2650000I268750J0D01*
G01*
X1331250Y-2650000D01*
G75*
G02*
X1600000Y-2918750I0J-268750D01*
G01*
X1600000Y-3881250D01*
G75*
G02*
X1331250Y-4150000I-268750J0D01*
G01*
X793750Y-4150000D01*
G75*
G02*
X525000Y-3881250I0J268750D01*
G01*
G37*
%TD*%
%TO.C,C3*%
G36*
G01*
X1600000Y-9918750D02*
X1600000Y-10881250D01*
G75*
G02*
X1331250Y-11150000I-268750J0D01*
G01*
X793750Y-11150000D01*
G75*
G02*
X525000Y-10881250I0J268750D01*
G01*
X525000Y-9918750D01*
G75*
G02*
X793750Y-9650000I268750J0D01*
G01*
X1331250Y-9650000D01*
G75*
G02*
X1600000Y-9918750I0J-268750D01*
G01*
G37*
G36*
G01*
X3475000Y-9918750D02*
X3475000Y-10881250D01*
G75*
G02*
X3206250Y-11150000I-268750J0D01*
G01*
X2668750Y-11150000D01*
G75*
G02*
X2400000Y-10881250I0J268750D01*
G01*
X2400000Y-9918750D01*
G75*
G02*
X2668750Y-9650000I268750J0D01*
G01*
X3206250Y-9650000D01*
G75*
G02*
X3475000Y-9918750I0J-268750D01*
G01*
G37*
%TD*%
M02*
