%TF.GenerationSoftware,KiCad,Pcbnew,(5.1.6)-1*%
%TF.CreationDate,2020-09-29T18:05:28+08:00*%
%TF.ProjectId,stlink,73746c69-6e6b-42e6-9b69-6361645f7063,rev?*%
%TF.SameCoordinates,Original*%
%TF.FileFunction,Legend,Top*%
%TF.FilePolarity,Positive*%
%FSLAX46Y46*%
G04 Gerber Fmt 4.6, Leading zero omitted, Abs format (unit mm)*
G04 Created by KiCad (PCBNEW (5.1.6)-1) date 2020-09-29 18:05:28*
%MOMM*%
%LPD*%
G01*
G04 APERTURE LIST*
%ADD10C,0.300000*%
%ADD11C,0.150000*%
%ADD12C,0.200000*%
%ADD13C,0.010000*%
%ADD14C,0.120000*%
G04 APERTURE END LIST*
D10*
X18319047Y-2904761D02*
X17652380Y-1952380D01*
X17176190Y-2904761D02*
X17176190Y-904761D01*
X17938095Y-904761D01*
X18128571Y-1000000D01*
X18223809Y-1095238D01*
X18319047Y-1285714D01*
X18319047Y-1571428D01*
X18223809Y-1761904D01*
X18128571Y-1857142D01*
X17938095Y-1952380D01*
X17176190Y-1952380D01*
X18173809Y-3350000D02*
X17983333Y-3254761D01*
X17697619Y-3254761D01*
X17411904Y-3350000D01*
X17221428Y-3540476D01*
X17126190Y-3730952D01*
X17030952Y-4111904D01*
X17030952Y-4397619D01*
X17126190Y-4778571D01*
X17221428Y-4969047D01*
X17411904Y-5159523D01*
X17697619Y-5254761D01*
X17888095Y-5254761D01*
X18173809Y-5159523D01*
X18269047Y-5064285D01*
X18269047Y-4397619D01*
X17888095Y-4397619D01*
X15426190Y-10854761D02*
X16664285Y-10854761D01*
X15997619Y-11616666D01*
X16283333Y-11616666D01*
X16473809Y-11711904D01*
X16569047Y-11807142D01*
X16664285Y-11997619D01*
X16664285Y-12473809D01*
X16569047Y-12664285D01*
X16473809Y-12759523D01*
X16283333Y-12854761D01*
X15711904Y-12854761D01*
X15521428Y-12759523D01*
X15426190Y-12664285D01*
X17235714Y-10854761D02*
X17902380Y-12854761D01*
X18569047Y-10854761D01*
X16052380Y-10354761D02*
X16052380Y-8354761D01*
X17385714Y-8354761D02*
X17766666Y-8354761D01*
X17957142Y-8450000D01*
X18147619Y-8640476D01*
X18242857Y-9021428D01*
X18242857Y-9688095D01*
X18147619Y-10069047D01*
X17957142Y-10259523D01*
X17766666Y-10354761D01*
X17385714Y-10354761D01*
X17195238Y-10259523D01*
X17004761Y-10069047D01*
X16909523Y-9688095D01*
X16909523Y-9021428D01*
X17004761Y-8640476D01*
X17195238Y-8450000D01*
X17385714Y-8354761D01*
X16269047Y-7614285D02*
X16173809Y-7709523D01*
X15888095Y-7804761D01*
X15697619Y-7804761D01*
X15411904Y-7709523D01*
X15221428Y-7519047D01*
X15126190Y-7328571D01*
X15030952Y-6947619D01*
X15030952Y-6661904D01*
X15126190Y-6280952D01*
X15221428Y-6090476D01*
X15411904Y-5900000D01*
X15697619Y-5804761D01*
X15888095Y-5804761D01*
X16173809Y-5900000D01*
X16269047Y-5995238D01*
X17126190Y-7804761D02*
X17126190Y-5804761D01*
X18269047Y-7804761D02*
X17411904Y-6661904D01*
X18269047Y-5804761D02*
X17126190Y-6947619D01*
D11*
X177380Y-11669047D02*
X891666Y-11669047D01*
X1034523Y-11716666D01*
X1129761Y-11811904D01*
X1177380Y-11954761D01*
X1177380Y-12050000D01*
X1177380Y-10716666D02*
X1177380Y-11192857D01*
X177380Y-11192857D01*
X1082142Y-9811904D02*
X1129761Y-9859523D01*
X1177380Y-10002380D01*
X1177380Y-10097619D01*
X1129761Y-10240476D01*
X1034523Y-10335714D01*
X939285Y-10383333D01*
X748809Y-10430952D01*
X605952Y-10430952D01*
X415476Y-10383333D01*
X320238Y-10335714D01*
X224999Y-10240476D01*
X177380Y-10097619D01*
X177380Y-10002380D01*
X224999Y-9859523D01*
X272619Y-9811904D01*
X177380Y-9097619D02*
X891666Y-9097619D01*
X1034523Y-9145238D01*
X1129761Y-9240476D01*
X1177380Y-9383333D01*
X1177380Y-9478571D01*
X1177380Y-8145238D02*
X1177380Y-8621428D01*
X177380Y-8621428D01*
X1082142Y-7240476D02*
X1129761Y-7288095D01*
X1177380Y-7430952D01*
X1177380Y-7526190D01*
X1129761Y-7669047D01*
X1034523Y-7764285D01*
X939285Y-7811904D01*
X748809Y-7859523D01*
X605952Y-7859523D01*
X415476Y-7811904D01*
X320238Y-7764285D01*
X224999Y-7669047D01*
X177380Y-7526190D01*
X177380Y-7430952D01*
X225000Y-7288095D01*
X272619Y-7240476D01*
X177380Y-6526190D02*
X891666Y-6526190D01*
X1034523Y-6573809D01*
X1129761Y-6669047D01*
X1177380Y-6811904D01*
X1177380Y-6907142D01*
X1177380Y-5573809D02*
X1177380Y-6050000D01*
X177380Y-6050000D01*
X1082142Y-4669047D02*
X1129761Y-4716666D01*
X1177380Y-4859523D01*
X1177380Y-4954761D01*
X1129761Y-5097619D01*
X1034523Y-5192857D01*
X939285Y-5240476D01*
X748809Y-5288095D01*
X605952Y-5288095D01*
X415476Y-5240476D01*
X320238Y-5192857D01*
X225000Y-5097619D01*
X177380Y-4954761D01*
X177380Y-4859523D01*
X225000Y-4716666D01*
X272619Y-4669047D01*
X177380Y-3954761D02*
X891666Y-3954761D01*
X1034523Y-4002380D01*
X1129761Y-4097619D01*
X1177380Y-4240476D01*
X1177380Y-4335714D01*
X1177380Y-3002380D02*
X1177380Y-3478571D01*
X177380Y-3478571D01*
X1082142Y-2097619D02*
X1129761Y-2145238D01*
X1177380Y-2288095D01*
X1177380Y-2383333D01*
X1129761Y-2526190D01*
X1034523Y-2621428D01*
X939285Y-2669047D01*
X748809Y-2716666D01*
X605952Y-2716666D01*
X415476Y-2669047D01*
X320238Y-2621428D01*
X225000Y-2526190D01*
X177380Y-2383333D01*
X177380Y-2288095D01*
X225000Y-2145238D01*
X272619Y-2097619D01*
X1827380Y-11669047D02*
X2541666Y-11669047D01*
X2684523Y-11716666D01*
X2779761Y-11811904D01*
X2827380Y-11954761D01*
X2827380Y-12050000D01*
X2827380Y-10716666D02*
X2827380Y-11192857D01*
X1827380Y-11192857D01*
X2732142Y-9811904D02*
X2779761Y-9859523D01*
X2827380Y-10002380D01*
X2827380Y-10097619D01*
X2779761Y-10240476D01*
X2684523Y-10335714D01*
X2589285Y-10383333D01*
X2398809Y-10430952D01*
X2255952Y-10430952D01*
X2065476Y-10383333D01*
X1970238Y-10335714D01*
X1874999Y-10240476D01*
X1827380Y-10097619D01*
X1827380Y-10002380D01*
X1874999Y-9859523D01*
X1922619Y-9811904D01*
X1827380Y-9097619D02*
X2541666Y-9097619D01*
X2684523Y-9145238D01*
X2779761Y-9240476D01*
X2827380Y-9383333D01*
X2827380Y-9478571D01*
X2827380Y-8145238D02*
X2827380Y-8621428D01*
X1827380Y-8621428D01*
X2732142Y-7240476D02*
X2779761Y-7288095D01*
X2827380Y-7430952D01*
X2827380Y-7526190D01*
X2779761Y-7669047D01*
X2684523Y-7764285D01*
X2589285Y-7811904D01*
X2398809Y-7859523D01*
X2255952Y-7859523D01*
X2065476Y-7811904D01*
X1970238Y-7764285D01*
X1875000Y-7669047D01*
X1827380Y-7526190D01*
X1827380Y-7430952D01*
X1875000Y-7288095D01*
X1922619Y-7240476D01*
X1827380Y-6526190D02*
X2541666Y-6526190D01*
X2684523Y-6573809D01*
X2779761Y-6669047D01*
X2827380Y-6811904D01*
X2827380Y-6907142D01*
X2827380Y-5573809D02*
X2827380Y-6050000D01*
X1827380Y-6050000D01*
X2732142Y-4669047D02*
X2779761Y-4716666D01*
X2827380Y-4859523D01*
X2827380Y-4954761D01*
X2779761Y-5097619D01*
X2684523Y-5192857D01*
X2589285Y-5240476D01*
X2398809Y-5288095D01*
X2255952Y-5288095D01*
X2065476Y-5240476D01*
X1970238Y-5192857D01*
X1875000Y-5097619D01*
X1827380Y-4954761D01*
X1827380Y-4859523D01*
X1875000Y-4716666D01*
X1922619Y-4669047D01*
X1827380Y-3954761D02*
X2541666Y-3954761D01*
X2684523Y-4002380D01*
X2779761Y-4097619D01*
X2827380Y-4240476D01*
X2827380Y-4335714D01*
X2827380Y-3002380D02*
X2827380Y-3478571D01*
X1827380Y-3478571D01*
X2732142Y-2097619D02*
X2779761Y-2145238D01*
X2827380Y-2288095D01*
X2827380Y-2383333D01*
X2779761Y-2526190D01*
X2684523Y-2621428D01*
X2589285Y-2669047D01*
X2398809Y-2716666D01*
X2255952Y-2716666D01*
X2065476Y-2669047D01*
X1970238Y-2621428D01*
X1875000Y-2526190D01*
X1827380Y-2383333D01*
X1827380Y-2288095D01*
X1875000Y-2145238D01*
X1922619Y-2097619D01*
D12*
%TO.C,G\u002A\u002A\u002A*%
G36*
X14394639Y-197306D02*
G01*
X14444295Y-203706D01*
X14506588Y-214322D01*
X14578050Y-228532D01*
X14655213Y-245714D01*
X14699981Y-256491D01*
X14898698Y-315395D01*
X15096191Y-392940D01*
X15289227Y-487546D01*
X15474570Y-597635D01*
X15642754Y-716802D01*
X15679921Y-746240D01*
X15720321Y-779487D01*
X15761242Y-814149D01*
X15799971Y-847835D01*
X15833796Y-878152D01*
X15860004Y-902707D01*
X15875882Y-919109D01*
X15878800Y-924967D01*
X15869556Y-918561D01*
X15849157Y-901409D01*
X15821278Y-876651D01*
X15807680Y-864240D01*
X15672409Y-749504D01*
X15523043Y-640232D01*
X15365769Y-540631D01*
X15206772Y-454909D01*
X15203160Y-453141D01*
X15085501Y-398383D01*
X14972546Y-351804D01*
X14860010Y-312130D01*
X14743608Y-278089D01*
X14619055Y-248405D01*
X14482065Y-221806D01*
X14354800Y-200999D01*
X14340576Y-198276D01*
X14345036Y-196674D01*
X14361089Y-195743D01*
X14394639Y-197306D01*
G37*
X14394639Y-197306D02*
X14444295Y-203706D01*
X14506588Y-214322D01*
X14578050Y-228532D01*
X14655213Y-245714D01*
X14699981Y-256491D01*
X14898698Y-315395D01*
X15096191Y-392940D01*
X15289227Y-487546D01*
X15474570Y-597635D01*
X15642754Y-716802D01*
X15679921Y-746240D01*
X15720321Y-779487D01*
X15761242Y-814149D01*
X15799971Y-847835D01*
X15833796Y-878152D01*
X15860004Y-902707D01*
X15875882Y-919109D01*
X15878800Y-924967D01*
X15869556Y-918561D01*
X15849157Y-901409D01*
X15821278Y-876651D01*
X15807680Y-864240D01*
X15672409Y-749504D01*
X15523043Y-640232D01*
X15365769Y-540631D01*
X15206772Y-454909D01*
X15203160Y-453141D01*
X15085501Y-398383D01*
X14972546Y-351804D01*
X14860010Y-312130D01*
X14743608Y-278089D01*
X14619055Y-248405D01*
X14482065Y-221806D01*
X14354800Y-200999D01*
X14340576Y-198276D01*
X14345036Y-196674D01*
X14361089Y-195743D01*
X14394639Y-197306D01*
G36*
X13768078Y-197018D02*
G01*
X13767703Y-198830D01*
X13755360Y-200999D01*
X13632805Y-220763D01*
X13526105Y-240525D01*
X13430823Y-261350D01*
X13342521Y-284299D01*
X13256761Y-310434D01*
X13169107Y-340819D01*
X13164689Y-342434D01*
X12968619Y-423238D01*
X12781055Y-519206D01*
X12599619Y-631761D01*
X12421934Y-762329D01*
X12312640Y-852926D01*
X12226280Y-927603D01*
X12297400Y-860359D01*
X12443957Y-734108D01*
X12606103Y-616828D01*
X12780387Y-510386D01*
X12963358Y-416652D01*
X13151566Y-337496D01*
X13341561Y-274785D01*
X13414077Y-255515D01*
X13491242Y-237359D01*
X13565214Y-221691D01*
X13632412Y-209151D01*
X13689248Y-200378D01*
X13732141Y-196011D01*
X13749070Y-195743D01*
X13768078Y-197018D01*
G37*
X13768078Y-197018D02*
X13767703Y-198830D01*
X13755360Y-200999D01*
X13632805Y-220763D01*
X13526105Y-240525D01*
X13430823Y-261350D01*
X13342521Y-284299D01*
X13256761Y-310434D01*
X13169107Y-340819D01*
X13164689Y-342434D01*
X12968619Y-423238D01*
X12781055Y-519206D01*
X12599619Y-631761D01*
X12421934Y-762329D01*
X12312640Y-852926D01*
X12226280Y-927603D01*
X12297400Y-860359D01*
X12443957Y-734108D01*
X12606103Y-616828D01*
X12780387Y-510386D01*
X12963358Y-416652D01*
X13151566Y-337496D01*
X13341561Y-274785D01*
X13414077Y-255515D01*
X13491242Y-237359D01*
X13565214Y-221691D01*
X13632412Y-209151D01*
X13689248Y-200378D01*
X13732141Y-196011D01*
X13749070Y-195743D01*
X13768078Y-197018D01*
D13*
G36*
X15511470Y-1631029D02*
G01*
X15522377Y-1641259D01*
X15520139Y-1647141D01*
X15518719Y-1647240D01*
X15510126Y-1640023D01*
X15506989Y-1635510D01*
X15505792Y-1628557D01*
X15511470Y-1631029D01*
G37*
X15511470Y-1631029D02*
X15522377Y-1641259D01*
X15520139Y-1647141D01*
X15518719Y-1647240D01*
X15510126Y-1640023D01*
X15506989Y-1635510D01*
X15505792Y-1628557D01*
X15511470Y-1631029D01*
G36*
X12604092Y-1633482D02*
G01*
X12602200Y-1637080D01*
X12592627Y-1646782D01*
X12590840Y-1647240D01*
X12590147Y-1640677D01*
X12592040Y-1637080D01*
X12601612Y-1627377D01*
X12603399Y-1626920D01*
X12604092Y-1633482D01*
G37*
X12604092Y-1633482D02*
X12602200Y-1637080D01*
X12592627Y-1646782D01*
X12590840Y-1647240D01*
X12590147Y-1640677D01*
X12592040Y-1637080D01*
X12601612Y-1627377D01*
X12603399Y-1626920D01*
X12604092Y-1633482D01*
D12*
G36*
X15932241Y-977590D02*
G01*
X15950568Y-996704D01*
X15974939Y-1022400D01*
X16107639Y-1176436D01*
X16228903Y-1345556D01*
X16337521Y-1527285D01*
X16432285Y-1719146D01*
X16511987Y-1918665D01*
X16575418Y-2123367D01*
X16621369Y-2330778D01*
X16625448Y-2354509D01*
X16632286Y-2400458D01*
X16636851Y-2441112D01*
X16638590Y-2470882D01*
X16637992Y-2481509D01*
X16634779Y-2494787D01*
X16632951Y-2489573D01*
X16632023Y-2474070D01*
X16626652Y-2418451D01*
X16615300Y-2348007D01*
X16598981Y-2266993D01*
X16578708Y-2179664D01*
X16555495Y-2090271D01*
X16530355Y-2003071D01*
X16504303Y-1922317D01*
X16492897Y-1890157D01*
X16411626Y-1692887D01*
X16315305Y-1504600D01*
X16202469Y-1322849D01*
X16071656Y-1145187D01*
X15984032Y-1039654D01*
X15951790Y-1002355D01*
X15932587Y-979913D01*
X15926159Y-971826D01*
X15932241Y-977590D01*
G37*
X15932241Y-977590D02*
X15950568Y-996704D01*
X15974939Y-1022400D01*
X16107639Y-1176436D01*
X16228903Y-1345556D01*
X16337521Y-1527285D01*
X16432285Y-1719146D01*
X16511987Y-1918665D01*
X16575418Y-2123367D01*
X16621369Y-2330778D01*
X16625448Y-2354509D01*
X16632286Y-2400458D01*
X16636851Y-2441112D01*
X16638590Y-2470882D01*
X16637992Y-2481509D01*
X16634779Y-2494787D01*
X16632951Y-2489573D01*
X16632023Y-2474070D01*
X16626652Y-2418451D01*
X16615300Y-2348007D01*
X16598981Y-2266993D01*
X16578708Y-2179664D01*
X16555495Y-2090271D01*
X16530355Y-2003071D01*
X16504303Y-1922317D01*
X16492897Y-1890157D01*
X16411626Y-1692887D01*
X16315305Y-1504600D01*
X16202469Y-1322849D01*
X16071656Y-1145187D01*
X15984032Y-1039654D01*
X15951790Y-1002355D01*
X15932587Y-979913D01*
X15926159Y-971826D01*
X15932241Y-977590D01*
G36*
X12127926Y-1037640D02*
G01*
X11985478Y-1214193D01*
X11861926Y-1393024D01*
X11755845Y-1576509D01*
X11665810Y-1767027D01*
X11617434Y-1889689D01*
X11586814Y-1977550D01*
X11560495Y-2063299D01*
X11537415Y-2151373D01*
X11516512Y-2246211D01*
X11496722Y-2352248D01*
X11476983Y-2473923D01*
X11475999Y-2480360D01*
X11473276Y-2494583D01*
X11471674Y-2490123D01*
X11470743Y-2474070D01*
X11472292Y-2440799D01*
X11478614Y-2391527D01*
X11489071Y-2329837D01*
X11503022Y-2259315D01*
X11519828Y-2183544D01*
X11530515Y-2139077D01*
X11586432Y-1949312D01*
X11659511Y-1760012D01*
X11747883Y-1574627D01*
X11849678Y-1396608D01*
X11963028Y-1229406D01*
X12086064Y-1076470D01*
X12135359Y-1022400D01*
X12202603Y-951280D01*
X12127926Y-1037640D01*
G37*
X12127926Y-1037640D02*
X11985478Y-1214193D01*
X11861926Y-1393024D01*
X11755845Y-1576509D01*
X11665810Y-1767027D01*
X11617434Y-1889689D01*
X11586814Y-1977550D01*
X11560495Y-2063299D01*
X11537415Y-2151373D01*
X11516512Y-2246211D01*
X11496722Y-2352248D01*
X11476983Y-2473923D01*
X11475999Y-2480360D01*
X11473276Y-2494583D01*
X11471674Y-2490123D01*
X11470743Y-2474070D01*
X11472292Y-2440799D01*
X11478614Y-2391527D01*
X11489071Y-2329837D01*
X11503022Y-2259315D01*
X11519828Y-2183544D01*
X11530515Y-2139077D01*
X11586432Y-1949312D01*
X11659511Y-1760012D01*
X11747883Y-1574627D01*
X11849678Y-1396608D01*
X11963028Y-1229406D01*
X12086064Y-1076470D01*
X12135359Y-1022400D01*
X12202603Y-951280D01*
X12127926Y-1037640D01*
G36*
X16639686Y-3085629D02*
G01*
X16637748Y-3124971D01*
X16630344Y-3179924D01*
X16618329Y-3246786D01*
X16602562Y-3321858D01*
X16583897Y-3401438D01*
X16563191Y-3481826D01*
X16541300Y-3559321D01*
X16519081Y-3630221D01*
X16503173Y-3675615D01*
X16473851Y-3748939D01*
X16437101Y-3832146D01*
X16395734Y-3919488D01*
X16352564Y-4005214D01*
X16310405Y-4083576D01*
X16272067Y-4148823D01*
X16270275Y-4151680D01*
X16223667Y-4222087D01*
X16169164Y-4298592D01*
X16110799Y-4375924D01*
X16052605Y-4448810D01*
X15998613Y-4511979D01*
X15974939Y-4537760D01*
X15907556Y-4608880D01*
X15982233Y-4522520D01*
X16131302Y-4336932D01*
X16260769Y-4147289D01*
X16371134Y-3952520D01*
X16462894Y-3751556D01*
X16536548Y-3543328D01*
X16592594Y-3326765D01*
X16625975Y-3140760D01*
X16631563Y-3106344D01*
X16636135Y-3085433D01*
X16639041Y-3080644D01*
X16639686Y-3085629D01*
G37*
X16639686Y-3085629D02*
X16637748Y-3124971D01*
X16630344Y-3179924D01*
X16618329Y-3246786D01*
X16602562Y-3321858D01*
X16583897Y-3401438D01*
X16563191Y-3481826D01*
X16541300Y-3559321D01*
X16519081Y-3630221D01*
X16503173Y-3675615D01*
X16473851Y-3748939D01*
X16437101Y-3832146D01*
X16395734Y-3919488D01*
X16352564Y-4005214D01*
X16310405Y-4083576D01*
X16272067Y-4148823D01*
X16270275Y-4151680D01*
X16223667Y-4222087D01*
X16169164Y-4298592D01*
X16110799Y-4375924D01*
X16052605Y-4448810D01*
X15998613Y-4511979D01*
X15974939Y-4537760D01*
X15907556Y-4608880D01*
X15982233Y-4522520D01*
X16131302Y-4336932D01*
X16260769Y-4147289D01*
X16371134Y-3952520D01*
X16462894Y-3751556D01*
X16536548Y-3543328D01*
X16592594Y-3326765D01*
X16625975Y-3140760D01*
X16631563Y-3106344D01*
X16636135Y-3085433D01*
X16639041Y-3080644D01*
X16639686Y-3085629D01*
G36*
X11477208Y-3070586D02*
G01*
X11478136Y-3086089D01*
X11480473Y-3110553D01*
X11485499Y-3148211D01*
X11492278Y-3192264D01*
X11494904Y-3208009D01*
X11543615Y-3434010D01*
X11611376Y-3653241D01*
X11697836Y-3864975D01*
X11802644Y-4068484D01*
X11925449Y-4263040D01*
X12065899Y-4447917D01*
X12127818Y-4519980D01*
X12157213Y-4553500D01*
X12180203Y-4580642D01*
X12194277Y-4598378D01*
X12197308Y-4603800D01*
X12188923Y-4596673D01*
X12170083Y-4577351D01*
X12143723Y-4548925D01*
X12117658Y-4519980D01*
X11972201Y-4341942D01*
X11843443Y-4153953D01*
X11732104Y-3957350D01*
X11638907Y-3753471D01*
X11564571Y-3543651D01*
X11535610Y-3440480D01*
X11518074Y-3368539D01*
X11502464Y-3297378D01*
X11489381Y-3230423D01*
X11479425Y-3171102D01*
X11473197Y-3122841D01*
X11471299Y-3089067D01*
X11472167Y-3078650D01*
X11475380Y-3065372D01*
X11477208Y-3070586D01*
G37*
X11477208Y-3070586D02*
X11478136Y-3086089D01*
X11480473Y-3110553D01*
X11485499Y-3148211D01*
X11492278Y-3192264D01*
X11494904Y-3208009D01*
X11543615Y-3434010D01*
X11611376Y-3653241D01*
X11697836Y-3864975D01*
X11802644Y-4068484D01*
X11925449Y-4263040D01*
X12065899Y-4447917D01*
X12127818Y-4519980D01*
X12157213Y-4553500D01*
X12180203Y-4580642D01*
X12194277Y-4598378D01*
X12197308Y-4603800D01*
X12188923Y-4596673D01*
X12170083Y-4577351D01*
X12143723Y-4548925D01*
X12117658Y-4519980D01*
X11972201Y-4341942D01*
X11843443Y-4153953D01*
X11732104Y-3957350D01*
X11638907Y-3753471D01*
X11564571Y-3543651D01*
X11535610Y-3440480D01*
X11518074Y-3368539D01*
X11502464Y-3297378D01*
X11489381Y-3230423D01*
X11479425Y-3171102D01*
X11473197Y-3122841D01*
X11471299Y-3089067D01*
X11472167Y-3078650D01*
X11475380Y-3065372D01*
X11477208Y-3070586D01*
G36*
X15857569Y-4657241D02*
G01*
X15838455Y-4675568D01*
X15812760Y-4699939D01*
X15668560Y-4824416D01*
X15508669Y-4940426D01*
X15336636Y-5046044D01*
X15156007Y-5139346D01*
X14970330Y-5218406D01*
X14783153Y-5281301D01*
X14699981Y-5303668D01*
X14621131Y-5322253D01*
X14546024Y-5338217D01*
X14478129Y-5350938D01*
X14420913Y-5359795D01*
X14377845Y-5364165D01*
X14361089Y-5364416D01*
X14342081Y-5363141D01*
X14342456Y-5361329D01*
X14354800Y-5359160D01*
X14505443Y-5334171D01*
X14640068Y-5307165D01*
X14762967Y-5276868D01*
X14878426Y-5242004D01*
X14990737Y-5201300D01*
X15104188Y-5153479D01*
X15203160Y-5107048D01*
X15360300Y-5023543D01*
X15511500Y-4928737D01*
X15660927Y-4819830D01*
X15795505Y-4709032D01*
X15832804Y-4676790D01*
X15855246Y-4657587D01*
X15863333Y-4651159D01*
X15857569Y-4657241D01*
G37*
X15857569Y-4657241D02*
X15838455Y-4675568D01*
X15812760Y-4699939D01*
X15668560Y-4824416D01*
X15508669Y-4940426D01*
X15336636Y-5046044D01*
X15156007Y-5139346D01*
X14970330Y-5218406D01*
X14783153Y-5281301D01*
X14699981Y-5303668D01*
X14621131Y-5322253D01*
X14546024Y-5338217D01*
X14478129Y-5350938D01*
X14420913Y-5359795D01*
X14377845Y-5364165D01*
X14361089Y-5364416D01*
X14342081Y-5363141D01*
X14342456Y-5361329D01*
X14354800Y-5359160D01*
X14505443Y-5334171D01*
X14640068Y-5307165D01*
X14762967Y-5276868D01*
X14878426Y-5242004D01*
X14990737Y-5201300D01*
X15104188Y-5153479D01*
X15203160Y-5107048D01*
X15360300Y-5023543D01*
X15511500Y-4928737D01*
X15660927Y-4819830D01*
X15795505Y-4709032D01*
X15832804Y-4676790D01*
X15855246Y-4657587D01*
X15863333Y-4651159D01*
X15857569Y-4657241D01*
G36*
X12312640Y-4707233D02*
G01*
X12498227Y-4856302D01*
X12687870Y-4985769D01*
X12882639Y-5096134D01*
X13083603Y-5187894D01*
X13291831Y-5261548D01*
X13508394Y-5317594D01*
X13694400Y-5350975D01*
X13729018Y-5356593D01*
X13747464Y-5360849D01*
X13748181Y-5363309D01*
X13740120Y-5363740D01*
X13710742Y-5362016D01*
X13669297Y-5357296D01*
X13623654Y-5350510D01*
X13613120Y-5348707D01*
X13406923Y-5304104D01*
X13208112Y-5243688D01*
X13011796Y-5165867D01*
X12917160Y-5121933D01*
X12758604Y-5037776D01*
X12604528Y-4942096D01*
X12459778Y-4838191D01*
X12329197Y-4729360D01*
X12297400Y-4699939D01*
X12226280Y-4632556D01*
X12312640Y-4707233D01*
G37*
X12312640Y-4707233D02*
X12498227Y-4856302D01*
X12687870Y-4985769D01*
X12882639Y-5096134D01*
X13083603Y-5187894D01*
X13291831Y-5261548D01*
X13508394Y-5317594D01*
X13694400Y-5350975D01*
X13729018Y-5356593D01*
X13747464Y-5360849D01*
X13748181Y-5363309D01*
X13740120Y-5363740D01*
X13710742Y-5362016D01*
X13669297Y-5357296D01*
X13623654Y-5350510D01*
X13613120Y-5348707D01*
X13406923Y-5304104D01*
X13208112Y-5243688D01*
X13011796Y-5165867D01*
X12917160Y-5121933D01*
X12758604Y-5037776D01*
X12604528Y-4942096D01*
X12459778Y-4838191D01*
X12329197Y-4729360D01*
X12297400Y-4699939D01*
X12226280Y-4632556D01*
X12312640Y-4707233D01*
G36*
X16661120Y-5386120D02*
G01*
X11449040Y-5386120D01*
X11449040Y-5376888D01*
X12220948Y-5376888D01*
X13131705Y-5375246D01*
X14042461Y-5373604D01*
X13667770Y-4998785D01*
X13293233Y-4624120D01*
X13303342Y-4624120D01*
X13679160Y-5000040D01*
X13751129Y-5072027D01*
X13818580Y-5139491D01*
X13880182Y-5201101D01*
X13934606Y-5255528D01*
X13980521Y-5301441D01*
X14016597Y-5337511D01*
X14041504Y-5362408D01*
X14053913Y-5374801D01*
X14055080Y-5375960D01*
X14057635Y-5373411D01*
X14067891Y-5373411D01*
X14978551Y-5375191D01*
X15889211Y-5376972D01*
X15886545Y-5003086D01*
X15883880Y-4629200D01*
X15350480Y-4626583D01*
X14848277Y-4624120D01*
X15899120Y-4624120D01*
X15899120Y-5375960D01*
X16650960Y-5375960D01*
X16650960Y-4624120D01*
X15899120Y-4624120D01*
X14848277Y-4624120D01*
X14817080Y-4623967D01*
X14442485Y-4998689D01*
X14067891Y-5373411D01*
X14057635Y-5373411D01*
X14062061Y-5368996D01*
X14082079Y-5348991D01*
X14113802Y-5317276D01*
X14155902Y-5275180D01*
X14207048Y-5224032D01*
X14265909Y-5165164D01*
X14331157Y-5099906D01*
X14401461Y-5029586D01*
X14431000Y-5000040D01*
X14806817Y-4624120D01*
X13303342Y-4624120D01*
X13293233Y-4624120D01*
X13293080Y-4623967D01*
X12759680Y-4626583D01*
X12226280Y-4629200D01*
X12220948Y-5376888D01*
X11449040Y-5376888D01*
X11449040Y-4624120D01*
X11459200Y-4624120D01*
X11459200Y-5375960D01*
X12211040Y-5375960D01*
X12211040Y-4624120D01*
X11459200Y-4624120D01*
X11449040Y-4624120D01*
X11449040Y-4614211D01*
X11458271Y-4614211D01*
X11493467Y-4613960D01*
X12221200Y-4613960D01*
X12749520Y-4613960D01*
X14827313Y-4613960D01*
X15888960Y-4613960D01*
X15888960Y-4085640D01*
X15888911Y-3984169D01*
X15888774Y-3889100D01*
X15888555Y-3802319D01*
X15888265Y-3725713D01*
X15887912Y-3661167D01*
X15887507Y-3610569D01*
X15887057Y-3575804D01*
X15886573Y-3558758D01*
X15886383Y-3557320D01*
X15878964Y-3564321D01*
X15858314Y-3584577D01*
X15825560Y-3616965D01*
X15781830Y-3660362D01*
X15728252Y-3713646D01*
X15665955Y-3775694D01*
X15596066Y-3845384D01*
X15519712Y-3921592D01*
X15438023Y-4003196D01*
X15355560Y-4085640D01*
X14827313Y-4613960D01*
X12749520Y-4613960D01*
X12850990Y-4613911D01*
X12946059Y-4613774D01*
X13032840Y-4613555D01*
X13109446Y-4613265D01*
X13173992Y-4612912D01*
X13224590Y-4612507D01*
X13259355Y-4612057D01*
X13276401Y-4611573D01*
X13277840Y-4611383D01*
X13270838Y-4603964D01*
X13250582Y-4583314D01*
X13218194Y-4550560D01*
X13174797Y-4506830D01*
X13121513Y-4453252D01*
X13059465Y-4390955D01*
X12989775Y-4321066D01*
X12920674Y-4251832D01*
X12940996Y-4251832D01*
X12950963Y-4264920D01*
X12973825Y-4290166D01*
X13010068Y-4328118D01*
X13060179Y-4379326D01*
X13094081Y-4413595D01*
X13291323Y-4612396D01*
X14818852Y-4612396D01*
X15000740Y-4430298D01*
X15062815Y-4367763D01*
X15110468Y-4318850D01*
X15144009Y-4283184D01*
X15163750Y-4260393D01*
X15170000Y-4250103D01*
X15163070Y-4251941D01*
X15143272Y-4265533D01*
X15128422Y-4276792D01*
X15048505Y-4332447D01*
X14953915Y-4388227D01*
X14850087Y-4441321D01*
X14742455Y-4488915D01*
X14654009Y-4522269D01*
X14595156Y-4541222D01*
X14531885Y-4559340D01*
X14468589Y-4575583D01*
X14409664Y-4588917D01*
X14359505Y-4598302D01*
X14322507Y-4602703D01*
X14312564Y-4602843D01*
X14311872Y-4600806D01*
X14328223Y-4596018D01*
X14358644Y-4589229D01*
X14393305Y-4582452D01*
X14435856Y-4573472D01*
X14486375Y-4561156D01*
X14540876Y-4546670D01*
X14595370Y-4531184D01*
X14645872Y-4515864D01*
X14688394Y-4501880D01*
X14718949Y-4490398D01*
X14733270Y-4482863D01*
X14725754Y-4477819D01*
X14713347Y-4471720D01*
X14767152Y-4471720D01*
X14777592Y-4467441D01*
X14802116Y-4455892D01*
X14836691Y-4439004D01*
X14865007Y-4424891D01*
X14946480Y-4381849D01*
X15023219Y-4337286D01*
X15089979Y-4294356D01*
X15129319Y-4265921D01*
X15153433Y-4249756D01*
X15171564Y-4242012D01*
X15176428Y-4242297D01*
X15189032Y-4239941D01*
X15199468Y-4230308D01*
X15208030Y-4218501D01*
X15203075Y-4220191D01*
X15193000Y-4227288D01*
X15190418Y-4228031D01*
X15200932Y-4217469D01*
X15222376Y-4197714D01*
X15233640Y-4187614D01*
X15360274Y-4066065D01*
X15473927Y-3939190D01*
X15510015Y-3891634D01*
X15525488Y-3891634D01*
X15527176Y-3893854D01*
X15540590Y-3883556D01*
X15566255Y-3860273D01*
X15604696Y-3823540D01*
X15656437Y-3772889D01*
X15689377Y-3740297D01*
X15888960Y-3542275D01*
X15888959Y-3541977D01*
X15899120Y-3541977D01*
X15899120Y-4071195D01*
X15899246Y-4173021D01*
X15899609Y-4268662D01*
X15900184Y-4356202D01*
X15900948Y-4433724D01*
X15901875Y-4499310D01*
X15902942Y-4551043D01*
X15904125Y-4587007D01*
X15905398Y-4605285D01*
X15905893Y-4607186D01*
X15917266Y-4608736D01*
X15946648Y-4610161D01*
X15991728Y-4611419D01*
X16050197Y-4612470D01*
X16119743Y-4613271D01*
X16198056Y-4613782D01*
X16282277Y-4613960D01*
X16651887Y-4613960D01*
X16650245Y-3703329D01*
X16648604Y-2792698D01*
X16273862Y-3167337D01*
X15899120Y-3541977D01*
X15888959Y-3541977D01*
X15888003Y-3278017D01*
X15887046Y-3013760D01*
X15867518Y-3118837D01*
X15826585Y-3288467D01*
X15767606Y-3457818D01*
X15692457Y-3622610D01*
X15603014Y-3778565D01*
X15535002Y-3877360D01*
X15525488Y-3891634D01*
X15510015Y-3891634D01*
X15571715Y-3810330D01*
X15611503Y-3749824D01*
X15630634Y-3717716D01*
X15652875Y-3678134D01*
X15676306Y-3634793D01*
X15699008Y-3591410D01*
X15719060Y-3551701D01*
X15734545Y-3519382D01*
X15743543Y-3498169D01*
X15744813Y-3491717D01*
X15735052Y-3494920D01*
X15708650Y-3505145D01*
X15667700Y-3521541D01*
X15614293Y-3543256D01*
X15550523Y-3569441D01*
X15478481Y-3599244D01*
X15400260Y-3631814D01*
X15396853Y-3633237D01*
X15052066Y-3777282D01*
X14948761Y-4025441D01*
X14918388Y-4098381D01*
X14888118Y-4171038D01*
X14859587Y-4239483D01*
X14834433Y-4299790D01*
X14814294Y-4348031D01*
X14803998Y-4372660D01*
X14787463Y-4413135D01*
X14774962Y-4445622D01*
X14767924Y-4466283D01*
X14767152Y-4471720D01*
X14713347Y-4471720D01*
X14701956Y-4466121D01*
X14664391Y-4448837D01*
X14615571Y-4427039D01*
X14558010Y-4401793D01*
X14494222Y-4374170D01*
X14426721Y-4345239D01*
X14358020Y-4316068D01*
X14290632Y-4287728D01*
X14227072Y-4261286D01*
X14169852Y-4237812D01*
X14121487Y-4218376D01*
X14084490Y-4204046D01*
X14061375Y-4195891D01*
X14055080Y-4194405D01*
X14041776Y-4198230D01*
X14013038Y-4208886D01*
X13971382Y-4225305D01*
X13919319Y-4246417D01*
X13859364Y-4271154D01*
X13794032Y-4298447D01*
X13725834Y-4327227D01*
X13657286Y-4356425D01*
X13590901Y-4384972D01*
X13529193Y-4411800D01*
X13474676Y-4435840D01*
X13429862Y-4456022D01*
X13397267Y-4471279D01*
X13379404Y-4480540D01*
X13376824Y-4482798D01*
X13392306Y-4490834D01*
X13423551Y-4502483D01*
X13466573Y-4516576D01*
X13517386Y-4531944D01*
X13572002Y-4547421D01*
X13626435Y-4561836D01*
X13676699Y-4574023D01*
X13716854Y-4582452D01*
X13756887Y-4590351D01*
X13785376Y-4596887D01*
X13799347Y-4601308D01*
X13797595Y-4602843D01*
X13766940Y-4600675D01*
X13721403Y-4593116D01*
X13665377Y-4581201D01*
X13603257Y-4565969D01*
X13539437Y-4548455D01*
X13478310Y-4529697D01*
X13456081Y-4522245D01*
X13281117Y-4451537D01*
X13113098Y-4362969D01*
X12957800Y-4259935D01*
X12943437Y-4250353D01*
X12940996Y-4251832D01*
X12920674Y-4251832D01*
X12913567Y-4244712D01*
X12831963Y-4163023D01*
X12749520Y-4080560D01*
X12221200Y-3552313D01*
X12221200Y-4613960D01*
X11493467Y-4613960D01*
X11832115Y-4611545D01*
X12205960Y-4608880D01*
X12211192Y-3542080D01*
X12211001Y-3541889D01*
X12221200Y-3541889D01*
X12416682Y-3737564D01*
X12468119Y-3788956D01*
X12514690Y-3835299D01*
X12554521Y-3874745D01*
X12585740Y-3905446D01*
X12606473Y-3925552D01*
X12614848Y-3933216D01*
X12614915Y-3933240D01*
X12610691Y-3925677D01*
X12597047Y-3905519D01*
X12576576Y-3876557D01*
X12568002Y-3864660D01*
X12463368Y-3704099D01*
X12375859Y-3535620D01*
X12358386Y-3491776D01*
X12365338Y-3491776D01*
X12367872Y-3501654D01*
X12378411Y-3525469D01*
X12395008Y-3559440D01*
X12415713Y-3599788D01*
X12438582Y-3642733D01*
X12461665Y-3684495D01*
X12483017Y-3721293D01*
X12486792Y-3727535D01*
X12586471Y-3874455D01*
X12700045Y-4012306D01*
X12824720Y-4138227D01*
X12957705Y-4249355D01*
X13074640Y-4329708D01*
X13103739Y-4346998D01*
X13141817Y-4368547D01*
X13184984Y-4392284D01*
X13229353Y-4416138D01*
X13271035Y-4438039D01*
X13306143Y-4455916D01*
X13330787Y-4467698D01*
X13340670Y-4471379D01*
X13339875Y-4462841D01*
X13332326Y-4439473D01*
X13319354Y-4405083D01*
X13306161Y-4372660D01*
X13290548Y-4335300D01*
X13268764Y-4283102D01*
X13242445Y-4219990D01*
X13213227Y-4149886D01*
X13182747Y-4076713D01*
X13161283Y-4025164D01*
X13060142Y-3782201D01*
X13083755Y-3782201D01*
X13084679Y-3794759D01*
X13089895Y-3815268D01*
X13100056Y-3845574D01*
X13115817Y-3887524D01*
X13137833Y-3942964D01*
X13166759Y-4013741D01*
X13194971Y-4081822D01*
X13226135Y-4156683D01*
X13255705Y-4227629D01*
X13282528Y-4291901D01*
X13305452Y-4346736D01*
X13323321Y-4389375D01*
X13334984Y-4417057D01*
X13337544Y-4423069D01*
X13358040Y-4470885D01*
X13452560Y-4431141D01*
X13489018Y-4415887D01*
X13540304Y-4394537D01*
X13602457Y-4368735D01*
X13671517Y-4340122D01*
X13743524Y-4310342D01*
X13788288Y-4291858D01*
X13853446Y-4264742D01*
X13911938Y-4239963D01*
X13961275Y-4218611D01*
X13998968Y-4201777D01*
X14022526Y-4190552D01*
X14029468Y-4186248D01*
X14080715Y-4186248D01*
X14089808Y-4191873D01*
X14115201Y-4203926D01*
X14154308Y-4221342D01*
X14204540Y-4243055D01*
X14263309Y-4268003D01*
X14328029Y-4295119D01*
X14396110Y-4323339D01*
X14464966Y-4351599D01*
X14532009Y-4378834D01*
X14594651Y-4403980D01*
X14650304Y-4425972D01*
X14696381Y-4443746D01*
X14730293Y-4456237D01*
X14749454Y-4462379D01*
X14752731Y-4462709D01*
X14758077Y-4452189D01*
X14770251Y-4425056D01*
X14788327Y-4383478D01*
X14811375Y-4329625D01*
X14838467Y-4265662D01*
X14868675Y-4193760D01*
X14897511Y-4124644D01*
X14929491Y-4047624D01*
X14958850Y-3976670D01*
X14984708Y-3913934D01*
X15006181Y-3861565D01*
X15022389Y-3821713D01*
X15032450Y-3796526D01*
X15035520Y-3788173D01*
X15026437Y-3791046D01*
X15000361Y-3801034D01*
X14959052Y-3817423D01*
X14904268Y-3839500D01*
X14837768Y-3866551D01*
X14761310Y-3897864D01*
X14676655Y-3932724D01*
X14585559Y-3970419D01*
X14558000Y-3981857D01*
X14465285Y-4020480D01*
X14378516Y-4056853D01*
X14299456Y-4090222D01*
X14229865Y-4119833D01*
X14171508Y-4144929D01*
X14126146Y-4164758D01*
X14095542Y-4178563D01*
X14081458Y-4185591D01*
X14080715Y-4186248D01*
X14029468Y-4186248D01*
X14029588Y-4186174D01*
X14020508Y-4181200D01*
X13994412Y-4169246D01*
X13953073Y-4151069D01*
X13898264Y-4127428D01*
X13831758Y-4099082D01*
X13755327Y-4066789D01*
X13670745Y-4031309D01*
X13579784Y-3993399D01*
X13557085Y-3983975D01*
X13465001Y-3945676D01*
X13378983Y-3909708D01*
X13300786Y-3876818D01*
X13232164Y-3847755D01*
X13174873Y-3823264D01*
X13130666Y-3804094D01*
X13101299Y-3790991D01*
X13088525Y-3784702D01*
X13088129Y-3784283D01*
X13097932Y-3787358D01*
X13124677Y-3797564D01*
X13166567Y-3814172D01*
X13221807Y-3836451D01*
X13288599Y-3863673D01*
X13365148Y-3895108D01*
X13449658Y-3930027D01*
X13540331Y-3967701D01*
X13558184Y-3975142D01*
X13650690Y-4013532D01*
X13738109Y-4049455D01*
X13818535Y-4082153D01*
X13890060Y-4110865D01*
X13950776Y-4134834D01*
X13998778Y-4153301D01*
X14032158Y-4165507D01*
X14049009Y-4170694D01*
X14050000Y-4170820D01*
X14064063Y-4167344D01*
X14094052Y-4156998D01*
X14137851Y-4140656D01*
X14193347Y-4119193D01*
X14258424Y-4093484D01*
X14330969Y-4064402D01*
X14408866Y-4032822D01*
X14490002Y-3999619D01*
X14572262Y-3965666D01*
X14653530Y-3931839D01*
X14731694Y-3899012D01*
X14804638Y-3868059D01*
X14870248Y-3839854D01*
X14926410Y-3815273D01*
X14971008Y-3795189D01*
X15001929Y-3780477D01*
X15017057Y-3772011D01*
X15018133Y-3770457D01*
X15006750Y-3764626D01*
X14979418Y-3752316D01*
X14938988Y-3734759D01*
X14888311Y-3713188D01*
X14830237Y-3688834D01*
X14806920Y-3679146D01*
X14736538Y-3649973D01*
X14662802Y-3619394D01*
X14591224Y-3589698D01*
X14527315Y-3563171D01*
X14476590Y-3542100D01*
X14475991Y-3541852D01*
X14348263Y-3488761D01*
X14207406Y-3827648D01*
X14175055Y-3905145D01*
X14145122Y-3976210D01*
X14118495Y-4038780D01*
X14096065Y-4090791D01*
X14078722Y-4130180D01*
X14067354Y-4154883D01*
X14062863Y-4162850D01*
X14065775Y-4152959D01*
X14075699Y-4126469D01*
X14091779Y-4085517D01*
X14113157Y-4032238D01*
X14138979Y-3968768D01*
X14168386Y-3897243D01*
X14197692Y-3826594D01*
X14229523Y-3749383D01*
X14258305Y-3678045D01*
X14283210Y-3614751D01*
X14303411Y-3561672D01*
X14318079Y-3520981D01*
X14326387Y-3494847D01*
X14327723Y-3485550D01*
X14318279Y-3480228D01*
X14360121Y-3480228D01*
X14360802Y-3483435D01*
X14372003Y-3488033D01*
X14399758Y-3499607D01*
X14441896Y-3517243D01*
X14496243Y-3540033D01*
X14560627Y-3567063D01*
X14632875Y-3597425D01*
X14705320Y-3627893D01*
X14782575Y-3660396D01*
X14853671Y-3690304D01*
X14916494Y-3716729D01*
X14968929Y-3738782D01*
X15008865Y-3755574D01*
X15034186Y-3766216D01*
X15042778Y-3769819D01*
X15040415Y-3761936D01*
X15032003Y-3740779D01*
X15024282Y-3722447D01*
X15015243Y-3701070D01*
X14999569Y-3663682D01*
X14978410Y-3613042D01*
X14952917Y-3551908D01*
X14924241Y-3483038D01*
X14893533Y-3409191D01*
X14881217Y-3379547D01*
X14851078Y-3307114D01*
X14823429Y-3240915D01*
X14799230Y-3183229D01*
X14779442Y-3136336D01*
X14765026Y-3102517D01*
X14756941Y-3084050D01*
X14755572Y-3081286D01*
X14745573Y-3083707D01*
X14720177Y-3092764D01*
X14682710Y-3107192D01*
X14636497Y-3125729D01*
X14611013Y-3136200D01*
X14469708Y-3194708D01*
X14410636Y-3337374D01*
X14390783Y-3386915D01*
X14374997Y-3429436D01*
X14364401Y-3461639D01*
X14360121Y-3480228D01*
X14318279Y-3480228D01*
X14315681Y-3478764D01*
X14288472Y-3465976D01*
X14249754Y-3448830D01*
X14203185Y-3428974D01*
X14187160Y-3422290D01*
X14055080Y-3367504D01*
X13923021Y-3422258D01*
X13874707Y-3442629D01*
X13833066Y-3460822D01*
X13801760Y-3475193D01*
X13784447Y-3484092D01*
X13782458Y-3485517D01*
X13784259Y-3496538D01*
X13793175Y-3524092D01*
X13808376Y-3566005D01*
X13829035Y-3620108D01*
X13854325Y-3684227D01*
X13883417Y-3756191D01*
X13912467Y-3826594D01*
X13944404Y-3903615D01*
X13973538Y-3974535D01*
X13999014Y-4037218D01*
X14019973Y-4089528D01*
X14035560Y-4129328D01*
X14044919Y-4154483D01*
X14047296Y-4162850D01*
X14042702Y-4154670D01*
X14031253Y-4129768D01*
X14013839Y-4090205D01*
X13991350Y-4038045D01*
X13964674Y-3975351D01*
X13934702Y-3904186D01*
X13902703Y-3827526D01*
X13761795Y-3488518D01*
X13720477Y-3506125D01*
X13700801Y-3514391D01*
X13665058Y-3529285D01*
X13615963Y-3549681D01*
X13556234Y-3574453D01*
X13488584Y-3602473D01*
X13415729Y-3632615D01*
X13389600Y-3643418D01*
X13317162Y-3673580D01*
X13250472Y-3701773D01*
X13191945Y-3726942D01*
X13143994Y-3748032D01*
X13109035Y-3763991D01*
X13089480Y-3773764D01*
X13086467Y-3775747D01*
X13083755Y-3782201D01*
X13060142Y-3782201D01*
X13057863Y-3776728D01*
X13029295Y-3764816D01*
X13071050Y-3764816D01*
X13072318Y-3767034D01*
X13083144Y-3762186D01*
X13110577Y-3750473D01*
X13152451Y-3732805D01*
X13206599Y-3710090D01*
X13270854Y-3683237D01*
X13343049Y-3653156D01*
X13415077Y-3623221D01*
X13492488Y-3591036D01*
X13563786Y-3561295D01*
X13626836Y-3534896D01*
X13679505Y-3512735D01*
X13719659Y-3495711D01*
X13745165Y-3484721D01*
X13753873Y-3480698D01*
X13751451Y-3470653D01*
X13742393Y-3445217D01*
X13727963Y-3407717D01*
X13709424Y-3361483D01*
X13698959Y-3336013D01*
X13648277Y-3213608D01*
X13661657Y-3213608D01*
X13661701Y-3213880D01*
X13667822Y-3235773D01*
X13679961Y-3268598D01*
X13696295Y-3308356D01*
X13715003Y-3351053D01*
X13734264Y-3392690D01*
X13752255Y-3429271D01*
X13767155Y-3456799D01*
X13777141Y-3471278D01*
X13779562Y-3472465D01*
X13793153Y-3466773D01*
X13821080Y-3455049D01*
X13858948Y-3439138D01*
X13892520Y-3425024D01*
X13936991Y-3406404D01*
X13976834Y-3389867D01*
X14006870Y-3377555D01*
X14019520Y-3372507D01*
X14026361Y-3368506D01*
X14026146Y-3363289D01*
X14016899Y-3355795D01*
X13996642Y-3344964D01*
X13963400Y-3329737D01*
X13915197Y-3309053D01*
X13851880Y-3282610D01*
X13794777Y-3258688D01*
X13745430Y-3237579D01*
X13706409Y-3220417D01*
X13680286Y-3208341D01*
X13669631Y-3202486D01*
X13669828Y-3202114D01*
X13682333Y-3205728D01*
X13710370Y-3216009D01*
X13750751Y-3231718D01*
X13800290Y-3251618D01*
X13851880Y-3272840D01*
X13906651Y-3295488D01*
X13954783Y-3315157D01*
X13993208Y-3330614D01*
X14018860Y-3340622D01*
X14028597Y-3343960D01*
X14024283Y-3337296D01*
X14008224Y-3319259D01*
X13983111Y-3292774D01*
X13958305Y-3267468D01*
X13882939Y-3191560D01*
X13892996Y-3191560D01*
X13973800Y-3272840D01*
X14005946Y-3305136D01*
X14032116Y-3331353D01*
X14049436Y-3348615D01*
X14055080Y-3354120D01*
X14061960Y-3347389D01*
X14065397Y-3343960D01*
X14081562Y-3343960D01*
X14092309Y-3340240D01*
X14118730Y-3329906D01*
X14157759Y-3314190D01*
X14206329Y-3294328D01*
X14258280Y-3272840D01*
X14313481Y-3250150D01*
X14362495Y-3230497D01*
X14402135Y-3215119D01*
X14429211Y-3205255D01*
X14440331Y-3202114D01*
X14434781Y-3205903D01*
X14413002Y-3216266D01*
X14377564Y-3232063D01*
X14331036Y-3252157D01*
X14275988Y-3275407D01*
X14258280Y-3282793D01*
X14193756Y-3309726D01*
X14146038Y-3330062D01*
X14113134Y-3344920D01*
X14093054Y-3355424D01*
X14083806Y-3362693D01*
X14083400Y-3367850D01*
X14089843Y-3372015D01*
X14095720Y-3374339D01*
X14117669Y-3383059D01*
X14152786Y-3397681D01*
X14195642Y-3415925D01*
X14227800Y-3429830D01*
X14269596Y-3447865D01*
X14304312Y-3462545D01*
X14327851Y-3472156D01*
X14335918Y-3475049D01*
X14342049Y-3466609D01*
X14354216Y-3442810D01*
X14370767Y-3407106D01*
X14390051Y-3362947D01*
X14394017Y-3353580D01*
X14413620Y-3306268D01*
X14430260Y-3264654D01*
X14442329Y-3232869D01*
X14448217Y-3215039D01*
X14448458Y-3213880D01*
X14447586Y-3206232D01*
X14439750Y-3201016D01*
X14421636Y-3197622D01*
X14389931Y-3195438D01*
X14341319Y-3193853D01*
X14339560Y-3193808D01*
X14227800Y-3190977D01*
X14151854Y-3267468D01*
X14121433Y-3298604D01*
X14097914Y-3323634D01*
X14083988Y-3339632D01*
X14081562Y-3343960D01*
X14065397Y-3343960D01*
X14080283Y-3329113D01*
X14107172Y-3302167D01*
X14136360Y-3272840D01*
X14217163Y-3191560D01*
X13892996Y-3191560D01*
X13882939Y-3191560D01*
X13882360Y-3190977D01*
X13770600Y-3193808D01*
X13721428Y-3195384D01*
X13689262Y-3197541D01*
X13670787Y-3200891D01*
X13662691Y-3206043D01*
X13661657Y-3213608D01*
X13648277Y-3213608D01*
X13640451Y-3194708D01*
X13608311Y-3181400D01*
X13653760Y-3181400D01*
X13760440Y-3181400D01*
X14239497Y-3181400D01*
X14456400Y-3181400D01*
X14456400Y-2963408D01*
X14372049Y-3047320D01*
X14338516Y-3079683D01*
X14310042Y-3105300D01*
X14289693Y-3121538D01*
X14280609Y-3125836D01*
X14277590Y-3125704D01*
X14278692Y-3127306D01*
X14276120Y-3138564D01*
X14262840Y-3156535D01*
X14261681Y-3157786D01*
X14239497Y-3181400D01*
X13760440Y-3181400D01*
X13804234Y-3181158D01*
X13839316Y-3180506D01*
X13861487Y-3179549D01*
X13867120Y-3178678D01*
X13860321Y-3170949D01*
X13841603Y-3151487D01*
X13813476Y-3122858D01*
X13778455Y-3087633D01*
X13760440Y-3069640D01*
X13653760Y-2963323D01*
X13653760Y-3181400D01*
X13608311Y-3181400D01*
X13499146Y-3136200D01*
X13449793Y-3116075D01*
X13407514Y-3099424D01*
X13375635Y-3087509D01*
X13357481Y-3081595D01*
X13354587Y-3081286D01*
X13350034Y-3091205D01*
X13338669Y-3117619D01*
X13321452Y-3158248D01*
X13299343Y-3210813D01*
X13273302Y-3273032D01*
X13244290Y-3342628D01*
X13228942Y-3379547D01*
X13197739Y-3454622D01*
X13168106Y-3525826D01*
X13141197Y-3590395D01*
X13118164Y-3645565D01*
X13100161Y-3688572D01*
X13088341Y-3716652D01*
X13085657Y-3722959D01*
X13075371Y-3749133D01*
X13071050Y-3764816D01*
X13029295Y-3764816D01*
X12713191Y-3633012D01*
X12634757Y-3600407D01*
X12562416Y-3570528D01*
X12498262Y-3544223D01*
X12444387Y-3522344D01*
X12402887Y-3505740D01*
X12375854Y-3495262D01*
X12365382Y-3491759D01*
X12365338Y-3491776D01*
X12358386Y-3491776D01*
X12306422Y-3361393D01*
X12256006Y-3183592D01*
X12242641Y-3118837D01*
X12223113Y-3013760D01*
X12222156Y-3277824D01*
X12221200Y-3541889D01*
X12211001Y-3541889D01*
X11836374Y-3167389D01*
X11461555Y-2792698D01*
X11459913Y-3703454D01*
X11458271Y-4614211D01*
X11449040Y-4614211D01*
X11449040Y-2779977D01*
X11459199Y-2779977D01*
X11832528Y-3153408D01*
X11904324Y-3225176D01*
X11971681Y-3292412D01*
X12033252Y-3353780D01*
X12087694Y-3407945D01*
X12133662Y-3453570D01*
X12169810Y-3489320D01*
X12194794Y-3513859D01*
X12207270Y-3525850D01*
X12208448Y-3526840D01*
X12208868Y-3516943D01*
X12209267Y-3488311D01*
X12209639Y-3442527D01*
X12209979Y-3381175D01*
X12210281Y-3305839D01*
X12210541Y-3218102D01*
X12210752Y-3119550D01*
X12210909Y-3011765D01*
X12211007Y-2896332D01*
X12211040Y-2777591D01*
X12211040Y-2764882D01*
X12225554Y-2764882D01*
X12227291Y-2877409D01*
X12233973Y-2984430D01*
X12245601Y-3079724D01*
X12249784Y-3103672D01*
X12262533Y-3164390D01*
X12278118Y-3228151D01*
X12295412Y-3291293D01*
X12313287Y-3350155D01*
X12330617Y-3401073D01*
X12346273Y-3440385D01*
X12359128Y-3464429D01*
X12361857Y-3467712D01*
X12373674Y-3474333D01*
X12401641Y-3487625D01*
X12443138Y-3506467D01*
X12495548Y-3529741D01*
X12556252Y-3556325D01*
X12622633Y-3585100D01*
X12692070Y-3614946D01*
X12761947Y-3644744D01*
X12829646Y-3673372D01*
X12892547Y-3699713D01*
X12948032Y-3722645D01*
X12993484Y-3741048D01*
X13026284Y-3753804D01*
X13043814Y-3759791D01*
X13045455Y-3760097D01*
X13056481Y-3753593D01*
X13061732Y-3747820D01*
X13068415Y-3735001D01*
X13081521Y-3706317D01*
X13099766Y-3664705D01*
X13121870Y-3613103D01*
X13146551Y-3554448D01*
X13155925Y-3531920D01*
X13185131Y-3461525D01*
X13215747Y-3387758D01*
X13245481Y-3316133D01*
X13272044Y-3252168D01*
X13293146Y-3201380D01*
X13293391Y-3200789D01*
X13346565Y-3072859D01*
X13332075Y-3066850D01*
X13363197Y-3066850D01*
X13363302Y-3067048D01*
X13375610Y-3073974D01*
X13402119Y-3086008D01*
X13438667Y-3101503D01*
X13481093Y-3118809D01*
X13525236Y-3136277D01*
X13566936Y-3152259D01*
X13602031Y-3165107D01*
X13626361Y-3173170D01*
X13635636Y-3174962D01*
X13638890Y-3163392D01*
X13641501Y-3135914D01*
X13643162Y-3096935D01*
X13643600Y-3061166D01*
X13643600Y-2952291D01*
X13567400Y-2876600D01*
X13536332Y-2846233D01*
X13511373Y-2822779D01*
X13495455Y-2808931D01*
X13491200Y-2806562D01*
X13494919Y-2817309D01*
X13505253Y-2843730D01*
X13520969Y-2882759D01*
X13540831Y-2931329D01*
X13562320Y-2983280D01*
X13585009Y-3038481D01*
X13604662Y-3087495D01*
X13620040Y-3127135D01*
X13629904Y-3154211D01*
X13633045Y-3165331D01*
X13629262Y-3159779D01*
X13618916Y-3137994D01*
X13603145Y-3102547D01*
X13583086Y-3056007D01*
X13559875Y-3000948D01*
X13552520Y-2983280D01*
X13524375Y-2916342D01*
X13502655Y-2866847D01*
X13486570Y-2833240D01*
X13475330Y-2813966D01*
X13468146Y-2807472D01*
X13464741Y-2810560D01*
X13457948Y-2827535D01*
X13445085Y-2858794D01*
X13427987Y-2899899D01*
X13408492Y-2946415D01*
X13408242Y-2947008D01*
X13389931Y-2991537D01*
X13375397Y-3028821D01*
X13366024Y-3055159D01*
X13363197Y-3066850D01*
X13332075Y-3066850D01*
X13007534Y-2932265D01*
X12930007Y-2899976D01*
X12858914Y-2870099D01*
X12796318Y-2843523D01*
X12744285Y-2821135D01*
X12704877Y-2803823D01*
X12680159Y-2792475D01*
X12672183Y-2787989D01*
X12682076Y-2790894D01*
X12708575Y-2800797D01*
X12749542Y-2816843D01*
X12802842Y-2838178D01*
X12866338Y-2863946D01*
X12937894Y-2893294D01*
X13008675Y-2922583D01*
X13085921Y-2954357D01*
X13157283Y-2983097D01*
X13220593Y-3007975D01*
X13273678Y-3028166D01*
X13314369Y-3042842D01*
X13340495Y-3051175D01*
X13349783Y-3052549D01*
X13356504Y-3040573D01*
X13369236Y-3013425D01*
X13386339Y-2974757D01*
X13406171Y-2928219D01*
X13412869Y-2912160D01*
X13467655Y-2780080D01*
X13467463Y-2779616D01*
X13481026Y-2779616D01*
X13559534Y-2858588D01*
X13591430Y-2890433D01*
X13617622Y-2916133D01*
X13635093Y-2932755D01*
X13640821Y-2937560D01*
X13641767Y-2927971D01*
X13642111Y-2916684D01*
X13654475Y-2916684D01*
X13661354Y-2952501D01*
X13681060Y-2980184D01*
X13702831Y-3001497D01*
X13712318Y-3007355D01*
X13709223Y-2997725D01*
X13699783Y-2982316D01*
X13684274Y-2954226D01*
X13669824Y-2921415D01*
X13668850Y-2918816D01*
X13655191Y-2881680D01*
X13654475Y-2916684D01*
X13642111Y-2916684D01*
X13642574Y-2901493D01*
X13643184Y-2861555D01*
X13643536Y-2811587D01*
X13643600Y-2777778D01*
X13643600Y-2756479D01*
X13655436Y-2756479D01*
X13659623Y-2839960D01*
X13681089Y-2920321D01*
X13718393Y-2994739D01*
X13770092Y-3060388D01*
X13834744Y-3114445D01*
X13910909Y-3154085D01*
X13916798Y-3156307D01*
X13935905Y-3164768D01*
X13940122Y-3169908D01*
X13937213Y-3170524D01*
X13919535Y-3166390D01*
X13891607Y-3155006D01*
X13871173Y-3144926D01*
X13821400Y-3118613D01*
X13850024Y-3148736D01*
X13878648Y-3178860D01*
X14055186Y-3178860D01*
X14119037Y-3178763D01*
X14165756Y-3178218D01*
X14198529Y-3176837D01*
X14220545Y-3174234D01*
X14234990Y-3170023D01*
X14245052Y-3163819D01*
X14253918Y-3155234D01*
X14254393Y-3154730D01*
X14269014Y-3138138D01*
X14270626Y-3132064D01*
X14257649Y-3136281D01*
X14228501Y-3150562D01*
X14227800Y-3150920D01*
X14199716Y-3163356D01*
X14177253Y-3170096D01*
X14172311Y-3170524D01*
X14170523Y-3167195D01*
X14184702Y-3159699D01*
X14193361Y-3156307D01*
X14272173Y-3116802D01*
X14339407Y-3061356D01*
X14376326Y-3013760D01*
X14391533Y-3013760D01*
X14423966Y-2983919D01*
X14446543Y-2958213D01*
X14448497Y-2952291D01*
X14466560Y-2952291D01*
X14466560Y-3060072D01*
X14467104Y-3104911D01*
X14468576Y-3141849D01*
X14470733Y-3166387D01*
X14472684Y-3173978D01*
X14476107Y-3176348D01*
X14482021Y-3176608D01*
X14493189Y-3173774D01*
X14512371Y-3166861D01*
X14542330Y-3154885D01*
X14585828Y-3136861D01*
X14637334Y-3115284D01*
X14684425Y-3094487D01*
X14720209Y-3076574D01*
X14742017Y-3062990D01*
X14747488Y-3055657D01*
X14741786Y-3042040D01*
X14730053Y-3014090D01*
X14714135Y-2976206D01*
X14700024Y-2942640D01*
X14681404Y-2898168D01*
X14664867Y-2858325D01*
X14652555Y-2828289D01*
X14647507Y-2815640D01*
X14643506Y-2808798D01*
X14638289Y-2809013D01*
X14630795Y-2818260D01*
X14619964Y-2838517D01*
X14604737Y-2871759D01*
X14584053Y-2919962D01*
X14557610Y-2983280D01*
X14533688Y-3040382D01*
X14512579Y-3089729D01*
X14495417Y-3128750D01*
X14483341Y-3154873D01*
X14477486Y-3165528D01*
X14477114Y-3165331D01*
X14480728Y-3152826D01*
X14491009Y-3124789D01*
X14506718Y-3084408D01*
X14526618Y-3034869D01*
X14547840Y-2983280D01*
X14570488Y-2928508D01*
X14590157Y-2880376D01*
X14605614Y-2841951D01*
X14615622Y-2816299D01*
X14618960Y-2806562D01*
X14612299Y-2810873D01*
X14594272Y-2826928D01*
X14567811Y-2852031D01*
X14542760Y-2876600D01*
X14466560Y-2952291D01*
X14448497Y-2952291D01*
X14455173Y-2932061D01*
X14455684Y-2917879D01*
X14454968Y-2881680D01*
X14441309Y-2918816D01*
X14426926Y-2952348D01*
X14410589Y-2983239D01*
X14409592Y-2984856D01*
X14391533Y-3013760D01*
X14376326Y-3013760D01*
X14393382Y-2991773D01*
X14432423Y-2909857D01*
X14437880Y-2893474D01*
X14454060Y-2809021D01*
X14453024Y-2777778D01*
X14466560Y-2777778D01*
X14466726Y-2832166D01*
X14467187Y-2878608D01*
X14467881Y-2913674D01*
X14468750Y-2933936D01*
X14469338Y-2937560D01*
X14477164Y-2930814D01*
X14496242Y-2912533D01*
X14523555Y-2885647D01*
X14550625Y-2858588D01*
X14628671Y-2780080D01*
X14642504Y-2780080D01*
X14697258Y-2912138D01*
X14717629Y-2960452D01*
X14735822Y-3002093D01*
X14750193Y-3033399D01*
X14759092Y-3050712D01*
X14760517Y-3052701D01*
X14771538Y-3050900D01*
X14799092Y-3041984D01*
X14841005Y-3026783D01*
X14895108Y-3006124D01*
X14959227Y-2980834D01*
X15031191Y-2951742D01*
X15101594Y-2922692D01*
X15178615Y-2890755D01*
X15249535Y-2861621D01*
X15312218Y-2836145D01*
X15364528Y-2815186D01*
X15404328Y-2799599D01*
X15429483Y-2790240D01*
X15437850Y-2787863D01*
X15429671Y-2792457D01*
X15404769Y-2803906D01*
X15365207Y-2821319D01*
X15313050Y-2843808D01*
X15250359Y-2870482D01*
X15179200Y-2900451D01*
X15102648Y-2932406D01*
X14763761Y-3073263D01*
X14816852Y-3200991D01*
X14837831Y-3251485D01*
X14864306Y-3315238D01*
X14893989Y-3386739D01*
X14924593Y-3460476D01*
X14953828Y-3530940D01*
X14954234Y-3531920D01*
X14984681Y-3604918D01*
X15008557Y-3661080D01*
X15026830Y-3702440D01*
X15040468Y-3731029D01*
X15050440Y-3748883D01*
X15057713Y-3758034D01*
X15063068Y-3760520D01*
X15073221Y-3756756D01*
X15099977Y-3746054D01*
X15141187Y-3729295D01*
X15194699Y-3707360D01*
X15258362Y-3681130D01*
X15330026Y-3651487D01*
X15399644Y-3622595D01*
X15477417Y-3589993D01*
X15549661Y-3559179D01*
X15614112Y-3531160D01*
X15668505Y-3506943D01*
X15710574Y-3487534D01*
X15738053Y-3473939D01*
X15748302Y-3467655D01*
X15760269Y-3448159D01*
X15775313Y-3412452D01*
X15792307Y-3364202D01*
X15810122Y-3307077D01*
X15827631Y-3244746D01*
X15843706Y-3180879D01*
X15857218Y-3119142D01*
X15860214Y-3103672D01*
X15873263Y-3012103D01*
X15881353Y-2907120D01*
X15884484Y-2795017D01*
X15884203Y-2777591D01*
X15899120Y-2777591D01*
X15899154Y-2898971D01*
X15899253Y-3014251D01*
X15899411Y-3121848D01*
X15899623Y-3220177D01*
X15899884Y-3307655D01*
X15900187Y-3382698D01*
X15900528Y-3443721D01*
X15900901Y-3489141D01*
X15901300Y-3517373D01*
X15901711Y-3526840D01*
X15909175Y-3519871D01*
X15929650Y-3499858D01*
X15961790Y-3468134D01*
X16004252Y-3426037D01*
X16055689Y-3374902D01*
X16114758Y-3316065D01*
X16180114Y-3250862D01*
X16250411Y-3180629D01*
X16277631Y-3153408D01*
X16650960Y-2779977D01*
X16275040Y-2404160D01*
X15899120Y-2028342D01*
X15899120Y-2777591D01*
X15884203Y-2777591D01*
X15882657Y-2682087D01*
X15875871Y-2574622D01*
X15864126Y-2478915D01*
X15860214Y-2456487D01*
X15850374Y-2409479D01*
X15837448Y-2355511D01*
X15822548Y-2298439D01*
X15806788Y-2242117D01*
X15791282Y-2190402D01*
X15777143Y-2147147D01*
X15765483Y-2116209D01*
X15757798Y-2101824D01*
X15752766Y-2109354D01*
X15741080Y-2133166D01*
X15723808Y-2170746D01*
X15702020Y-2219579D01*
X15676783Y-2277152D01*
X15649168Y-2340952D01*
X15620243Y-2408464D01*
X15591077Y-2477174D01*
X15562739Y-2544570D01*
X15536297Y-2608137D01*
X15512822Y-2665362D01*
X15493381Y-2713731D01*
X15479043Y-2750729D01*
X15470878Y-2773844D01*
X15469385Y-2780080D01*
X15473139Y-2791508D01*
X15483874Y-2819485D01*
X15500709Y-2861825D01*
X15522757Y-2916340D01*
X15549136Y-2980845D01*
X15578962Y-3053152D01*
X15608476Y-3124182D01*
X15640512Y-3201361D01*
X15669747Y-3272443D01*
X15695324Y-3335296D01*
X15716388Y-3387791D01*
X15732084Y-3427795D01*
X15741556Y-3453179D01*
X15744030Y-3461796D01*
X15739442Y-3453625D01*
X15728039Y-3428749D01*
X15710718Y-3389261D01*
X15688381Y-3337253D01*
X15661926Y-3274820D01*
X15632253Y-3204053D01*
X15603839Y-3135688D01*
X15571947Y-3059050D01*
X15542353Y-2988705D01*
X15515978Y-2926781D01*
X15493742Y-2875403D01*
X15476562Y-2836699D01*
X15465360Y-2812797D01*
X15461174Y-2805695D01*
X15456201Y-2814750D01*
X15444246Y-2840823D01*
X15426070Y-2882139D01*
X15402430Y-2936927D01*
X15374085Y-3003415D01*
X15341794Y-3079831D01*
X15306315Y-3164402D01*
X15268407Y-3255357D01*
X15258975Y-3278074D01*
X15220676Y-3370158D01*
X15184708Y-3456176D01*
X15151818Y-3534373D01*
X15122755Y-3602995D01*
X15098264Y-3660286D01*
X15079094Y-3704493D01*
X15065991Y-3733860D01*
X15059702Y-3746634D01*
X15059283Y-3747030D01*
X15062358Y-3737227D01*
X15072564Y-3710482D01*
X15089172Y-3668592D01*
X15111451Y-3613352D01*
X15138673Y-3546560D01*
X15170108Y-3470011D01*
X15205027Y-3385501D01*
X15242701Y-3294828D01*
X15250142Y-3276975D01*
X15288532Y-3184469D01*
X15324455Y-3097050D01*
X15357153Y-3016624D01*
X15385865Y-2945099D01*
X15409834Y-2884383D01*
X15428301Y-2836381D01*
X15440507Y-2803001D01*
X15445694Y-2786150D01*
X15445820Y-2785160D01*
X15442344Y-2771080D01*
X15431996Y-2741076D01*
X15415652Y-2697263D01*
X15394185Y-2641756D01*
X15368471Y-2576669D01*
X15339383Y-2504116D01*
X15307797Y-2426213D01*
X15274588Y-2345073D01*
X15240629Y-2262812D01*
X15206795Y-2181544D01*
X15173961Y-2103383D01*
X15143002Y-2030445D01*
X15114792Y-1964843D01*
X15090207Y-1908693D01*
X15070119Y-1864108D01*
X15055405Y-1833204D01*
X15046938Y-1818095D01*
X15045387Y-1817026D01*
X15039854Y-1828089D01*
X15027607Y-1855599D01*
X15009648Y-1897203D01*
X14986981Y-1950551D01*
X14960608Y-2013290D01*
X14931532Y-2083070D01*
X14918471Y-2114600D01*
X14887842Y-2188628D01*
X14858942Y-2258400D01*
X14832900Y-2321198D01*
X14810842Y-2374309D01*
X14793895Y-2415017D01*
X14783186Y-2440606D01*
X14781125Y-2445477D01*
X14763518Y-2486795D01*
X15102526Y-2627703D01*
X15180038Y-2660059D01*
X15251118Y-2689999D01*
X15313703Y-2716631D01*
X15365731Y-2739068D01*
X15405138Y-2756419D01*
X15429862Y-2767795D01*
X15437850Y-2772296D01*
X15427959Y-2769384D01*
X15401469Y-2759460D01*
X15360517Y-2743380D01*
X15307238Y-2722002D01*
X15243768Y-2696180D01*
X15172243Y-2666773D01*
X15101594Y-2637467D01*
X15024383Y-2605636D01*
X14953045Y-2576854D01*
X14889751Y-2551949D01*
X14836672Y-2531748D01*
X14795981Y-2517080D01*
X14769847Y-2508772D01*
X14760550Y-2507436D01*
X14753764Y-2519478D01*
X14740976Y-2546687D01*
X14723830Y-2585405D01*
X14703974Y-2631974D01*
X14697290Y-2648000D01*
X14642504Y-2780080D01*
X14628671Y-2780080D01*
X14629133Y-2779616D01*
X14547846Y-2698806D01*
X14466560Y-2617996D01*
X14466560Y-2777778D01*
X14453024Y-2777778D01*
X14451256Y-2724463D01*
X14430574Y-2642749D01*
X14393121Y-2566827D01*
X14376970Y-2546400D01*
X14393989Y-2546400D01*
X14420114Y-2596173D01*
X14435054Y-2626919D01*
X14445257Y-2652217D01*
X14447865Y-2662213D01*
X14449895Y-2664541D01*
X14452900Y-2649991D01*
X14453707Y-2643877D01*
X14453497Y-2617910D01*
X14442798Y-2596270D01*
X14425956Y-2577837D01*
X14393989Y-2546400D01*
X14376970Y-2546400D01*
X14340001Y-2499647D01*
X14272321Y-2444155D01*
X14268440Y-2441655D01*
X14190588Y-2403250D01*
X14109601Y-2383382D01*
X14028009Y-2381071D01*
X13948345Y-2395341D01*
X13873141Y-2425214D01*
X13804930Y-2469712D01*
X13746243Y-2527858D01*
X13699613Y-2598675D01*
X13669968Y-2672704D01*
X13655436Y-2756479D01*
X13643600Y-2756479D01*
X13643600Y-2642280D01*
X13654475Y-2642280D01*
X13655191Y-2678480D01*
X13668850Y-2641343D01*
X13683233Y-2607811D01*
X13699570Y-2576920D01*
X13700567Y-2575303D01*
X13718626Y-2546400D01*
X13686193Y-2576240D01*
X13663616Y-2601946D01*
X13654986Y-2628098D01*
X13654475Y-2642280D01*
X13643600Y-2642280D01*
X13643600Y-2617996D01*
X13481026Y-2779616D01*
X13467463Y-2779616D01*
X13412901Y-2648021D01*
X13392546Y-2599727D01*
X13374387Y-2558124D01*
X13360066Y-2526866D01*
X13351224Y-2509607D01*
X13349816Y-2507632D01*
X13338833Y-2509466D01*
X13311308Y-2518396D01*
X13269414Y-2533595D01*
X13215320Y-2554236D01*
X13151197Y-2579491D01*
X13079216Y-2608535D01*
X13008675Y-2637576D01*
X12931611Y-2669453D01*
X12860651Y-2698532D01*
X12797931Y-2723961D01*
X12745587Y-2744883D01*
X12705756Y-2760444D01*
X12680574Y-2769791D01*
X12672183Y-2772170D01*
X12680367Y-2767584D01*
X12705279Y-2756157D01*
X12744856Y-2738777D01*
X12797035Y-2716330D01*
X12859752Y-2689706D01*
X12930943Y-2659792D01*
X13007658Y-2627843D01*
X13321215Y-2497812D01*
X13368443Y-2497812D01*
X13372005Y-2517686D01*
X13383138Y-2550809D01*
X13402495Y-2599402D01*
X13408176Y-2612996D01*
X13427700Y-2659580D01*
X13444846Y-2700808D01*
X13457780Y-2732248D01*
X13464668Y-2749470D01*
X13464717Y-2749600D01*
X13469209Y-2752489D01*
X13477090Y-2743766D01*
X13489163Y-2721858D01*
X13506230Y-2685192D01*
X13529093Y-2632193D01*
X13549141Y-2584137D01*
X13572350Y-2526994D01*
X13592129Y-2476356D01*
X13607397Y-2435159D01*
X13617072Y-2406335D01*
X13620073Y-2392821D01*
X13619864Y-2392277D01*
X13609252Y-2393998D01*
X13584252Y-2402006D01*
X13549168Y-2414625D01*
X13508306Y-2430175D01*
X13465971Y-2446979D01*
X13426467Y-2463359D01*
X13394101Y-2477638D01*
X13373176Y-2488136D01*
X13371801Y-2488961D01*
X13368443Y-2497812D01*
X13321215Y-2497812D01*
X13346813Y-2487197D01*
X13329120Y-2445678D01*
X13320831Y-2425950D01*
X13305911Y-2390158D01*
X13285488Y-2341021D01*
X13260691Y-2281255D01*
X13232648Y-2213579D01*
X13202487Y-2140709D01*
X13191688Y-2114600D01*
X13161760Y-2042519D01*
X13134104Y-1976469D01*
X13109723Y-1918802D01*
X13089620Y-1871869D01*
X13074798Y-1838021D01*
X13066260Y-1819609D01*
X13064772Y-1817026D01*
X13059453Y-1824209D01*
X13047486Y-1848154D01*
X13029747Y-1886747D01*
X13007109Y-1937872D01*
X12980448Y-1999415D01*
X12950637Y-2069261D01*
X12918552Y-2145297D01*
X12885067Y-2225407D01*
X12851057Y-2307476D01*
X12817396Y-2389391D01*
X12784959Y-2469036D01*
X12754621Y-2544298D01*
X12727256Y-2613060D01*
X12703739Y-2673210D01*
X12684944Y-2722631D01*
X12671746Y-2759211D01*
X12665020Y-2780833D01*
X12664339Y-2785160D01*
X12668398Y-2799345D01*
X12679592Y-2830349D01*
X12697161Y-2876262D01*
X12720347Y-2935179D01*
X12748391Y-3005192D01*
X12780534Y-3084394D01*
X12816018Y-3170878D01*
X12854084Y-3262738D01*
X12860017Y-3276975D01*
X12898133Y-3368620D01*
X12933634Y-3454445D01*
X12965790Y-3532651D01*
X12993873Y-3601444D01*
X13017151Y-3659027D01*
X13034897Y-3703603D01*
X13046381Y-3733376D01*
X13050874Y-3746551D01*
X13050876Y-3747030D01*
X13046399Y-3738657D01*
X13034921Y-3713255D01*
X13017191Y-3672576D01*
X12993954Y-3618376D01*
X12965959Y-3552410D01*
X12933951Y-3476431D01*
X12898679Y-3392195D01*
X12860890Y-3301456D01*
X12851184Y-3278074D01*
X12812802Y-3185844D01*
X12776667Y-3099569D01*
X12743537Y-3021022D01*
X12714170Y-2951975D01*
X12689325Y-2894200D01*
X12669760Y-2849469D01*
X12656234Y-2819554D01*
X12649506Y-2806228D01*
X12648985Y-2805695D01*
X12643811Y-2814793D01*
X12631850Y-2840566D01*
X12614022Y-2880887D01*
X12591245Y-2933629D01*
X12564439Y-2996666D01*
X12534525Y-3067870D01*
X12506320Y-3135688D01*
X12474539Y-3212116D01*
X12445174Y-3282075D01*
X12419125Y-3343473D01*
X12397291Y-3394216D01*
X12380572Y-3432211D01*
X12369868Y-3455366D01*
X12366129Y-3461796D01*
X12369050Y-3451911D01*
X12378989Y-3425425D01*
X12395093Y-3384468D01*
X12416504Y-3331172D01*
X12442367Y-3267667D01*
X12471828Y-3196085D01*
X12501683Y-3124182D01*
X12533885Y-3046658D01*
X12563448Y-2974938D01*
X12589488Y-2911209D01*
X12611122Y-2857659D01*
X12627464Y-2816472D01*
X12637632Y-2789837D01*
X12640774Y-2780080D01*
X12636940Y-2766760D01*
X12626275Y-2738009D01*
X12609849Y-2696342D01*
X12588730Y-2644271D01*
X12563988Y-2584310D01*
X12536691Y-2518973D01*
X12507908Y-2450774D01*
X12478708Y-2382227D01*
X12450160Y-2315845D01*
X12423333Y-2254142D01*
X12399296Y-2199632D01*
X12379117Y-2154828D01*
X12363866Y-2122245D01*
X12354612Y-2104395D01*
X12352361Y-2101824D01*
X12344026Y-2117736D01*
X12332173Y-2149576D01*
X12317914Y-2193488D01*
X12302363Y-2245615D01*
X12286632Y-2302100D01*
X12271836Y-2359086D01*
X12259086Y-2412717D01*
X12249989Y-2456487D01*
X12236905Y-2548199D01*
X12228759Y-2653071D01*
X12225554Y-2764882D01*
X12211040Y-2764882D01*
X12211040Y-2028342D01*
X11835119Y-2404160D01*
X11459199Y-2779977D01*
X11449040Y-2779977D01*
X11449040Y-945948D01*
X11458271Y-945948D01*
X11459913Y-1856705D01*
X11461555Y-2767461D01*
X11836374Y-2392770D01*
X12211192Y-2018080D01*
X12211191Y-2017868D01*
X12221200Y-2017868D01*
X12222156Y-2282134D01*
X12223113Y-2546400D01*
X12242547Y-2441854D01*
X12254479Y-2385694D01*
X12270622Y-2320420D01*
X12288411Y-2256074D01*
X12298382Y-2223414D01*
X12338795Y-2112824D01*
X12349830Y-2087899D01*
X12369453Y-2087899D01*
X12373642Y-2100410D01*
X12384567Y-2128615D01*
X12401149Y-2169936D01*
X12422306Y-2221797D01*
X12446960Y-2281621D01*
X12474028Y-2346830D01*
X12502433Y-2414849D01*
X12531092Y-2483099D01*
X12558926Y-2549005D01*
X12584855Y-2609989D01*
X12607798Y-2663475D01*
X12626675Y-2706885D01*
X12640407Y-2737643D01*
X12647912Y-2753173D01*
X12648911Y-2754545D01*
X12653869Y-2745473D01*
X12665820Y-2719379D01*
X12684009Y-2678026D01*
X12707681Y-2623177D01*
X12736083Y-2556595D01*
X12768459Y-2480042D01*
X12804054Y-2395282D01*
X12842113Y-2304077D01*
X12853302Y-2277160D01*
X12891651Y-2184543D01*
X12927316Y-2097864D01*
X12959592Y-2018879D01*
X12987771Y-1949344D01*
X13011146Y-1891016D01*
X13029011Y-1845650D01*
X13040659Y-1815002D01*
X13045381Y-1800829D01*
X13045350Y-1800052D01*
X13032774Y-1804101D01*
X13004541Y-1815011D01*
X12963197Y-1831698D01*
X12911292Y-1853076D01*
X12851372Y-1878061D01*
X12785985Y-1905568D01*
X12717678Y-1934512D01*
X12648999Y-1963808D01*
X12582496Y-1992370D01*
X12520715Y-2019115D01*
X12466205Y-2042958D01*
X12421512Y-2062812D01*
X12389185Y-2077594D01*
X12371771Y-2086218D01*
X12369453Y-2087899D01*
X12349830Y-2087899D01*
X12356660Y-2072475D01*
X12363787Y-2072475D01*
X12462673Y-2031053D01*
X12500001Y-2015455D01*
X12552174Y-1993707D01*
X12615266Y-1967443D01*
X12685354Y-1938296D01*
X12758512Y-1907900D01*
X12809855Y-1886584D01*
X13036461Y-1792538D01*
X13065596Y-1792538D01*
X13067067Y-1795607D01*
X13072165Y-1806840D01*
X13084115Y-1834667D01*
X13102001Y-1876907D01*
X13124904Y-1931378D01*
X13151908Y-1995898D01*
X13182094Y-2068286D01*
X13211938Y-2140077D01*
X13244129Y-2217497D01*
X13273884Y-2288812D01*
X13300304Y-2351884D01*
X13322491Y-2404579D01*
X13339546Y-2444763D01*
X13350569Y-2470300D01*
X13354624Y-2479037D01*
X13364743Y-2476704D01*
X13390036Y-2467700D01*
X13426999Y-2453353D01*
X13472126Y-2434994D01*
X13486076Y-2429177D01*
X13542756Y-2406168D01*
X13583208Y-2391611D01*
X13609398Y-2384906D01*
X13623292Y-2385453D01*
X13625167Y-2386743D01*
X13627077Y-2397123D01*
X13622403Y-2419348D01*
X13610596Y-2455105D01*
X13591109Y-2506081D01*
X13567697Y-2563602D01*
X13545060Y-2618362D01*
X13524948Y-2667261D01*
X13508736Y-2706932D01*
X13497802Y-2734009D01*
X13493716Y-2744520D01*
X13498153Y-2744206D01*
X13514258Y-2731700D01*
X13539381Y-2709230D01*
X13565993Y-2683814D01*
X13643600Y-2607868D01*
X13643600Y-2498993D01*
X13642536Y-2445103D01*
X13639473Y-2406788D01*
X13634601Y-2386024D01*
X13632355Y-2383169D01*
X13630013Y-2378760D01*
X13653760Y-2378760D01*
X13653760Y-2596836D01*
X13760440Y-2490520D01*
X13797820Y-2453093D01*
X13807177Y-2443626D01*
X13821400Y-2443626D01*
X13850303Y-2425567D01*
X13880442Y-2409371D01*
X13914291Y-2394615D01*
X13916343Y-2393850D01*
X13953480Y-2380191D01*
X14156680Y-2380191D01*
X14194904Y-2394227D01*
X14226146Y-2407616D01*
X14252744Y-2422086D01*
X14255585Y-2423991D01*
X14276308Y-2437224D01*
X14281681Y-2437142D01*
X14271705Y-2423744D01*
X14258280Y-2409240D01*
X14231041Y-2387174D01*
X14201913Y-2379605D01*
X14192879Y-2379475D01*
X14156680Y-2380191D01*
X13953480Y-2380191D01*
X13917280Y-2379475D01*
X13887981Y-2383316D01*
X13863210Y-2399143D01*
X13851240Y-2411193D01*
X13821400Y-2443626D01*
X13807177Y-2443626D01*
X13829480Y-2421063D01*
X13852907Y-2396998D01*
X13865587Y-2383468D01*
X13867120Y-2381481D01*
X13857659Y-2380364D01*
X13832077Y-2379469D01*
X13794570Y-2378903D01*
X13760440Y-2378760D01*
X14238323Y-2378760D01*
X14344640Y-2485440D01*
X14382066Y-2522820D01*
X14414096Y-2554480D01*
X14438161Y-2577907D01*
X14451691Y-2590587D01*
X14453678Y-2592120D01*
X14454795Y-2582659D01*
X14455690Y-2557077D01*
X14456256Y-2519570D01*
X14456400Y-2485440D01*
X14456400Y-2378760D01*
X14238323Y-2378760D01*
X13760440Y-2378760D01*
X13653760Y-2378760D01*
X13630013Y-2378760D01*
X13627274Y-2373604D01*
X13631051Y-2369870D01*
X13636933Y-2360636D01*
X13660197Y-2360636D01*
X13671767Y-2363890D01*
X13699245Y-2366501D01*
X13738224Y-2368162D01*
X13773993Y-2368600D01*
X13882868Y-2368600D01*
X13892996Y-2368600D01*
X14052778Y-2368600D01*
X14107166Y-2368433D01*
X14153608Y-2367972D01*
X14188674Y-2367278D01*
X14208936Y-2366409D01*
X14212560Y-2365821D01*
X14205814Y-2357995D01*
X14187533Y-2338917D01*
X14160647Y-2311604D01*
X14133588Y-2284534D01*
X14064851Y-2216200D01*
X14081562Y-2216200D01*
X14085873Y-2222860D01*
X14101928Y-2240887D01*
X14127031Y-2267348D01*
X14151600Y-2292400D01*
X14227291Y-2368600D01*
X14336166Y-2368600D01*
X14381081Y-2367900D01*
X14417955Y-2366008D01*
X14442380Y-2363232D01*
X14449962Y-2360636D01*
X14447677Y-2349701D01*
X14439110Y-2324218D01*
X14425909Y-2288349D01*
X14409723Y-2246254D01*
X14392201Y-2202095D01*
X14374992Y-2160032D01*
X14359744Y-2124226D01*
X14348107Y-2098839D01*
X14342048Y-2088302D01*
X14331756Y-2090515D01*
X14306506Y-2099391D01*
X14270000Y-2113546D01*
X14225937Y-2131592D01*
X14222008Y-2133242D01*
X14175453Y-2152755D01*
X14134253Y-2169894D01*
X14102845Y-2182822D01*
X14085665Y-2189701D01*
X14085560Y-2189741D01*
X14082779Y-2194201D01*
X14091511Y-2202073D01*
X14113308Y-2214146D01*
X14149726Y-2231209D01*
X14202318Y-2254054D01*
X14258280Y-2277520D01*
X14315380Y-2301449D01*
X14364727Y-2322567D01*
X14403747Y-2339734D01*
X14429871Y-2351815D01*
X14440527Y-2357672D01*
X14440331Y-2358045D01*
X14427826Y-2354431D01*
X14399789Y-2344150D01*
X14359408Y-2328441D01*
X14309869Y-2308541D01*
X14258280Y-2287320D01*
X14203508Y-2264671D01*
X14155376Y-2245002D01*
X14116951Y-2229545D01*
X14091299Y-2219537D01*
X14081562Y-2216200D01*
X14064851Y-2216200D01*
X14054616Y-2206026D01*
X13892996Y-2368600D01*
X13882868Y-2368600D01*
X13958560Y-2292400D01*
X13988926Y-2261332D01*
X14012380Y-2236373D01*
X14026228Y-2220455D01*
X14028597Y-2216200D01*
X14017850Y-2219919D01*
X13991429Y-2230253D01*
X13952400Y-2245969D01*
X13903830Y-2265831D01*
X13851880Y-2287320D01*
X13796678Y-2310009D01*
X13747664Y-2329662D01*
X13708024Y-2345040D01*
X13680948Y-2354904D01*
X13669828Y-2358045D01*
X13675380Y-2354262D01*
X13697165Y-2343916D01*
X13732612Y-2328145D01*
X13779152Y-2308086D01*
X13834211Y-2284875D01*
X13851880Y-2277520D01*
X13918817Y-2249375D01*
X13968312Y-2227655D01*
X14001919Y-2211570D01*
X14021193Y-2200330D01*
X14027687Y-2193146D01*
X14024600Y-2189741D01*
X14007624Y-2182948D01*
X13976365Y-2170085D01*
X13935260Y-2152987D01*
X13888744Y-2133492D01*
X13888151Y-2133242D01*
X13843622Y-2114931D01*
X13806338Y-2100397D01*
X13780000Y-2091024D01*
X13768309Y-2088197D01*
X13768111Y-2088302D01*
X13761185Y-2100610D01*
X13749151Y-2127119D01*
X13733656Y-2163667D01*
X13716350Y-2206093D01*
X13698882Y-2250236D01*
X13682900Y-2291936D01*
X13670052Y-2327031D01*
X13661989Y-2351361D01*
X13660197Y-2360636D01*
X13636933Y-2360636D01*
X13637937Y-2359061D01*
X13650399Y-2333783D01*
X13666773Y-2297964D01*
X13685396Y-2255531D01*
X13704606Y-2210413D01*
X13722739Y-2166537D01*
X13738132Y-2127831D01*
X13749124Y-2098224D01*
X13754050Y-2081643D01*
X13753958Y-2079546D01*
X13744051Y-2074986D01*
X13717501Y-2063555D01*
X13676445Y-2046151D01*
X13623015Y-2023671D01*
X13559347Y-1997014D01*
X13487574Y-1967078D01*
X13415077Y-1936938D01*
X13337370Y-1904631D01*
X13265521Y-1874661D01*
X13201710Y-1847946D01*
X13148121Y-1825403D01*
X13106933Y-1807950D01*
X13080330Y-1796505D01*
X13070607Y-1792067D01*
X13065596Y-1792538D01*
X13036461Y-1792538D01*
X13058150Y-1783537D01*
X13061689Y-1775049D01*
X13084140Y-1775049D01*
X13085488Y-1783133D01*
X13086592Y-1784537D01*
X13099057Y-1791420D01*
X13127924Y-1804926D01*
X13170780Y-1824001D01*
X13225213Y-1847594D01*
X13288809Y-1874651D01*
X13359155Y-1904119D01*
X13389600Y-1916741D01*
X13463643Y-1947364D01*
X13533440Y-1976261D01*
X13596272Y-2002307D01*
X13649421Y-2024374D01*
X13690170Y-2041333D01*
X13715801Y-2052057D01*
X13720678Y-2054120D01*
X13762197Y-2071813D01*
X13902843Y-1732658D01*
X13935138Y-1655116D01*
X13965020Y-1584008D01*
X13991603Y-1521396D01*
X14013998Y-1469346D01*
X14031318Y-1429919D01*
X14042674Y-1405181D01*
X14047170Y-1397183D01*
X14044265Y-1407076D01*
X14034362Y-1433575D01*
X14018316Y-1474542D01*
X13996981Y-1527842D01*
X13971213Y-1591338D01*
X13941865Y-1662894D01*
X13912576Y-1733675D01*
X13880803Y-1810922D01*
X13852064Y-1882288D01*
X13827188Y-1945601D01*
X13807001Y-1998692D01*
X13792329Y-2039389D01*
X13784001Y-2065522D01*
X13782632Y-2074816D01*
X13794617Y-2081548D01*
X13821774Y-2094286D01*
X13860450Y-2111391D01*
X13906992Y-2131219D01*
X13923021Y-2137901D01*
X14055080Y-2192655D01*
X14187160Y-2137869D01*
X14235454Y-2117506D01*
X14277055Y-2099346D01*
X14308311Y-2085027D01*
X14318773Y-2079671D01*
X14356201Y-2079671D01*
X14358258Y-2089959D01*
X14367039Y-2114830D01*
X14380882Y-2150359D01*
X14398124Y-2192620D01*
X14417103Y-2237690D01*
X14436156Y-2281642D01*
X14453620Y-2320551D01*
X14467835Y-2350492D01*
X14477136Y-2367540D01*
X14479108Y-2369870D01*
X14482336Y-2379199D01*
X14477804Y-2383169D01*
X14472301Y-2396865D01*
X14468537Y-2428823D01*
X14466707Y-2477042D01*
X14466560Y-2498500D01*
X14466560Y-2606882D01*
X14539670Y-2680483D01*
X14570347Y-2710809D01*
X14595313Y-2734441D01*
X14611445Y-2748483D01*
X14615826Y-2751040D01*
X14613085Y-2741166D01*
X14603630Y-2715528D01*
X14588622Y-2677096D01*
X14569220Y-2628837D01*
X14546583Y-2573720D01*
X14546289Y-2573012D01*
X14518911Y-2505726D01*
X14499624Y-2455154D01*
X14487877Y-2419619D01*
X14483116Y-2397444D01*
X14483948Y-2392225D01*
X14490347Y-2392225D01*
X14492166Y-2403039D01*
X14500790Y-2429612D01*
X14515134Y-2468977D01*
X14534113Y-2518166D01*
X14556642Y-2574213D01*
X14559260Y-2580596D01*
X14582544Y-2636550D01*
X14603312Y-2685135D01*
X14620330Y-2723569D01*
X14632363Y-2749070D01*
X14638177Y-2758858D01*
X14638404Y-2758839D01*
X14643647Y-2748464D01*
X14655118Y-2722848D01*
X14671271Y-2685525D01*
X14690564Y-2640029D01*
X14696601Y-2625630D01*
X14719389Y-2569488D01*
X14733835Y-2529638D01*
X14740534Y-2504124D01*
X14740081Y-2490990D01*
X14738205Y-2488867D01*
X14718851Y-2478929D01*
X14687573Y-2465015D01*
X14648678Y-2448804D01*
X14606473Y-2431974D01*
X14565263Y-2416205D01*
X14529355Y-2403177D01*
X14503057Y-2394568D01*
X14490675Y-2392057D01*
X14490347Y-2392225D01*
X14483948Y-2392225D01*
X14484789Y-2386954D01*
X14484941Y-2386794D01*
X14495783Y-2384359D01*
X14518186Y-2388930D01*
X14554167Y-2401123D01*
X14605745Y-2421551D01*
X14624083Y-2429177D01*
X14670905Y-2448442D01*
X14710567Y-2464075D01*
X14739563Y-2474747D01*
X14754390Y-2479128D01*
X14755535Y-2479037D01*
X14760113Y-2469110D01*
X14771561Y-2442543D01*
X14788981Y-2401470D01*
X14811475Y-2348025D01*
X14838142Y-2284344D01*
X14868085Y-2212562D01*
X14898221Y-2140077D01*
X14930481Y-2062462D01*
X14960353Y-1990782D01*
X14986930Y-1927203D01*
X15009302Y-1873893D01*
X15026559Y-1833017D01*
X15037793Y-1806742D01*
X15040855Y-1799937D01*
X15064809Y-1799937D01*
X15067363Y-1808958D01*
X15077050Y-1834970D01*
X15093162Y-1876215D01*
X15114993Y-1930937D01*
X15141835Y-1997378D01*
X15172982Y-2073783D01*
X15207726Y-2158394D01*
X15245361Y-2249455D01*
X15256857Y-2277160D01*
X15295480Y-2369878D01*
X15331854Y-2456653D01*
X15365224Y-2535724D01*
X15394835Y-2605327D01*
X15419932Y-2663698D01*
X15439760Y-2709075D01*
X15453565Y-2739696D01*
X15460591Y-2753797D01*
X15461248Y-2754545D01*
X15466401Y-2745465D01*
X15478337Y-2719709D01*
X15496135Y-2679403D01*
X15518878Y-2626677D01*
X15545645Y-2563658D01*
X15575518Y-2492474D01*
X15603546Y-2425011D01*
X15635249Y-2348078D01*
X15664301Y-2277054D01*
X15689822Y-2214129D01*
X15710933Y-2161493D01*
X15726754Y-2121337D01*
X15736406Y-2095852D01*
X15739101Y-2087326D01*
X15730028Y-2082148D01*
X15704751Y-2070258D01*
X15665827Y-2052747D01*
X15615815Y-2030704D01*
X15557272Y-2005220D01*
X15492757Y-1977385D01*
X15424828Y-1948290D01*
X15356042Y-1919024D01*
X15288958Y-1890677D01*
X15226133Y-1864341D01*
X15170126Y-1841105D01*
X15123495Y-1822060D01*
X15088797Y-1808295D01*
X15068591Y-1800902D01*
X15064809Y-1799937D01*
X15040855Y-1799937D01*
X15042034Y-1797318D01*
X15036428Y-1796650D01*
X15017044Y-1802941D01*
X14997959Y-1810657D01*
X14976448Y-1819753D01*
X14938932Y-1835483D01*
X14888176Y-1856692D01*
X14826942Y-1882227D01*
X14757996Y-1910935D01*
X14684102Y-1941663D01*
X14654547Y-1953942D01*
X14582109Y-1984085D01*
X14515900Y-2011742D01*
X14458201Y-2035953D01*
X14411294Y-2055756D01*
X14377458Y-2070189D01*
X14358974Y-2078293D01*
X14356201Y-2079671D01*
X14318773Y-2079671D01*
X14325571Y-2076191D01*
X14327549Y-2074783D01*
X14325709Y-2063808D01*
X14316775Y-2036291D01*
X14301572Y-1994403D01*
X14280929Y-1940314D01*
X14255671Y-1876196D01*
X14226626Y-1804219D01*
X14197583Y-1733675D01*
X14165706Y-1656611D01*
X14136627Y-1585651D01*
X14111198Y-1522931D01*
X14090276Y-1470587D01*
X14074715Y-1430756D01*
X14065368Y-1405574D01*
X14062989Y-1397183D01*
X14067575Y-1405367D01*
X14079002Y-1430278D01*
X14096382Y-1469854D01*
X14118827Y-1522031D01*
X14145450Y-1584744D01*
X14175361Y-1655929D01*
X14207265Y-1732534D01*
X14347859Y-2071565D01*
X14475789Y-2018391D01*
X14526362Y-1997386D01*
X14590192Y-1970899D01*
X14661759Y-1941219D01*
X14735545Y-1910635D01*
X14806031Y-1881434D01*
X14806920Y-1881066D01*
X14867502Y-1855670D01*
X14922147Y-1832179D01*
X14967898Y-1811912D01*
X15001799Y-1796188D01*
X15020892Y-1786325D01*
X15023567Y-1784467D01*
X15025965Y-1778184D01*
X15024789Y-1765578D01*
X15019426Y-1744960D01*
X15009265Y-1714643D01*
X14993693Y-1672937D01*
X14972098Y-1618155D01*
X14943866Y-1548608D01*
X14908386Y-1462607D01*
X14895997Y-1432769D01*
X14863479Y-1355059D01*
X14833185Y-1283659D01*
X14806033Y-1220657D01*
X14782939Y-1168139D01*
X14764824Y-1128194D01*
X14752603Y-1102910D01*
X14747226Y-1094367D01*
X14734793Y-1098509D01*
X14706654Y-1109400D01*
X14665387Y-1125959D01*
X14613568Y-1147104D01*
X14553776Y-1171756D01*
X14488588Y-1198831D01*
X14420580Y-1227250D01*
X14352331Y-1255931D01*
X14286417Y-1283792D01*
X14225416Y-1309753D01*
X14171905Y-1332732D01*
X14128462Y-1351648D01*
X14097663Y-1365420D01*
X14082087Y-1372967D01*
X14080695Y-1373985D01*
X14089750Y-1378958D01*
X14115823Y-1390913D01*
X14157139Y-1409089D01*
X14211927Y-1432729D01*
X14278415Y-1461074D01*
X14354831Y-1493365D01*
X14439402Y-1528844D01*
X14530357Y-1566752D01*
X14553074Y-1576184D01*
X14645158Y-1614483D01*
X14731176Y-1650451D01*
X14809373Y-1683341D01*
X14877995Y-1712404D01*
X14935286Y-1736895D01*
X14979493Y-1756065D01*
X15008860Y-1769168D01*
X15021634Y-1775457D01*
X15022030Y-1775876D01*
X15012225Y-1772805D01*
X14985476Y-1762610D01*
X14943579Y-1746020D01*
X14888330Y-1723765D01*
X14821528Y-1696572D01*
X14744967Y-1665170D01*
X14660446Y-1630288D01*
X14569762Y-1592655D01*
X14551975Y-1585251D01*
X14459575Y-1546888D01*
X14372380Y-1510921D01*
X14292281Y-1478114D01*
X14221170Y-1449230D01*
X14160939Y-1425033D01*
X14113478Y-1406288D01*
X14080679Y-1393757D01*
X14064435Y-1388205D01*
X14063521Y-1388018D01*
X14050052Y-1391245D01*
X14019727Y-1401627D01*
X13974417Y-1418434D01*
X13915993Y-1440934D01*
X13846326Y-1468394D01*
X13767287Y-1500084D01*
X13680747Y-1535271D01*
X13588577Y-1573225D01*
X13566661Y-1582317D01*
X13474146Y-1620654D01*
X13387441Y-1656390D01*
X13308328Y-1688805D01*
X13238588Y-1717179D01*
X13180003Y-1740789D01*
X13134355Y-1758917D01*
X13103425Y-1770839D01*
X13088995Y-1775837D01*
X13088165Y-1775911D01*
X13096530Y-1771427D01*
X13121926Y-1759944D01*
X13162598Y-1742207D01*
X13216793Y-1718966D01*
X13282754Y-1690966D01*
X13358729Y-1658955D01*
X13442962Y-1623681D01*
X13533700Y-1585891D01*
X13557085Y-1576184D01*
X13649318Y-1537802D01*
X13735599Y-1501666D01*
X13814153Y-1468535D01*
X13883211Y-1439168D01*
X13940997Y-1414323D01*
X13985741Y-1394758D01*
X14015669Y-1381233D01*
X14029009Y-1374505D01*
X14029545Y-1373985D01*
X14020551Y-1369148D01*
X13995339Y-1357670D01*
X13956484Y-1340631D01*
X13906564Y-1319111D01*
X13848156Y-1294191D01*
X13783837Y-1266952D01*
X13716182Y-1238474D01*
X13647770Y-1209837D01*
X13581176Y-1182122D01*
X13518978Y-1156410D01*
X13463752Y-1133780D01*
X13418075Y-1115313D01*
X13384524Y-1102091D01*
X13365676Y-1095193D01*
X13362895Y-1094453D01*
X13357368Y-1103284D01*
X13345043Y-1128827D01*
X13326839Y-1168994D01*
X13303673Y-1221699D01*
X13276462Y-1284856D01*
X13246125Y-1356376D01*
X13214162Y-1432769D01*
X13176352Y-1524114D01*
X13145977Y-1598491D01*
X13122422Y-1657591D01*
X13105074Y-1703106D01*
X13093320Y-1736727D01*
X13086546Y-1760144D01*
X13084140Y-1775049D01*
X13061689Y-1775049D01*
X13202007Y-1438528D01*
X13234624Y-1360046D01*
X13264504Y-1287645D01*
X13290800Y-1223420D01*
X13312664Y-1169465D01*
X13329247Y-1127874D01*
X13339700Y-1100742D01*
X13343176Y-1090162D01*
X13343156Y-1090110D01*
X13332773Y-1092261D01*
X13308250Y-1103139D01*
X13272838Y-1120957D01*
X13229787Y-1143931D01*
X13182348Y-1170277D01*
X13133771Y-1198211D01*
X13087308Y-1225946D01*
X13046208Y-1251698D01*
X13032799Y-1260509D01*
X12879427Y-1374770D01*
X12740897Y-1502589D01*
X12617774Y-1643406D01*
X12542896Y-1746663D01*
X12497381Y-1817348D01*
X12454375Y-1889299D01*
X12416798Y-1957363D01*
X12387572Y-2016386D01*
X12379370Y-2035117D01*
X12363787Y-2072475D01*
X12356660Y-2072475D01*
X12390255Y-1996600D01*
X12448841Y-1882844D01*
X12510630Y-1779663D01*
X12519875Y-1765684D01*
X12546045Y-1726152D01*
X12567438Y-1692836D01*
X12581821Y-1669288D01*
X12586960Y-1659110D01*
X12580116Y-1664166D01*
X12560850Y-1681813D01*
X12531057Y-1710224D01*
X12492635Y-1747575D01*
X12447480Y-1792038D01*
X12404080Y-1835200D01*
X12221200Y-2017868D01*
X12211191Y-2017868D01*
X12205960Y-951280D01*
X11832115Y-948614D01*
X11493609Y-946200D01*
X12221200Y-946200D01*
X12221200Y-2007708D01*
X12404080Y-1825040D01*
X12453527Y-1775976D01*
X12497905Y-1732572D01*
X12535318Y-1696627D01*
X12563875Y-1669941D01*
X12581683Y-1654313D01*
X12586960Y-1651129D01*
X12593154Y-1653045D01*
X12602088Y-1647332D01*
X12612644Y-1633841D01*
X12612797Y-1627628D01*
X12618315Y-1618637D01*
X12636267Y-1597655D01*
X12664579Y-1566920D01*
X12701179Y-1528669D01*
X12743994Y-1485139D01*
X12755149Y-1473971D01*
X12799210Y-1430341D01*
X12837980Y-1392623D01*
X12869348Y-1362816D01*
X12891201Y-1342919D01*
X12901426Y-1334933D01*
X12901920Y-1335064D01*
X12909427Y-1333075D01*
X12929451Y-1321206D01*
X12958241Y-1301757D01*
X12970500Y-1293002D01*
X13131060Y-1188368D01*
X13299539Y-1100859D01*
X13358526Y-1077350D01*
X13376834Y-1077350D01*
X13384098Y-1082724D01*
X13408148Y-1094884D01*
X13446961Y-1112928D01*
X13498513Y-1135953D01*
X13560781Y-1163056D01*
X13631743Y-1193334D01*
X13709375Y-1225883D01*
X13712114Y-1227022D01*
X14055080Y-1369538D01*
X14182080Y-1316808D01*
X14230922Y-1296523D01*
X14293397Y-1270565D01*
X14364376Y-1241067D01*
X14438730Y-1210160D01*
X14511331Y-1179976D01*
X14525031Y-1174279D01*
X14585991Y-1148504D01*
X14639625Y-1125005D01*
X14683425Y-1104950D01*
X14713192Y-1090338D01*
X14766776Y-1090338D01*
X14769982Y-1100104D01*
X14780198Y-1126514D01*
X14796573Y-1167476D01*
X14818257Y-1220894D01*
X14844400Y-1284676D01*
X14874151Y-1356726D01*
X14906661Y-1434952D01*
X14907980Y-1438115D01*
X15051665Y-1782711D01*
X15396652Y-1926839D01*
X15475112Y-1959516D01*
X15547482Y-1989462D01*
X15611670Y-2015827D01*
X15665584Y-2037759D01*
X15707134Y-2054408D01*
X15734226Y-2064922D01*
X15744770Y-2068453D01*
X15744821Y-2068434D01*
X15741982Y-2058897D01*
X15731735Y-2035381D01*
X15715925Y-2001999D01*
X15705582Y-1981031D01*
X15608375Y-1807900D01*
X15508260Y-1665314D01*
X15525205Y-1665314D01*
X15527001Y-1672329D01*
X15540983Y-1692645D01*
X15550500Y-1705191D01*
X15617148Y-1801952D01*
X15680736Y-1913966D01*
X15739101Y-2036188D01*
X15790078Y-2163570D01*
X15831503Y-2291066D01*
X15861211Y-2413630D01*
X15866344Y-2441675D01*
X15883880Y-2544591D01*
X15886596Y-2281614D01*
X15889312Y-2018638D01*
X15888469Y-2017794D01*
X15898936Y-2017794D01*
X16272356Y-2391317D01*
X16344125Y-2463080D01*
X16411411Y-2530314D01*
X16472875Y-2591684D01*
X16527179Y-2645853D01*
X16572982Y-2691488D01*
X16608946Y-2727254D01*
X16633730Y-2751815D01*
X16645997Y-2763837D01*
X16647096Y-2764840D01*
X16647310Y-2754919D01*
X16647552Y-2726116D01*
X16647817Y-2679869D01*
X16648101Y-2617615D01*
X16648399Y-2540792D01*
X16648705Y-2450837D01*
X16649015Y-2349189D01*
X16649324Y-2237285D01*
X16649627Y-2116562D01*
X16649919Y-1988458D01*
X16650193Y-1855394D01*
X16651972Y-945948D01*
X15904200Y-951280D01*
X15898936Y-2017794D01*
X15888469Y-2017794D01*
X15709272Y-1838389D01*
X15645740Y-1775201D01*
X15595861Y-1726545D01*
X15559341Y-1692177D01*
X15535887Y-1671848D01*
X15525205Y-1665314D01*
X15508260Y-1665314D01*
X15497064Y-1649369D01*
X15371449Y-1505219D01*
X15231330Y-1375231D01*
X15076509Y-1259187D01*
X15002535Y-1211792D01*
X14967136Y-1191002D01*
X14926042Y-1168102D01*
X14883031Y-1145040D01*
X14841884Y-1123762D01*
X14806380Y-1106217D01*
X14780301Y-1094351D01*
X14767424Y-1090112D01*
X14766776Y-1090338D01*
X14713192Y-1090338D01*
X14714883Y-1089508D01*
X14731488Y-1079846D01*
X14733311Y-1077337D01*
X14717407Y-1069011D01*
X14685575Y-1057165D01*
X14641673Y-1042912D01*
X14589557Y-1027366D01*
X14533084Y-1011640D01*
X14476112Y-996847D01*
X14422498Y-984099D01*
X14378672Y-974989D01*
X14286960Y-961905D01*
X14182088Y-953759D01*
X14070277Y-950554D01*
X13957750Y-952291D01*
X13850729Y-958973D01*
X13755435Y-970601D01*
X13731487Y-974784D01*
X13684428Y-984687D01*
X13630434Y-997664D01*
X13573356Y-1012601D01*
X13517043Y-1028385D01*
X13465347Y-1043903D01*
X13422118Y-1058041D01*
X13391207Y-1069685D01*
X13376834Y-1077350D01*
X13358526Y-1077350D01*
X13473766Y-1031422D01*
X13651567Y-981006D01*
X13716322Y-967641D01*
X13821400Y-948113D01*
X14288760Y-948113D01*
X14393837Y-967641D01*
X14572397Y-1010946D01*
X14748167Y-1073614D01*
X14918975Y-1154697D01*
X15082650Y-1253248D01*
X15139660Y-1293002D01*
X15170765Y-1314696D01*
X15194506Y-1329669D01*
X15207134Y-1335623D01*
X15208240Y-1335064D01*
X15215037Y-1339569D01*
X15234022Y-1356513D01*
X15263084Y-1383899D01*
X15300111Y-1419727D01*
X15342992Y-1462001D01*
X15355202Y-1474162D01*
X15399196Y-1518509D01*
X15437480Y-1557927D01*
X15467990Y-1590223D01*
X15488664Y-1613204D01*
X15497440Y-1624678D01*
X15497530Y-1625496D01*
X15498511Y-1635721D01*
X15508783Y-1647939D01*
X15520369Y-1653429D01*
X15522477Y-1652766D01*
X15531311Y-1658428D01*
X15552380Y-1676677D01*
X15583666Y-1705617D01*
X15623150Y-1743354D01*
X15668814Y-1787993D01*
X15706637Y-1825598D01*
X15755488Y-1874406D01*
X15799389Y-1918071D01*
X15836368Y-1954649D01*
X15864458Y-1982198D01*
X15881688Y-1998775D01*
X15886311Y-2002840D01*
X15886819Y-1992994D01*
X15887296Y-1964715D01*
X15887731Y-1919888D01*
X15888115Y-1860400D01*
X15888439Y-1788138D01*
X15888693Y-1704986D01*
X15888867Y-1612833D01*
X15888952Y-1513564D01*
X15888960Y-1474520D01*
X15888960Y-946200D01*
X15358200Y-946200D01*
X14827440Y-946199D01*
X15020380Y-1141780D01*
X15213319Y-1337360D01*
X14816889Y-946200D01*
X14552824Y-947156D01*
X14288760Y-948113D01*
X13821400Y-948113D01*
X13293270Y-946199D01*
X13095055Y-1141780D01*
X12896840Y-1337360D01*
X13089779Y-1141780D01*
X13282719Y-946199D01*
X12751959Y-946200D01*
X12221200Y-946200D01*
X11493609Y-946200D01*
X11458271Y-945948D01*
X11449040Y-945948D01*
X11449040Y-184200D01*
X11459200Y-184200D01*
X11459200Y-936040D01*
X12211040Y-936040D01*
X12211040Y-552882D01*
X12221200Y-552882D01*
X12221380Y-637618D01*
X12221892Y-715883D01*
X12222695Y-785366D01*
X12223747Y-843758D01*
X12225007Y-888747D01*
X12226433Y-918023D01*
X12227973Y-929266D01*
X12239148Y-930568D01*
X12268726Y-931787D01*
X12314790Y-932900D01*
X12375423Y-933883D01*
X12448708Y-934710D01*
X12532728Y-935359D01*
X12625566Y-935804D01*
X12725305Y-936021D01*
X12763964Y-936040D01*
X13293182Y-936040D01*
X13303342Y-936040D01*
X14052591Y-936040D01*
X14173971Y-936005D01*
X14289251Y-935906D01*
X14396848Y-935748D01*
X14495177Y-935536D01*
X14582655Y-935275D01*
X14657698Y-934972D01*
X14718721Y-934631D01*
X14764141Y-934258D01*
X14792373Y-933859D01*
X14801840Y-933448D01*
X14794871Y-925984D01*
X14774858Y-905509D01*
X14743134Y-873369D01*
X14701037Y-830907D01*
X14649902Y-779470D01*
X14591065Y-720401D01*
X14525862Y-655045D01*
X14455629Y-584748D01*
X14428408Y-557528D01*
X14057334Y-186555D01*
X14067698Y-186555D01*
X14442389Y-561374D01*
X14817080Y-936192D01*
X15883880Y-930960D01*
X15886545Y-557115D01*
X15889204Y-184200D01*
X15899120Y-184200D01*
X15899120Y-936040D01*
X16650960Y-936040D01*
X16650960Y-184200D01*
X15899120Y-184200D01*
X15889204Y-184200D01*
X15889211Y-183271D01*
X14978454Y-184913D01*
X14067698Y-186555D01*
X14057334Y-186555D01*
X14054977Y-184199D01*
X13679160Y-560119D01*
X13303342Y-936040D01*
X13293182Y-936040D01*
X13667822Y-561297D01*
X14042461Y-186555D01*
X13131830Y-184914D01*
X12221200Y-183272D01*
X12221200Y-552882D01*
X12211040Y-552882D01*
X12211040Y-184200D01*
X11459200Y-184200D01*
X11449040Y-184200D01*
X11449040Y-174040D01*
X16661120Y-174040D01*
X16661120Y-5386120D01*
G37*
X16661120Y-5386120D02*
X11449040Y-5386120D01*
X11449040Y-5376888D01*
X12220948Y-5376888D01*
X13131705Y-5375246D01*
X14042461Y-5373604D01*
X13667770Y-4998785D01*
X13293233Y-4624120D01*
X13303342Y-4624120D01*
X13679160Y-5000040D01*
X13751129Y-5072027D01*
X13818580Y-5139491D01*
X13880182Y-5201101D01*
X13934606Y-5255528D01*
X13980521Y-5301441D01*
X14016597Y-5337511D01*
X14041504Y-5362408D01*
X14053913Y-5374801D01*
X14055080Y-5375960D01*
X14057635Y-5373411D01*
X14067891Y-5373411D01*
X14978551Y-5375191D01*
X15889211Y-5376972D01*
X15886545Y-5003086D01*
X15883880Y-4629200D01*
X15350480Y-4626583D01*
X14848277Y-4624120D01*
X15899120Y-4624120D01*
X15899120Y-5375960D01*
X16650960Y-5375960D01*
X16650960Y-4624120D01*
X15899120Y-4624120D01*
X14848277Y-4624120D01*
X14817080Y-4623967D01*
X14442485Y-4998689D01*
X14067891Y-5373411D01*
X14057635Y-5373411D01*
X14062061Y-5368996D01*
X14082079Y-5348991D01*
X14113802Y-5317276D01*
X14155902Y-5275180D01*
X14207048Y-5224032D01*
X14265909Y-5165164D01*
X14331157Y-5099906D01*
X14401461Y-5029586D01*
X14431000Y-5000040D01*
X14806817Y-4624120D01*
X13303342Y-4624120D01*
X13293233Y-4624120D01*
X13293080Y-4623967D01*
X12759680Y-4626583D01*
X12226280Y-4629200D01*
X12220948Y-5376888D01*
X11449040Y-5376888D01*
X11449040Y-4624120D01*
X11459200Y-4624120D01*
X11459200Y-5375960D01*
X12211040Y-5375960D01*
X12211040Y-4624120D01*
X11459200Y-4624120D01*
X11449040Y-4624120D01*
X11449040Y-4614211D01*
X11458271Y-4614211D01*
X11493467Y-4613960D01*
X12221200Y-4613960D01*
X12749520Y-4613960D01*
X14827313Y-4613960D01*
X15888960Y-4613960D01*
X15888960Y-4085640D01*
X15888911Y-3984169D01*
X15888774Y-3889100D01*
X15888555Y-3802319D01*
X15888265Y-3725713D01*
X15887912Y-3661167D01*
X15887507Y-3610569D01*
X15887057Y-3575804D01*
X15886573Y-3558758D01*
X15886383Y-3557320D01*
X15878964Y-3564321D01*
X15858314Y-3584577D01*
X15825560Y-3616965D01*
X15781830Y-3660362D01*
X15728252Y-3713646D01*
X15665955Y-3775694D01*
X15596066Y-3845384D01*
X15519712Y-3921592D01*
X15438023Y-4003196D01*
X15355560Y-4085640D01*
X14827313Y-4613960D01*
X12749520Y-4613960D01*
X12850990Y-4613911D01*
X12946059Y-4613774D01*
X13032840Y-4613555D01*
X13109446Y-4613265D01*
X13173992Y-4612912D01*
X13224590Y-4612507D01*
X13259355Y-4612057D01*
X13276401Y-4611573D01*
X13277840Y-4611383D01*
X13270838Y-4603964D01*
X13250582Y-4583314D01*
X13218194Y-4550560D01*
X13174797Y-4506830D01*
X13121513Y-4453252D01*
X13059465Y-4390955D01*
X12989775Y-4321066D01*
X12920674Y-4251832D01*
X12940996Y-4251832D01*
X12950963Y-4264920D01*
X12973825Y-4290166D01*
X13010068Y-4328118D01*
X13060179Y-4379326D01*
X13094081Y-4413595D01*
X13291323Y-4612396D01*
X14818852Y-4612396D01*
X15000740Y-4430298D01*
X15062815Y-4367763D01*
X15110468Y-4318850D01*
X15144009Y-4283184D01*
X15163750Y-4260393D01*
X15170000Y-4250103D01*
X15163070Y-4251941D01*
X15143272Y-4265533D01*
X15128422Y-4276792D01*
X15048505Y-4332447D01*
X14953915Y-4388227D01*
X14850087Y-4441321D01*
X14742455Y-4488915D01*
X14654009Y-4522269D01*
X14595156Y-4541222D01*
X14531885Y-4559340D01*
X14468589Y-4575583D01*
X14409664Y-4588917D01*
X14359505Y-4598302D01*
X14322507Y-4602703D01*
X14312564Y-4602843D01*
X14311872Y-4600806D01*
X14328223Y-4596018D01*
X14358644Y-4589229D01*
X14393305Y-4582452D01*
X14435856Y-4573472D01*
X14486375Y-4561156D01*
X14540876Y-4546670D01*
X14595370Y-4531184D01*
X14645872Y-4515864D01*
X14688394Y-4501880D01*
X14718949Y-4490398D01*
X14733270Y-4482863D01*
X14725754Y-4477819D01*
X14713347Y-4471720D01*
X14767152Y-4471720D01*
X14777592Y-4467441D01*
X14802116Y-4455892D01*
X14836691Y-4439004D01*
X14865007Y-4424891D01*
X14946480Y-4381849D01*
X15023219Y-4337286D01*
X15089979Y-4294356D01*
X15129319Y-4265921D01*
X15153433Y-4249756D01*
X15171564Y-4242012D01*
X15176428Y-4242297D01*
X15189032Y-4239941D01*
X15199468Y-4230308D01*
X15208030Y-4218501D01*
X15203075Y-4220191D01*
X15193000Y-4227288D01*
X15190418Y-4228031D01*
X15200932Y-4217469D01*
X15222376Y-4197714D01*
X15233640Y-4187614D01*
X15360274Y-4066065D01*
X15473927Y-3939190D01*
X15510015Y-3891634D01*
X15525488Y-3891634D01*
X15527176Y-3893854D01*
X15540590Y-3883556D01*
X15566255Y-3860273D01*
X15604696Y-3823540D01*
X15656437Y-3772889D01*
X15689377Y-3740297D01*
X15888960Y-3542275D01*
X15888959Y-3541977D01*
X15899120Y-3541977D01*
X15899120Y-4071195D01*
X15899246Y-4173021D01*
X15899609Y-4268662D01*
X15900184Y-4356202D01*
X15900948Y-4433724D01*
X15901875Y-4499310D01*
X15902942Y-4551043D01*
X15904125Y-4587007D01*
X15905398Y-4605285D01*
X15905893Y-4607186D01*
X15917266Y-4608736D01*
X15946648Y-4610161D01*
X15991728Y-4611419D01*
X16050197Y-4612470D01*
X16119743Y-4613271D01*
X16198056Y-4613782D01*
X16282277Y-4613960D01*
X16651887Y-4613960D01*
X16650245Y-3703329D01*
X16648604Y-2792698D01*
X16273862Y-3167337D01*
X15899120Y-3541977D01*
X15888959Y-3541977D01*
X15888003Y-3278017D01*
X15887046Y-3013760D01*
X15867518Y-3118837D01*
X15826585Y-3288467D01*
X15767606Y-3457818D01*
X15692457Y-3622610D01*
X15603014Y-3778565D01*
X15535002Y-3877360D01*
X15525488Y-3891634D01*
X15510015Y-3891634D01*
X15571715Y-3810330D01*
X15611503Y-3749824D01*
X15630634Y-3717716D01*
X15652875Y-3678134D01*
X15676306Y-3634793D01*
X15699008Y-3591410D01*
X15719060Y-3551701D01*
X15734545Y-3519382D01*
X15743543Y-3498169D01*
X15744813Y-3491717D01*
X15735052Y-3494920D01*
X15708650Y-3505145D01*
X15667700Y-3521541D01*
X15614293Y-3543256D01*
X15550523Y-3569441D01*
X15478481Y-3599244D01*
X15400260Y-3631814D01*
X15396853Y-3633237D01*
X15052066Y-3777282D01*
X14948761Y-4025441D01*
X14918388Y-4098381D01*
X14888118Y-4171038D01*
X14859587Y-4239483D01*
X14834433Y-4299790D01*
X14814294Y-4348031D01*
X14803998Y-4372660D01*
X14787463Y-4413135D01*
X14774962Y-4445622D01*
X14767924Y-4466283D01*
X14767152Y-4471720D01*
X14713347Y-4471720D01*
X14701956Y-4466121D01*
X14664391Y-4448837D01*
X14615571Y-4427039D01*
X14558010Y-4401793D01*
X14494222Y-4374170D01*
X14426721Y-4345239D01*
X14358020Y-4316068D01*
X14290632Y-4287728D01*
X14227072Y-4261286D01*
X14169852Y-4237812D01*
X14121487Y-4218376D01*
X14084490Y-4204046D01*
X14061375Y-4195891D01*
X14055080Y-4194405D01*
X14041776Y-4198230D01*
X14013038Y-4208886D01*
X13971382Y-4225305D01*
X13919319Y-4246417D01*
X13859364Y-4271154D01*
X13794032Y-4298447D01*
X13725834Y-4327227D01*
X13657286Y-4356425D01*
X13590901Y-4384972D01*
X13529193Y-4411800D01*
X13474676Y-4435840D01*
X13429862Y-4456022D01*
X13397267Y-4471279D01*
X13379404Y-4480540D01*
X13376824Y-4482798D01*
X13392306Y-4490834D01*
X13423551Y-4502483D01*
X13466573Y-4516576D01*
X13517386Y-4531944D01*
X13572002Y-4547421D01*
X13626435Y-4561836D01*
X13676699Y-4574023D01*
X13716854Y-4582452D01*
X13756887Y-4590351D01*
X13785376Y-4596887D01*
X13799347Y-4601308D01*
X13797595Y-4602843D01*
X13766940Y-4600675D01*
X13721403Y-4593116D01*
X13665377Y-4581201D01*
X13603257Y-4565969D01*
X13539437Y-4548455D01*
X13478310Y-4529697D01*
X13456081Y-4522245D01*
X13281117Y-4451537D01*
X13113098Y-4362969D01*
X12957800Y-4259935D01*
X12943437Y-4250353D01*
X12940996Y-4251832D01*
X12920674Y-4251832D01*
X12913567Y-4244712D01*
X12831963Y-4163023D01*
X12749520Y-4080560D01*
X12221200Y-3552313D01*
X12221200Y-4613960D01*
X11493467Y-4613960D01*
X11832115Y-4611545D01*
X12205960Y-4608880D01*
X12211192Y-3542080D01*
X12211001Y-3541889D01*
X12221200Y-3541889D01*
X12416682Y-3737564D01*
X12468119Y-3788956D01*
X12514690Y-3835299D01*
X12554521Y-3874745D01*
X12585740Y-3905446D01*
X12606473Y-3925552D01*
X12614848Y-3933216D01*
X12614915Y-3933240D01*
X12610691Y-3925677D01*
X12597047Y-3905519D01*
X12576576Y-3876557D01*
X12568002Y-3864660D01*
X12463368Y-3704099D01*
X12375859Y-3535620D01*
X12358386Y-3491776D01*
X12365338Y-3491776D01*
X12367872Y-3501654D01*
X12378411Y-3525469D01*
X12395008Y-3559440D01*
X12415713Y-3599788D01*
X12438582Y-3642733D01*
X12461665Y-3684495D01*
X12483017Y-3721293D01*
X12486792Y-3727535D01*
X12586471Y-3874455D01*
X12700045Y-4012306D01*
X12824720Y-4138227D01*
X12957705Y-4249355D01*
X13074640Y-4329708D01*
X13103739Y-4346998D01*
X13141817Y-4368547D01*
X13184984Y-4392284D01*
X13229353Y-4416138D01*
X13271035Y-4438039D01*
X13306143Y-4455916D01*
X13330787Y-4467698D01*
X13340670Y-4471379D01*
X13339875Y-4462841D01*
X13332326Y-4439473D01*
X13319354Y-4405083D01*
X13306161Y-4372660D01*
X13290548Y-4335300D01*
X13268764Y-4283102D01*
X13242445Y-4219990D01*
X13213227Y-4149886D01*
X13182747Y-4076713D01*
X13161283Y-4025164D01*
X13060142Y-3782201D01*
X13083755Y-3782201D01*
X13084679Y-3794759D01*
X13089895Y-3815268D01*
X13100056Y-3845574D01*
X13115817Y-3887524D01*
X13137833Y-3942964D01*
X13166759Y-4013741D01*
X13194971Y-4081822D01*
X13226135Y-4156683D01*
X13255705Y-4227629D01*
X13282528Y-4291901D01*
X13305452Y-4346736D01*
X13323321Y-4389375D01*
X13334984Y-4417057D01*
X13337544Y-4423069D01*
X13358040Y-4470885D01*
X13452560Y-4431141D01*
X13489018Y-4415887D01*
X13540304Y-4394537D01*
X13602457Y-4368735D01*
X13671517Y-4340122D01*
X13743524Y-4310342D01*
X13788288Y-4291858D01*
X13853446Y-4264742D01*
X13911938Y-4239963D01*
X13961275Y-4218611D01*
X13998968Y-4201777D01*
X14022526Y-4190552D01*
X14029468Y-4186248D01*
X14080715Y-4186248D01*
X14089808Y-4191873D01*
X14115201Y-4203926D01*
X14154308Y-4221342D01*
X14204540Y-4243055D01*
X14263309Y-4268003D01*
X14328029Y-4295119D01*
X14396110Y-4323339D01*
X14464966Y-4351599D01*
X14532009Y-4378834D01*
X14594651Y-4403980D01*
X14650304Y-4425972D01*
X14696381Y-4443746D01*
X14730293Y-4456237D01*
X14749454Y-4462379D01*
X14752731Y-4462709D01*
X14758077Y-4452189D01*
X14770251Y-4425056D01*
X14788327Y-4383478D01*
X14811375Y-4329625D01*
X14838467Y-4265662D01*
X14868675Y-4193760D01*
X14897511Y-4124644D01*
X14929491Y-4047624D01*
X14958850Y-3976670D01*
X14984708Y-3913934D01*
X15006181Y-3861565D01*
X15022389Y-3821713D01*
X15032450Y-3796526D01*
X15035520Y-3788173D01*
X15026437Y-3791046D01*
X15000361Y-3801034D01*
X14959052Y-3817423D01*
X14904268Y-3839500D01*
X14837768Y-3866551D01*
X14761310Y-3897864D01*
X14676655Y-3932724D01*
X14585559Y-3970419D01*
X14558000Y-3981857D01*
X14465285Y-4020480D01*
X14378516Y-4056853D01*
X14299456Y-4090222D01*
X14229865Y-4119833D01*
X14171508Y-4144929D01*
X14126146Y-4164758D01*
X14095542Y-4178563D01*
X14081458Y-4185591D01*
X14080715Y-4186248D01*
X14029468Y-4186248D01*
X14029588Y-4186174D01*
X14020508Y-4181200D01*
X13994412Y-4169246D01*
X13953073Y-4151069D01*
X13898264Y-4127428D01*
X13831758Y-4099082D01*
X13755327Y-4066789D01*
X13670745Y-4031309D01*
X13579784Y-3993399D01*
X13557085Y-3983975D01*
X13465001Y-3945676D01*
X13378983Y-3909708D01*
X13300786Y-3876818D01*
X13232164Y-3847755D01*
X13174873Y-3823264D01*
X13130666Y-3804094D01*
X13101299Y-3790991D01*
X13088525Y-3784702D01*
X13088129Y-3784283D01*
X13097932Y-3787358D01*
X13124677Y-3797564D01*
X13166567Y-3814172D01*
X13221807Y-3836451D01*
X13288599Y-3863673D01*
X13365148Y-3895108D01*
X13449658Y-3930027D01*
X13540331Y-3967701D01*
X13558184Y-3975142D01*
X13650690Y-4013532D01*
X13738109Y-4049455D01*
X13818535Y-4082153D01*
X13890060Y-4110865D01*
X13950776Y-4134834D01*
X13998778Y-4153301D01*
X14032158Y-4165507D01*
X14049009Y-4170694D01*
X14050000Y-4170820D01*
X14064063Y-4167344D01*
X14094052Y-4156998D01*
X14137851Y-4140656D01*
X14193347Y-4119193D01*
X14258424Y-4093484D01*
X14330969Y-4064402D01*
X14408866Y-4032822D01*
X14490002Y-3999619D01*
X14572262Y-3965666D01*
X14653530Y-3931839D01*
X14731694Y-3899012D01*
X14804638Y-3868059D01*
X14870248Y-3839854D01*
X14926410Y-3815273D01*
X14971008Y-3795189D01*
X15001929Y-3780477D01*
X15017057Y-3772011D01*
X15018133Y-3770457D01*
X15006750Y-3764626D01*
X14979418Y-3752316D01*
X14938988Y-3734759D01*
X14888311Y-3713188D01*
X14830237Y-3688834D01*
X14806920Y-3679146D01*
X14736538Y-3649973D01*
X14662802Y-3619394D01*
X14591224Y-3589698D01*
X14527315Y-3563171D01*
X14476590Y-3542100D01*
X14475991Y-3541852D01*
X14348263Y-3488761D01*
X14207406Y-3827648D01*
X14175055Y-3905145D01*
X14145122Y-3976210D01*
X14118495Y-4038780D01*
X14096065Y-4090791D01*
X14078722Y-4130180D01*
X14067354Y-4154883D01*
X14062863Y-4162850D01*
X14065775Y-4152959D01*
X14075699Y-4126469D01*
X14091779Y-4085517D01*
X14113157Y-4032238D01*
X14138979Y-3968768D01*
X14168386Y-3897243D01*
X14197692Y-3826594D01*
X14229523Y-3749383D01*
X14258305Y-3678045D01*
X14283210Y-3614751D01*
X14303411Y-3561672D01*
X14318079Y-3520981D01*
X14326387Y-3494847D01*
X14327723Y-3485550D01*
X14318279Y-3480228D01*
X14360121Y-3480228D01*
X14360802Y-3483435D01*
X14372003Y-3488033D01*
X14399758Y-3499607D01*
X14441896Y-3517243D01*
X14496243Y-3540033D01*
X14560627Y-3567063D01*
X14632875Y-3597425D01*
X14705320Y-3627893D01*
X14782575Y-3660396D01*
X14853671Y-3690304D01*
X14916494Y-3716729D01*
X14968929Y-3738782D01*
X15008865Y-3755574D01*
X15034186Y-3766216D01*
X15042778Y-3769819D01*
X15040415Y-3761936D01*
X15032003Y-3740779D01*
X15024282Y-3722447D01*
X15015243Y-3701070D01*
X14999569Y-3663682D01*
X14978410Y-3613042D01*
X14952917Y-3551908D01*
X14924241Y-3483038D01*
X14893533Y-3409191D01*
X14881217Y-3379547D01*
X14851078Y-3307114D01*
X14823429Y-3240915D01*
X14799230Y-3183229D01*
X14779442Y-3136336D01*
X14765026Y-3102517D01*
X14756941Y-3084050D01*
X14755572Y-3081286D01*
X14745573Y-3083707D01*
X14720177Y-3092764D01*
X14682710Y-3107192D01*
X14636497Y-3125729D01*
X14611013Y-3136200D01*
X14469708Y-3194708D01*
X14410636Y-3337374D01*
X14390783Y-3386915D01*
X14374997Y-3429436D01*
X14364401Y-3461639D01*
X14360121Y-3480228D01*
X14318279Y-3480228D01*
X14315681Y-3478764D01*
X14288472Y-3465976D01*
X14249754Y-3448830D01*
X14203185Y-3428974D01*
X14187160Y-3422290D01*
X14055080Y-3367504D01*
X13923021Y-3422258D01*
X13874707Y-3442629D01*
X13833066Y-3460822D01*
X13801760Y-3475193D01*
X13784447Y-3484092D01*
X13782458Y-3485517D01*
X13784259Y-3496538D01*
X13793175Y-3524092D01*
X13808376Y-3566005D01*
X13829035Y-3620108D01*
X13854325Y-3684227D01*
X13883417Y-3756191D01*
X13912467Y-3826594D01*
X13944404Y-3903615D01*
X13973538Y-3974535D01*
X13999014Y-4037218D01*
X14019973Y-4089528D01*
X14035560Y-4129328D01*
X14044919Y-4154483D01*
X14047296Y-4162850D01*
X14042702Y-4154670D01*
X14031253Y-4129768D01*
X14013839Y-4090205D01*
X13991350Y-4038045D01*
X13964674Y-3975351D01*
X13934702Y-3904186D01*
X13902703Y-3827526D01*
X13761795Y-3488518D01*
X13720477Y-3506125D01*
X13700801Y-3514391D01*
X13665058Y-3529285D01*
X13615963Y-3549681D01*
X13556234Y-3574453D01*
X13488584Y-3602473D01*
X13415729Y-3632615D01*
X13389600Y-3643418D01*
X13317162Y-3673580D01*
X13250472Y-3701773D01*
X13191945Y-3726942D01*
X13143994Y-3748032D01*
X13109035Y-3763991D01*
X13089480Y-3773764D01*
X13086467Y-3775747D01*
X13083755Y-3782201D01*
X13060142Y-3782201D01*
X13057863Y-3776728D01*
X13029295Y-3764816D01*
X13071050Y-3764816D01*
X13072318Y-3767034D01*
X13083144Y-3762186D01*
X13110577Y-3750473D01*
X13152451Y-3732805D01*
X13206599Y-3710090D01*
X13270854Y-3683237D01*
X13343049Y-3653156D01*
X13415077Y-3623221D01*
X13492488Y-3591036D01*
X13563786Y-3561295D01*
X13626836Y-3534896D01*
X13679505Y-3512735D01*
X13719659Y-3495711D01*
X13745165Y-3484721D01*
X13753873Y-3480698D01*
X13751451Y-3470653D01*
X13742393Y-3445217D01*
X13727963Y-3407717D01*
X13709424Y-3361483D01*
X13698959Y-3336013D01*
X13648277Y-3213608D01*
X13661657Y-3213608D01*
X13661701Y-3213880D01*
X13667822Y-3235773D01*
X13679961Y-3268598D01*
X13696295Y-3308356D01*
X13715003Y-3351053D01*
X13734264Y-3392690D01*
X13752255Y-3429271D01*
X13767155Y-3456799D01*
X13777141Y-3471278D01*
X13779562Y-3472465D01*
X13793153Y-3466773D01*
X13821080Y-3455049D01*
X13858948Y-3439138D01*
X13892520Y-3425024D01*
X13936991Y-3406404D01*
X13976834Y-3389867D01*
X14006870Y-3377555D01*
X14019520Y-3372507D01*
X14026361Y-3368506D01*
X14026146Y-3363289D01*
X14016899Y-3355795D01*
X13996642Y-3344964D01*
X13963400Y-3329737D01*
X13915197Y-3309053D01*
X13851880Y-3282610D01*
X13794777Y-3258688D01*
X13745430Y-3237579D01*
X13706409Y-3220417D01*
X13680286Y-3208341D01*
X13669631Y-3202486D01*
X13669828Y-3202114D01*
X13682333Y-3205728D01*
X13710370Y-3216009D01*
X13750751Y-3231718D01*
X13800290Y-3251618D01*
X13851880Y-3272840D01*
X13906651Y-3295488D01*
X13954783Y-3315157D01*
X13993208Y-3330614D01*
X14018860Y-3340622D01*
X14028597Y-3343960D01*
X14024283Y-3337296D01*
X14008224Y-3319259D01*
X13983111Y-3292774D01*
X13958305Y-3267468D01*
X13882939Y-3191560D01*
X13892996Y-3191560D01*
X13973800Y-3272840D01*
X14005946Y-3305136D01*
X14032116Y-3331353D01*
X14049436Y-3348615D01*
X14055080Y-3354120D01*
X14061960Y-3347389D01*
X14065397Y-3343960D01*
X14081562Y-3343960D01*
X14092309Y-3340240D01*
X14118730Y-3329906D01*
X14157759Y-3314190D01*
X14206329Y-3294328D01*
X14258280Y-3272840D01*
X14313481Y-3250150D01*
X14362495Y-3230497D01*
X14402135Y-3215119D01*
X14429211Y-3205255D01*
X14440331Y-3202114D01*
X14434781Y-3205903D01*
X14413002Y-3216266D01*
X14377564Y-3232063D01*
X14331036Y-3252157D01*
X14275988Y-3275407D01*
X14258280Y-3282793D01*
X14193756Y-3309726D01*
X14146038Y-3330062D01*
X14113134Y-3344920D01*
X14093054Y-3355424D01*
X14083806Y-3362693D01*
X14083400Y-3367850D01*
X14089843Y-3372015D01*
X14095720Y-3374339D01*
X14117669Y-3383059D01*
X14152786Y-3397681D01*
X14195642Y-3415925D01*
X14227800Y-3429830D01*
X14269596Y-3447865D01*
X14304312Y-3462545D01*
X14327851Y-3472156D01*
X14335918Y-3475049D01*
X14342049Y-3466609D01*
X14354216Y-3442810D01*
X14370767Y-3407106D01*
X14390051Y-3362947D01*
X14394017Y-3353580D01*
X14413620Y-3306268D01*
X14430260Y-3264654D01*
X14442329Y-3232869D01*
X14448217Y-3215039D01*
X14448458Y-3213880D01*
X14447586Y-3206232D01*
X14439750Y-3201016D01*
X14421636Y-3197622D01*
X14389931Y-3195438D01*
X14341319Y-3193853D01*
X14339560Y-3193808D01*
X14227800Y-3190977D01*
X14151854Y-3267468D01*
X14121433Y-3298604D01*
X14097914Y-3323634D01*
X14083988Y-3339632D01*
X14081562Y-3343960D01*
X14065397Y-3343960D01*
X14080283Y-3329113D01*
X14107172Y-3302167D01*
X14136360Y-3272840D01*
X14217163Y-3191560D01*
X13892996Y-3191560D01*
X13882939Y-3191560D01*
X13882360Y-3190977D01*
X13770600Y-3193808D01*
X13721428Y-3195384D01*
X13689262Y-3197541D01*
X13670787Y-3200891D01*
X13662691Y-3206043D01*
X13661657Y-3213608D01*
X13648277Y-3213608D01*
X13640451Y-3194708D01*
X13608311Y-3181400D01*
X13653760Y-3181400D01*
X13760440Y-3181400D01*
X14239497Y-3181400D01*
X14456400Y-3181400D01*
X14456400Y-2963408D01*
X14372049Y-3047320D01*
X14338516Y-3079683D01*
X14310042Y-3105300D01*
X14289693Y-3121538D01*
X14280609Y-3125836D01*
X14277590Y-3125704D01*
X14278692Y-3127306D01*
X14276120Y-3138564D01*
X14262840Y-3156535D01*
X14261681Y-3157786D01*
X14239497Y-3181400D01*
X13760440Y-3181400D01*
X13804234Y-3181158D01*
X13839316Y-3180506D01*
X13861487Y-3179549D01*
X13867120Y-3178678D01*
X13860321Y-3170949D01*
X13841603Y-3151487D01*
X13813476Y-3122858D01*
X13778455Y-3087633D01*
X13760440Y-3069640D01*
X13653760Y-2963323D01*
X13653760Y-3181400D01*
X13608311Y-3181400D01*
X13499146Y-3136200D01*
X13449793Y-3116075D01*
X13407514Y-3099424D01*
X13375635Y-3087509D01*
X13357481Y-3081595D01*
X13354587Y-3081286D01*
X13350034Y-3091205D01*
X13338669Y-3117619D01*
X13321452Y-3158248D01*
X13299343Y-3210813D01*
X13273302Y-3273032D01*
X13244290Y-3342628D01*
X13228942Y-3379547D01*
X13197739Y-3454622D01*
X13168106Y-3525826D01*
X13141197Y-3590395D01*
X13118164Y-3645565D01*
X13100161Y-3688572D01*
X13088341Y-3716652D01*
X13085657Y-3722959D01*
X13075371Y-3749133D01*
X13071050Y-3764816D01*
X13029295Y-3764816D01*
X12713191Y-3633012D01*
X12634757Y-3600407D01*
X12562416Y-3570528D01*
X12498262Y-3544223D01*
X12444387Y-3522344D01*
X12402887Y-3505740D01*
X12375854Y-3495262D01*
X12365382Y-3491759D01*
X12365338Y-3491776D01*
X12358386Y-3491776D01*
X12306422Y-3361393D01*
X12256006Y-3183592D01*
X12242641Y-3118837D01*
X12223113Y-3013760D01*
X12222156Y-3277824D01*
X12221200Y-3541889D01*
X12211001Y-3541889D01*
X11836374Y-3167389D01*
X11461555Y-2792698D01*
X11459913Y-3703454D01*
X11458271Y-4614211D01*
X11449040Y-4614211D01*
X11449040Y-2779977D01*
X11459199Y-2779977D01*
X11832528Y-3153408D01*
X11904324Y-3225176D01*
X11971681Y-3292412D01*
X12033252Y-3353780D01*
X12087694Y-3407945D01*
X12133662Y-3453570D01*
X12169810Y-3489320D01*
X12194794Y-3513859D01*
X12207270Y-3525850D01*
X12208448Y-3526840D01*
X12208868Y-3516943D01*
X12209267Y-3488311D01*
X12209639Y-3442527D01*
X12209979Y-3381175D01*
X12210281Y-3305839D01*
X12210541Y-3218102D01*
X12210752Y-3119550D01*
X12210909Y-3011765D01*
X12211007Y-2896332D01*
X12211040Y-2777591D01*
X12211040Y-2764882D01*
X12225554Y-2764882D01*
X12227291Y-2877409D01*
X12233973Y-2984430D01*
X12245601Y-3079724D01*
X12249784Y-3103672D01*
X12262533Y-3164390D01*
X12278118Y-3228151D01*
X12295412Y-3291293D01*
X12313287Y-3350155D01*
X12330617Y-3401073D01*
X12346273Y-3440385D01*
X12359128Y-3464429D01*
X12361857Y-3467712D01*
X12373674Y-3474333D01*
X12401641Y-3487625D01*
X12443138Y-3506467D01*
X12495548Y-3529741D01*
X12556252Y-3556325D01*
X12622633Y-3585100D01*
X12692070Y-3614946D01*
X12761947Y-3644744D01*
X12829646Y-3673372D01*
X12892547Y-3699713D01*
X12948032Y-3722645D01*
X12993484Y-3741048D01*
X13026284Y-3753804D01*
X13043814Y-3759791D01*
X13045455Y-3760097D01*
X13056481Y-3753593D01*
X13061732Y-3747820D01*
X13068415Y-3735001D01*
X13081521Y-3706317D01*
X13099766Y-3664705D01*
X13121870Y-3613103D01*
X13146551Y-3554448D01*
X13155925Y-3531920D01*
X13185131Y-3461525D01*
X13215747Y-3387758D01*
X13245481Y-3316133D01*
X13272044Y-3252168D01*
X13293146Y-3201380D01*
X13293391Y-3200789D01*
X13346565Y-3072859D01*
X13332075Y-3066850D01*
X13363197Y-3066850D01*
X13363302Y-3067048D01*
X13375610Y-3073974D01*
X13402119Y-3086008D01*
X13438667Y-3101503D01*
X13481093Y-3118809D01*
X13525236Y-3136277D01*
X13566936Y-3152259D01*
X13602031Y-3165107D01*
X13626361Y-3173170D01*
X13635636Y-3174962D01*
X13638890Y-3163392D01*
X13641501Y-3135914D01*
X13643162Y-3096935D01*
X13643600Y-3061166D01*
X13643600Y-2952291D01*
X13567400Y-2876600D01*
X13536332Y-2846233D01*
X13511373Y-2822779D01*
X13495455Y-2808931D01*
X13491200Y-2806562D01*
X13494919Y-2817309D01*
X13505253Y-2843730D01*
X13520969Y-2882759D01*
X13540831Y-2931329D01*
X13562320Y-2983280D01*
X13585009Y-3038481D01*
X13604662Y-3087495D01*
X13620040Y-3127135D01*
X13629904Y-3154211D01*
X13633045Y-3165331D01*
X13629262Y-3159779D01*
X13618916Y-3137994D01*
X13603145Y-3102547D01*
X13583086Y-3056007D01*
X13559875Y-3000948D01*
X13552520Y-2983280D01*
X13524375Y-2916342D01*
X13502655Y-2866847D01*
X13486570Y-2833240D01*
X13475330Y-2813966D01*
X13468146Y-2807472D01*
X13464741Y-2810560D01*
X13457948Y-2827535D01*
X13445085Y-2858794D01*
X13427987Y-2899899D01*
X13408492Y-2946415D01*
X13408242Y-2947008D01*
X13389931Y-2991537D01*
X13375397Y-3028821D01*
X13366024Y-3055159D01*
X13363197Y-3066850D01*
X13332075Y-3066850D01*
X13007534Y-2932265D01*
X12930007Y-2899976D01*
X12858914Y-2870099D01*
X12796318Y-2843523D01*
X12744285Y-2821135D01*
X12704877Y-2803823D01*
X12680159Y-2792475D01*
X12672183Y-2787989D01*
X12682076Y-2790894D01*
X12708575Y-2800797D01*
X12749542Y-2816843D01*
X12802842Y-2838178D01*
X12866338Y-2863946D01*
X12937894Y-2893294D01*
X13008675Y-2922583D01*
X13085921Y-2954357D01*
X13157283Y-2983097D01*
X13220593Y-3007975D01*
X13273678Y-3028166D01*
X13314369Y-3042842D01*
X13340495Y-3051175D01*
X13349783Y-3052549D01*
X13356504Y-3040573D01*
X13369236Y-3013425D01*
X13386339Y-2974757D01*
X13406171Y-2928219D01*
X13412869Y-2912160D01*
X13467655Y-2780080D01*
X13467463Y-2779616D01*
X13481026Y-2779616D01*
X13559534Y-2858588D01*
X13591430Y-2890433D01*
X13617622Y-2916133D01*
X13635093Y-2932755D01*
X13640821Y-2937560D01*
X13641767Y-2927971D01*
X13642111Y-2916684D01*
X13654475Y-2916684D01*
X13661354Y-2952501D01*
X13681060Y-2980184D01*
X13702831Y-3001497D01*
X13712318Y-3007355D01*
X13709223Y-2997725D01*
X13699783Y-2982316D01*
X13684274Y-2954226D01*
X13669824Y-2921415D01*
X13668850Y-2918816D01*
X13655191Y-2881680D01*
X13654475Y-2916684D01*
X13642111Y-2916684D01*
X13642574Y-2901493D01*
X13643184Y-2861555D01*
X13643536Y-2811587D01*
X13643600Y-2777778D01*
X13643600Y-2756479D01*
X13655436Y-2756479D01*
X13659623Y-2839960D01*
X13681089Y-2920321D01*
X13718393Y-2994739D01*
X13770092Y-3060388D01*
X13834744Y-3114445D01*
X13910909Y-3154085D01*
X13916798Y-3156307D01*
X13935905Y-3164768D01*
X13940122Y-3169908D01*
X13937213Y-3170524D01*
X13919535Y-3166390D01*
X13891607Y-3155006D01*
X13871173Y-3144926D01*
X13821400Y-3118613D01*
X13850024Y-3148736D01*
X13878648Y-3178860D01*
X14055186Y-3178860D01*
X14119037Y-3178763D01*
X14165756Y-3178218D01*
X14198529Y-3176837D01*
X14220545Y-3174234D01*
X14234990Y-3170023D01*
X14245052Y-3163819D01*
X14253918Y-3155234D01*
X14254393Y-3154730D01*
X14269014Y-3138138D01*
X14270626Y-3132064D01*
X14257649Y-3136281D01*
X14228501Y-3150562D01*
X14227800Y-3150920D01*
X14199716Y-3163356D01*
X14177253Y-3170096D01*
X14172311Y-3170524D01*
X14170523Y-3167195D01*
X14184702Y-3159699D01*
X14193361Y-3156307D01*
X14272173Y-3116802D01*
X14339407Y-3061356D01*
X14376326Y-3013760D01*
X14391533Y-3013760D01*
X14423966Y-2983919D01*
X14446543Y-2958213D01*
X14448497Y-2952291D01*
X14466560Y-2952291D01*
X14466560Y-3060072D01*
X14467104Y-3104911D01*
X14468576Y-3141849D01*
X14470733Y-3166387D01*
X14472684Y-3173978D01*
X14476107Y-3176348D01*
X14482021Y-3176608D01*
X14493189Y-3173774D01*
X14512371Y-3166861D01*
X14542330Y-3154885D01*
X14585828Y-3136861D01*
X14637334Y-3115284D01*
X14684425Y-3094487D01*
X14720209Y-3076574D01*
X14742017Y-3062990D01*
X14747488Y-3055657D01*
X14741786Y-3042040D01*
X14730053Y-3014090D01*
X14714135Y-2976206D01*
X14700024Y-2942640D01*
X14681404Y-2898168D01*
X14664867Y-2858325D01*
X14652555Y-2828289D01*
X14647507Y-2815640D01*
X14643506Y-2808798D01*
X14638289Y-2809013D01*
X14630795Y-2818260D01*
X14619964Y-2838517D01*
X14604737Y-2871759D01*
X14584053Y-2919962D01*
X14557610Y-2983280D01*
X14533688Y-3040382D01*
X14512579Y-3089729D01*
X14495417Y-3128750D01*
X14483341Y-3154873D01*
X14477486Y-3165528D01*
X14477114Y-3165331D01*
X14480728Y-3152826D01*
X14491009Y-3124789D01*
X14506718Y-3084408D01*
X14526618Y-3034869D01*
X14547840Y-2983280D01*
X14570488Y-2928508D01*
X14590157Y-2880376D01*
X14605614Y-2841951D01*
X14615622Y-2816299D01*
X14618960Y-2806562D01*
X14612299Y-2810873D01*
X14594272Y-2826928D01*
X14567811Y-2852031D01*
X14542760Y-2876600D01*
X14466560Y-2952291D01*
X14448497Y-2952291D01*
X14455173Y-2932061D01*
X14455684Y-2917879D01*
X14454968Y-2881680D01*
X14441309Y-2918816D01*
X14426926Y-2952348D01*
X14410589Y-2983239D01*
X14409592Y-2984856D01*
X14391533Y-3013760D01*
X14376326Y-3013760D01*
X14393382Y-2991773D01*
X14432423Y-2909857D01*
X14437880Y-2893474D01*
X14454060Y-2809021D01*
X14453024Y-2777778D01*
X14466560Y-2777778D01*
X14466726Y-2832166D01*
X14467187Y-2878608D01*
X14467881Y-2913674D01*
X14468750Y-2933936D01*
X14469338Y-2937560D01*
X14477164Y-2930814D01*
X14496242Y-2912533D01*
X14523555Y-2885647D01*
X14550625Y-2858588D01*
X14628671Y-2780080D01*
X14642504Y-2780080D01*
X14697258Y-2912138D01*
X14717629Y-2960452D01*
X14735822Y-3002093D01*
X14750193Y-3033399D01*
X14759092Y-3050712D01*
X14760517Y-3052701D01*
X14771538Y-3050900D01*
X14799092Y-3041984D01*
X14841005Y-3026783D01*
X14895108Y-3006124D01*
X14959227Y-2980834D01*
X15031191Y-2951742D01*
X15101594Y-2922692D01*
X15178615Y-2890755D01*
X15249535Y-2861621D01*
X15312218Y-2836145D01*
X15364528Y-2815186D01*
X15404328Y-2799599D01*
X15429483Y-2790240D01*
X15437850Y-2787863D01*
X15429671Y-2792457D01*
X15404769Y-2803906D01*
X15365207Y-2821319D01*
X15313050Y-2843808D01*
X15250359Y-2870482D01*
X15179200Y-2900451D01*
X15102648Y-2932406D01*
X14763761Y-3073263D01*
X14816852Y-3200991D01*
X14837831Y-3251485D01*
X14864306Y-3315238D01*
X14893989Y-3386739D01*
X14924593Y-3460476D01*
X14953828Y-3530940D01*
X14954234Y-3531920D01*
X14984681Y-3604918D01*
X15008557Y-3661080D01*
X15026830Y-3702440D01*
X15040468Y-3731029D01*
X15050440Y-3748883D01*
X15057713Y-3758034D01*
X15063068Y-3760520D01*
X15073221Y-3756756D01*
X15099977Y-3746054D01*
X15141187Y-3729295D01*
X15194699Y-3707360D01*
X15258362Y-3681130D01*
X15330026Y-3651487D01*
X15399644Y-3622595D01*
X15477417Y-3589993D01*
X15549661Y-3559179D01*
X15614112Y-3531160D01*
X15668505Y-3506943D01*
X15710574Y-3487534D01*
X15738053Y-3473939D01*
X15748302Y-3467655D01*
X15760269Y-3448159D01*
X15775313Y-3412452D01*
X15792307Y-3364202D01*
X15810122Y-3307077D01*
X15827631Y-3244746D01*
X15843706Y-3180879D01*
X15857218Y-3119142D01*
X15860214Y-3103672D01*
X15873263Y-3012103D01*
X15881353Y-2907120D01*
X15884484Y-2795017D01*
X15884203Y-2777591D01*
X15899120Y-2777591D01*
X15899154Y-2898971D01*
X15899253Y-3014251D01*
X15899411Y-3121848D01*
X15899623Y-3220177D01*
X15899884Y-3307655D01*
X15900187Y-3382698D01*
X15900528Y-3443721D01*
X15900901Y-3489141D01*
X15901300Y-3517373D01*
X15901711Y-3526840D01*
X15909175Y-3519871D01*
X15929650Y-3499858D01*
X15961790Y-3468134D01*
X16004252Y-3426037D01*
X16055689Y-3374902D01*
X16114758Y-3316065D01*
X16180114Y-3250862D01*
X16250411Y-3180629D01*
X16277631Y-3153408D01*
X16650960Y-2779977D01*
X16275040Y-2404160D01*
X15899120Y-2028342D01*
X15899120Y-2777591D01*
X15884203Y-2777591D01*
X15882657Y-2682087D01*
X15875871Y-2574622D01*
X15864126Y-2478915D01*
X15860214Y-2456487D01*
X15850374Y-2409479D01*
X15837448Y-2355511D01*
X15822548Y-2298439D01*
X15806788Y-2242117D01*
X15791282Y-2190402D01*
X15777143Y-2147147D01*
X15765483Y-2116209D01*
X15757798Y-2101824D01*
X15752766Y-2109354D01*
X15741080Y-2133166D01*
X15723808Y-2170746D01*
X15702020Y-2219579D01*
X15676783Y-2277152D01*
X15649168Y-2340952D01*
X15620243Y-2408464D01*
X15591077Y-2477174D01*
X15562739Y-2544570D01*
X15536297Y-2608137D01*
X15512822Y-2665362D01*
X15493381Y-2713731D01*
X15479043Y-2750729D01*
X15470878Y-2773844D01*
X15469385Y-2780080D01*
X15473139Y-2791508D01*
X15483874Y-2819485D01*
X15500709Y-2861825D01*
X15522757Y-2916340D01*
X15549136Y-2980845D01*
X15578962Y-3053152D01*
X15608476Y-3124182D01*
X15640512Y-3201361D01*
X15669747Y-3272443D01*
X15695324Y-3335296D01*
X15716388Y-3387791D01*
X15732084Y-3427795D01*
X15741556Y-3453179D01*
X15744030Y-3461796D01*
X15739442Y-3453625D01*
X15728039Y-3428749D01*
X15710718Y-3389261D01*
X15688381Y-3337253D01*
X15661926Y-3274820D01*
X15632253Y-3204053D01*
X15603839Y-3135688D01*
X15571947Y-3059050D01*
X15542353Y-2988705D01*
X15515978Y-2926781D01*
X15493742Y-2875403D01*
X15476562Y-2836699D01*
X15465360Y-2812797D01*
X15461174Y-2805695D01*
X15456201Y-2814750D01*
X15444246Y-2840823D01*
X15426070Y-2882139D01*
X15402430Y-2936927D01*
X15374085Y-3003415D01*
X15341794Y-3079831D01*
X15306315Y-3164402D01*
X15268407Y-3255357D01*
X15258975Y-3278074D01*
X15220676Y-3370158D01*
X15184708Y-3456176D01*
X15151818Y-3534373D01*
X15122755Y-3602995D01*
X15098264Y-3660286D01*
X15079094Y-3704493D01*
X15065991Y-3733860D01*
X15059702Y-3746634D01*
X15059283Y-3747030D01*
X15062358Y-3737227D01*
X15072564Y-3710482D01*
X15089172Y-3668592D01*
X15111451Y-3613352D01*
X15138673Y-3546560D01*
X15170108Y-3470011D01*
X15205027Y-3385501D01*
X15242701Y-3294828D01*
X15250142Y-3276975D01*
X15288532Y-3184469D01*
X15324455Y-3097050D01*
X15357153Y-3016624D01*
X15385865Y-2945099D01*
X15409834Y-2884383D01*
X15428301Y-2836381D01*
X15440507Y-2803001D01*
X15445694Y-2786150D01*
X15445820Y-2785160D01*
X15442344Y-2771080D01*
X15431996Y-2741076D01*
X15415652Y-2697263D01*
X15394185Y-2641756D01*
X15368471Y-2576669D01*
X15339383Y-2504116D01*
X15307797Y-2426213D01*
X15274588Y-2345073D01*
X15240629Y-2262812D01*
X15206795Y-2181544D01*
X15173961Y-2103383D01*
X15143002Y-2030445D01*
X15114792Y-1964843D01*
X15090207Y-1908693D01*
X15070119Y-1864108D01*
X15055405Y-1833204D01*
X15046938Y-1818095D01*
X15045387Y-1817026D01*
X15039854Y-1828089D01*
X15027607Y-1855599D01*
X15009648Y-1897203D01*
X14986981Y-1950551D01*
X14960608Y-2013290D01*
X14931532Y-2083070D01*
X14918471Y-2114600D01*
X14887842Y-2188628D01*
X14858942Y-2258400D01*
X14832900Y-2321198D01*
X14810842Y-2374309D01*
X14793895Y-2415017D01*
X14783186Y-2440606D01*
X14781125Y-2445477D01*
X14763518Y-2486795D01*
X15102526Y-2627703D01*
X15180038Y-2660059D01*
X15251118Y-2689999D01*
X15313703Y-2716631D01*
X15365731Y-2739068D01*
X15405138Y-2756419D01*
X15429862Y-2767795D01*
X15437850Y-2772296D01*
X15427959Y-2769384D01*
X15401469Y-2759460D01*
X15360517Y-2743380D01*
X15307238Y-2722002D01*
X15243768Y-2696180D01*
X15172243Y-2666773D01*
X15101594Y-2637467D01*
X15024383Y-2605636D01*
X14953045Y-2576854D01*
X14889751Y-2551949D01*
X14836672Y-2531748D01*
X14795981Y-2517080D01*
X14769847Y-2508772D01*
X14760550Y-2507436D01*
X14753764Y-2519478D01*
X14740976Y-2546687D01*
X14723830Y-2585405D01*
X14703974Y-2631974D01*
X14697290Y-2648000D01*
X14642504Y-2780080D01*
X14628671Y-2780080D01*
X14629133Y-2779616D01*
X14547846Y-2698806D01*
X14466560Y-2617996D01*
X14466560Y-2777778D01*
X14453024Y-2777778D01*
X14451256Y-2724463D01*
X14430574Y-2642749D01*
X14393121Y-2566827D01*
X14376970Y-2546400D01*
X14393989Y-2546400D01*
X14420114Y-2596173D01*
X14435054Y-2626919D01*
X14445257Y-2652217D01*
X14447865Y-2662213D01*
X14449895Y-2664541D01*
X14452900Y-2649991D01*
X14453707Y-2643877D01*
X14453497Y-2617910D01*
X14442798Y-2596270D01*
X14425956Y-2577837D01*
X14393989Y-2546400D01*
X14376970Y-2546400D01*
X14340001Y-2499647D01*
X14272321Y-2444155D01*
X14268440Y-2441655D01*
X14190588Y-2403250D01*
X14109601Y-2383382D01*
X14028009Y-2381071D01*
X13948345Y-2395341D01*
X13873141Y-2425214D01*
X13804930Y-2469712D01*
X13746243Y-2527858D01*
X13699613Y-2598675D01*
X13669968Y-2672704D01*
X13655436Y-2756479D01*
X13643600Y-2756479D01*
X13643600Y-2642280D01*
X13654475Y-2642280D01*
X13655191Y-2678480D01*
X13668850Y-2641343D01*
X13683233Y-2607811D01*
X13699570Y-2576920D01*
X13700567Y-2575303D01*
X13718626Y-2546400D01*
X13686193Y-2576240D01*
X13663616Y-2601946D01*
X13654986Y-2628098D01*
X13654475Y-2642280D01*
X13643600Y-2642280D01*
X13643600Y-2617996D01*
X13481026Y-2779616D01*
X13467463Y-2779616D01*
X13412901Y-2648021D01*
X13392546Y-2599727D01*
X13374387Y-2558124D01*
X13360066Y-2526866D01*
X13351224Y-2509607D01*
X13349816Y-2507632D01*
X13338833Y-2509466D01*
X13311308Y-2518396D01*
X13269414Y-2533595D01*
X13215320Y-2554236D01*
X13151197Y-2579491D01*
X13079216Y-2608535D01*
X13008675Y-2637576D01*
X12931611Y-2669453D01*
X12860651Y-2698532D01*
X12797931Y-2723961D01*
X12745587Y-2744883D01*
X12705756Y-2760444D01*
X12680574Y-2769791D01*
X12672183Y-2772170D01*
X12680367Y-2767584D01*
X12705279Y-2756157D01*
X12744856Y-2738777D01*
X12797035Y-2716330D01*
X12859752Y-2689706D01*
X12930943Y-2659792D01*
X13007658Y-2627843D01*
X13321215Y-2497812D01*
X13368443Y-2497812D01*
X13372005Y-2517686D01*
X13383138Y-2550809D01*
X13402495Y-2599402D01*
X13408176Y-2612996D01*
X13427700Y-2659580D01*
X13444846Y-2700808D01*
X13457780Y-2732248D01*
X13464668Y-2749470D01*
X13464717Y-2749600D01*
X13469209Y-2752489D01*
X13477090Y-2743766D01*
X13489163Y-2721858D01*
X13506230Y-2685192D01*
X13529093Y-2632193D01*
X13549141Y-2584137D01*
X13572350Y-2526994D01*
X13592129Y-2476356D01*
X13607397Y-2435159D01*
X13617072Y-2406335D01*
X13620073Y-2392821D01*
X13619864Y-2392277D01*
X13609252Y-2393998D01*
X13584252Y-2402006D01*
X13549168Y-2414625D01*
X13508306Y-2430175D01*
X13465971Y-2446979D01*
X13426467Y-2463359D01*
X13394101Y-2477638D01*
X13373176Y-2488136D01*
X13371801Y-2488961D01*
X13368443Y-2497812D01*
X13321215Y-2497812D01*
X13346813Y-2487197D01*
X13329120Y-2445678D01*
X13320831Y-2425950D01*
X13305911Y-2390158D01*
X13285488Y-2341021D01*
X13260691Y-2281255D01*
X13232648Y-2213579D01*
X13202487Y-2140709D01*
X13191688Y-2114600D01*
X13161760Y-2042519D01*
X13134104Y-1976469D01*
X13109723Y-1918802D01*
X13089620Y-1871869D01*
X13074798Y-1838021D01*
X13066260Y-1819609D01*
X13064772Y-1817026D01*
X13059453Y-1824209D01*
X13047486Y-1848154D01*
X13029747Y-1886747D01*
X13007109Y-1937872D01*
X12980448Y-1999415D01*
X12950637Y-2069261D01*
X12918552Y-2145297D01*
X12885067Y-2225407D01*
X12851057Y-2307476D01*
X12817396Y-2389391D01*
X12784959Y-2469036D01*
X12754621Y-2544298D01*
X12727256Y-2613060D01*
X12703739Y-2673210D01*
X12684944Y-2722631D01*
X12671746Y-2759211D01*
X12665020Y-2780833D01*
X12664339Y-2785160D01*
X12668398Y-2799345D01*
X12679592Y-2830349D01*
X12697161Y-2876262D01*
X12720347Y-2935179D01*
X12748391Y-3005192D01*
X12780534Y-3084394D01*
X12816018Y-3170878D01*
X12854084Y-3262738D01*
X12860017Y-3276975D01*
X12898133Y-3368620D01*
X12933634Y-3454445D01*
X12965790Y-3532651D01*
X12993873Y-3601444D01*
X13017151Y-3659027D01*
X13034897Y-3703603D01*
X13046381Y-3733376D01*
X13050874Y-3746551D01*
X13050876Y-3747030D01*
X13046399Y-3738657D01*
X13034921Y-3713255D01*
X13017191Y-3672576D01*
X12993954Y-3618376D01*
X12965959Y-3552410D01*
X12933951Y-3476431D01*
X12898679Y-3392195D01*
X12860890Y-3301456D01*
X12851184Y-3278074D01*
X12812802Y-3185844D01*
X12776667Y-3099569D01*
X12743537Y-3021022D01*
X12714170Y-2951975D01*
X12689325Y-2894200D01*
X12669760Y-2849469D01*
X12656234Y-2819554D01*
X12649506Y-2806228D01*
X12648985Y-2805695D01*
X12643811Y-2814793D01*
X12631850Y-2840566D01*
X12614022Y-2880887D01*
X12591245Y-2933629D01*
X12564439Y-2996666D01*
X12534525Y-3067870D01*
X12506320Y-3135688D01*
X12474539Y-3212116D01*
X12445174Y-3282075D01*
X12419125Y-3343473D01*
X12397291Y-3394216D01*
X12380572Y-3432211D01*
X12369868Y-3455366D01*
X12366129Y-3461796D01*
X12369050Y-3451911D01*
X12378989Y-3425425D01*
X12395093Y-3384468D01*
X12416504Y-3331172D01*
X12442367Y-3267667D01*
X12471828Y-3196085D01*
X12501683Y-3124182D01*
X12533885Y-3046658D01*
X12563448Y-2974938D01*
X12589488Y-2911209D01*
X12611122Y-2857659D01*
X12627464Y-2816472D01*
X12637632Y-2789837D01*
X12640774Y-2780080D01*
X12636940Y-2766760D01*
X12626275Y-2738009D01*
X12609849Y-2696342D01*
X12588730Y-2644271D01*
X12563988Y-2584310D01*
X12536691Y-2518973D01*
X12507908Y-2450774D01*
X12478708Y-2382227D01*
X12450160Y-2315845D01*
X12423333Y-2254142D01*
X12399296Y-2199632D01*
X12379117Y-2154828D01*
X12363866Y-2122245D01*
X12354612Y-2104395D01*
X12352361Y-2101824D01*
X12344026Y-2117736D01*
X12332173Y-2149576D01*
X12317914Y-2193488D01*
X12302363Y-2245615D01*
X12286632Y-2302100D01*
X12271836Y-2359086D01*
X12259086Y-2412717D01*
X12249989Y-2456487D01*
X12236905Y-2548199D01*
X12228759Y-2653071D01*
X12225554Y-2764882D01*
X12211040Y-2764882D01*
X12211040Y-2028342D01*
X11835119Y-2404160D01*
X11459199Y-2779977D01*
X11449040Y-2779977D01*
X11449040Y-945948D01*
X11458271Y-945948D01*
X11459913Y-1856705D01*
X11461555Y-2767461D01*
X11836374Y-2392770D01*
X12211192Y-2018080D01*
X12211191Y-2017868D01*
X12221200Y-2017868D01*
X12222156Y-2282134D01*
X12223113Y-2546400D01*
X12242547Y-2441854D01*
X12254479Y-2385694D01*
X12270622Y-2320420D01*
X12288411Y-2256074D01*
X12298382Y-2223414D01*
X12338795Y-2112824D01*
X12349830Y-2087899D01*
X12369453Y-2087899D01*
X12373642Y-2100410D01*
X12384567Y-2128615D01*
X12401149Y-2169936D01*
X12422306Y-2221797D01*
X12446960Y-2281621D01*
X12474028Y-2346830D01*
X12502433Y-2414849D01*
X12531092Y-2483099D01*
X12558926Y-2549005D01*
X12584855Y-2609989D01*
X12607798Y-2663475D01*
X12626675Y-2706885D01*
X12640407Y-2737643D01*
X12647912Y-2753173D01*
X12648911Y-2754545D01*
X12653869Y-2745473D01*
X12665820Y-2719379D01*
X12684009Y-2678026D01*
X12707681Y-2623177D01*
X12736083Y-2556595D01*
X12768459Y-2480042D01*
X12804054Y-2395282D01*
X12842113Y-2304077D01*
X12853302Y-2277160D01*
X12891651Y-2184543D01*
X12927316Y-2097864D01*
X12959592Y-2018879D01*
X12987771Y-1949344D01*
X13011146Y-1891016D01*
X13029011Y-1845650D01*
X13040659Y-1815002D01*
X13045381Y-1800829D01*
X13045350Y-1800052D01*
X13032774Y-1804101D01*
X13004541Y-1815011D01*
X12963197Y-1831698D01*
X12911292Y-1853076D01*
X12851372Y-1878061D01*
X12785985Y-1905568D01*
X12717678Y-1934512D01*
X12648999Y-1963808D01*
X12582496Y-1992370D01*
X12520715Y-2019115D01*
X12466205Y-2042958D01*
X12421512Y-2062812D01*
X12389185Y-2077594D01*
X12371771Y-2086218D01*
X12369453Y-2087899D01*
X12349830Y-2087899D01*
X12356660Y-2072475D01*
X12363787Y-2072475D01*
X12462673Y-2031053D01*
X12500001Y-2015455D01*
X12552174Y-1993707D01*
X12615266Y-1967443D01*
X12685354Y-1938296D01*
X12758512Y-1907900D01*
X12809855Y-1886584D01*
X13036461Y-1792538D01*
X13065596Y-1792538D01*
X13067067Y-1795607D01*
X13072165Y-1806840D01*
X13084115Y-1834667D01*
X13102001Y-1876907D01*
X13124904Y-1931378D01*
X13151908Y-1995898D01*
X13182094Y-2068286D01*
X13211938Y-2140077D01*
X13244129Y-2217497D01*
X13273884Y-2288812D01*
X13300304Y-2351884D01*
X13322491Y-2404579D01*
X13339546Y-2444763D01*
X13350569Y-2470300D01*
X13354624Y-2479037D01*
X13364743Y-2476704D01*
X13390036Y-2467700D01*
X13426999Y-2453353D01*
X13472126Y-2434994D01*
X13486076Y-2429177D01*
X13542756Y-2406168D01*
X13583208Y-2391611D01*
X13609398Y-2384906D01*
X13623292Y-2385453D01*
X13625167Y-2386743D01*
X13627077Y-2397123D01*
X13622403Y-2419348D01*
X13610596Y-2455105D01*
X13591109Y-2506081D01*
X13567697Y-2563602D01*
X13545060Y-2618362D01*
X13524948Y-2667261D01*
X13508736Y-2706932D01*
X13497802Y-2734009D01*
X13493716Y-2744520D01*
X13498153Y-2744206D01*
X13514258Y-2731700D01*
X13539381Y-2709230D01*
X13565993Y-2683814D01*
X13643600Y-2607868D01*
X13643600Y-2498993D01*
X13642536Y-2445103D01*
X13639473Y-2406788D01*
X13634601Y-2386024D01*
X13632355Y-2383169D01*
X13630013Y-2378760D01*
X13653760Y-2378760D01*
X13653760Y-2596836D01*
X13760440Y-2490520D01*
X13797820Y-2453093D01*
X13807177Y-2443626D01*
X13821400Y-2443626D01*
X13850303Y-2425567D01*
X13880442Y-2409371D01*
X13914291Y-2394615D01*
X13916343Y-2393850D01*
X13953480Y-2380191D01*
X14156680Y-2380191D01*
X14194904Y-2394227D01*
X14226146Y-2407616D01*
X14252744Y-2422086D01*
X14255585Y-2423991D01*
X14276308Y-2437224D01*
X14281681Y-2437142D01*
X14271705Y-2423744D01*
X14258280Y-2409240D01*
X14231041Y-2387174D01*
X14201913Y-2379605D01*
X14192879Y-2379475D01*
X14156680Y-2380191D01*
X13953480Y-2380191D01*
X13917280Y-2379475D01*
X13887981Y-2383316D01*
X13863210Y-2399143D01*
X13851240Y-2411193D01*
X13821400Y-2443626D01*
X13807177Y-2443626D01*
X13829480Y-2421063D01*
X13852907Y-2396998D01*
X13865587Y-2383468D01*
X13867120Y-2381481D01*
X13857659Y-2380364D01*
X13832077Y-2379469D01*
X13794570Y-2378903D01*
X13760440Y-2378760D01*
X14238323Y-2378760D01*
X14344640Y-2485440D01*
X14382066Y-2522820D01*
X14414096Y-2554480D01*
X14438161Y-2577907D01*
X14451691Y-2590587D01*
X14453678Y-2592120D01*
X14454795Y-2582659D01*
X14455690Y-2557077D01*
X14456256Y-2519570D01*
X14456400Y-2485440D01*
X14456400Y-2378760D01*
X14238323Y-2378760D01*
X13760440Y-2378760D01*
X13653760Y-2378760D01*
X13630013Y-2378760D01*
X13627274Y-2373604D01*
X13631051Y-2369870D01*
X13636933Y-2360636D01*
X13660197Y-2360636D01*
X13671767Y-2363890D01*
X13699245Y-2366501D01*
X13738224Y-2368162D01*
X13773993Y-2368600D01*
X13882868Y-2368600D01*
X13892996Y-2368600D01*
X14052778Y-2368600D01*
X14107166Y-2368433D01*
X14153608Y-2367972D01*
X14188674Y-2367278D01*
X14208936Y-2366409D01*
X14212560Y-2365821D01*
X14205814Y-2357995D01*
X14187533Y-2338917D01*
X14160647Y-2311604D01*
X14133588Y-2284534D01*
X14064851Y-2216200D01*
X14081562Y-2216200D01*
X14085873Y-2222860D01*
X14101928Y-2240887D01*
X14127031Y-2267348D01*
X14151600Y-2292400D01*
X14227291Y-2368600D01*
X14336166Y-2368600D01*
X14381081Y-2367900D01*
X14417955Y-2366008D01*
X14442380Y-2363232D01*
X14449962Y-2360636D01*
X14447677Y-2349701D01*
X14439110Y-2324218D01*
X14425909Y-2288349D01*
X14409723Y-2246254D01*
X14392201Y-2202095D01*
X14374992Y-2160032D01*
X14359744Y-2124226D01*
X14348107Y-2098839D01*
X14342048Y-2088302D01*
X14331756Y-2090515D01*
X14306506Y-2099391D01*
X14270000Y-2113546D01*
X14225937Y-2131592D01*
X14222008Y-2133242D01*
X14175453Y-2152755D01*
X14134253Y-2169894D01*
X14102845Y-2182822D01*
X14085665Y-2189701D01*
X14085560Y-2189741D01*
X14082779Y-2194201D01*
X14091511Y-2202073D01*
X14113308Y-2214146D01*
X14149726Y-2231209D01*
X14202318Y-2254054D01*
X14258280Y-2277520D01*
X14315380Y-2301449D01*
X14364727Y-2322567D01*
X14403747Y-2339734D01*
X14429871Y-2351815D01*
X14440527Y-2357672D01*
X14440331Y-2358045D01*
X14427826Y-2354431D01*
X14399789Y-2344150D01*
X14359408Y-2328441D01*
X14309869Y-2308541D01*
X14258280Y-2287320D01*
X14203508Y-2264671D01*
X14155376Y-2245002D01*
X14116951Y-2229545D01*
X14091299Y-2219537D01*
X14081562Y-2216200D01*
X14064851Y-2216200D01*
X14054616Y-2206026D01*
X13892996Y-2368600D01*
X13882868Y-2368600D01*
X13958560Y-2292400D01*
X13988926Y-2261332D01*
X14012380Y-2236373D01*
X14026228Y-2220455D01*
X14028597Y-2216200D01*
X14017850Y-2219919D01*
X13991429Y-2230253D01*
X13952400Y-2245969D01*
X13903830Y-2265831D01*
X13851880Y-2287320D01*
X13796678Y-2310009D01*
X13747664Y-2329662D01*
X13708024Y-2345040D01*
X13680948Y-2354904D01*
X13669828Y-2358045D01*
X13675380Y-2354262D01*
X13697165Y-2343916D01*
X13732612Y-2328145D01*
X13779152Y-2308086D01*
X13834211Y-2284875D01*
X13851880Y-2277520D01*
X13918817Y-2249375D01*
X13968312Y-2227655D01*
X14001919Y-2211570D01*
X14021193Y-2200330D01*
X14027687Y-2193146D01*
X14024600Y-2189741D01*
X14007624Y-2182948D01*
X13976365Y-2170085D01*
X13935260Y-2152987D01*
X13888744Y-2133492D01*
X13888151Y-2133242D01*
X13843622Y-2114931D01*
X13806338Y-2100397D01*
X13780000Y-2091024D01*
X13768309Y-2088197D01*
X13768111Y-2088302D01*
X13761185Y-2100610D01*
X13749151Y-2127119D01*
X13733656Y-2163667D01*
X13716350Y-2206093D01*
X13698882Y-2250236D01*
X13682900Y-2291936D01*
X13670052Y-2327031D01*
X13661989Y-2351361D01*
X13660197Y-2360636D01*
X13636933Y-2360636D01*
X13637937Y-2359061D01*
X13650399Y-2333783D01*
X13666773Y-2297964D01*
X13685396Y-2255531D01*
X13704606Y-2210413D01*
X13722739Y-2166537D01*
X13738132Y-2127831D01*
X13749124Y-2098224D01*
X13754050Y-2081643D01*
X13753958Y-2079546D01*
X13744051Y-2074986D01*
X13717501Y-2063555D01*
X13676445Y-2046151D01*
X13623015Y-2023671D01*
X13559347Y-1997014D01*
X13487574Y-1967078D01*
X13415077Y-1936938D01*
X13337370Y-1904631D01*
X13265521Y-1874661D01*
X13201710Y-1847946D01*
X13148121Y-1825403D01*
X13106933Y-1807950D01*
X13080330Y-1796505D01*
X13070607Y-1792067D01*
X13065596Y-1792538D01*
X13036461Y-1792538D01*
X13058150Y-1783537D01*
X13061689Y-1775049D01*
X13084140Y-1775049D01*
X13085488Y-1783133D01*
X13086592Y-1784537D01*
X13099057Y-1791420D01*
X13127924Y-1804926D01*
X13170780Y-1824001D01*
X13225213Y-1847594D01*
X13288809Y-1874651D01*
X13359155Y-1904119D01*
X13389600Y-1916741D01*
X13463643Y-1947364D01*
X13533440Y-1976261D01*
X13596272Y-2002307D01*
X13649421Y-2024374D01*
X13690170Y-2041333D01*
X13715801Y-2052057D01*
X13720678Y-2054120D01*
X13762197Y-2071813D01*
X13902843Y-1732658D01*
X13935138Y-1655116D01*
X13965020Y-1584008D01*
X13991603Y-1521396D01*
X14013998Y-1469346D01*
X14031318Y-1429919D01*
X14042674Y-1405181D01*
X14047170Y-1397183D01*
X14044265Y-1407076D01*
X14034362Y-1433575D01*
X14018316Y-1474542D01*
X13996981Y-1527842D01*
X13971213Y-1591338D01*
X13941865Y-1662894D01*
X13912576Y-1733675D01*
X13880803Y-1810922D01*
X13852064Y-1882288D01*
X13827188Y-1945601D01*
X13807001Y-1998692D01*
X13792329Y-2039389D01*
X13784001Y-2065522D01*
X13782632Y-2074816D01*
X13794617Y-2081548D01*
X13821774Y-2094286D01*
X13860450Y-2111391D01*
X13906992Y-2131219D01*
X13923021Y-2137901D01*
X14055080Y-2192655D01*
X14187160Y-2137869D01*
X14235454Y-2117506D01*
X14277055Y-2099346D01*
X14308311Y-2085027D01*
X14318773Y-2079671D01*
X14356201Y-2079671D01*
X14358258Y-2089959D01*
X14367039Y-2114830D01*
X14380882Y-2150359D01*
X14398124Y-2192620D01*
X14417103Y-2237690D01*
X14436156Y-2281642D01*
X14453620Y-2320551D01*
X14467835Y-2350492D01*
X14477136Y-2367540D01*
X14479108Y-2369870D01*
X14482336Y-2379199D01*
X14477804Y-2383169D01*
X14472301Y-2396865D01*
X14468537Y-2428823D01*
X14466707Y-2477042D01*
X14466560Y-2498500D01*
X14466560Y-2606882D01*
X14539670Y-2680483D01*
X14570347Y-2710809D01*
X14595313Y-2734441D01*
X14611445Y-2748483D01*
X14615826Y-2751040D01*
X14613085Y-2741166D01*
X14603630Y-2715528D01*
X14588622Y-2677096D01*
X14569220Y-2628837D01*
X14546583Y-2573720D01*
X14546289Y-2573012D01*
X14518911Y-2505726D01*
X14499624Y-2455154D01*
X14487877Y-2419619D01*
X14483116Y-2397444D01*
X14483948Y-2392225D01*
X14490347Y-2392225D01*
X14492166Y-2403039D01*
X14500790Y-2429612D01*
X14515134Y-2468977D01*
X14534113Y-2518166D01*
X14556642Y-2574213D01*
X14559260Y-2580596D01*
X14582544Y-2636550D01*
X14603312Y-2685135D01*
X14620330Y-2723569D01*
X14632363Y-2749070D01*
X14638177Y-2758858D01*
X14638404Y-2758839D01*
X14643647Y-2748464D01*
X14655118Y-2722848D01*
X14671271Y-2685525D01*
X14690564Y-2640029D01*
X14696601Y-2625630D01*
X14719389Y-2569488D01*
X14733835Y-2529638D01*
X14740534Y-2504124D01*
X14740081Y-2490990D01*
X14738205Y-2488867D01*
X14718851Y-2478929D01*
X14687573Y-2465015D01*
X14648678Y-2448804D01*
X14606473Y-2431974D01*
X14565263Y-2416205D01*
X14529355Y-2403177D01*
X14503057Y-2394568D01*
X14490675Y-2392057D01*
X14490347Y-2392225D01*
X14483948Y-2392225D01*
X14484789Y-2386954D01*
X14484941Y-2386794D01*
X14495783Y-2384359D01*
X14518186Y-2388930D01*
X14554167Y-2401123D01*
X14605745Y-2421551D01*
X14624083Y-2429177D01*
X14670905Y-2448442D01*
X14710567Y-2464075D01*
X14739563Y-2474747D01*
X14754390Y-2479128D01*
X14755535Y-2479037D01*
X14760113Y-2469110D01*
X14771561Y-2442543D01*
X14788981Y-2401470D01*
X14811475Y-2348025D01*
X14838142Y-2284344D01*
X14868085Y-2212562D01*
X14898221Y-2140077D01*
X14930481Y-2062462D01*
X14960353Y-1990782D01*
X14986930Y-1927203D01*
X15009302Y-1873893D01*
X15026559Y-1833017D01*
X15037793Y-1806742D01*
X15040855Y-1799937D01*
X15064809Y-1799937D01*
X15067363Y-1808958D01*
X15077050Y-1834970D01*
X15093162Y-1876215D01*
X15114993Y-1930937D01*
X15141835Y-1997378D01*
X15172982Y-2073783D01*
X15207726Y-2158394D01*
X15245361Y-2249455D01*
X15256857Y-2277160D01*
X15295480Y-2369878D01*
X15331854Y-2456653D01*
X15365224Y-2535724D01*
X15394835Y-2605327D01*
X15419932Y-2663698D01*
X15439760Y-2709075D01*
X15453565Y-2739696D01*
X15460591Y-2753797D01*
X15461248Y-2754545D01*
X15466401Y-2745465D01*
X15478337Y-2719709D01*
X15496135Y-2679403D01*
X15518878Y-2626677D01*
X15545645Y-2563658D01*
X15575518Y-2492474D01*
X15603546Y-2425011D01*
X15635249Y-2348078D01*
X15664301Y-2277054D01*
X15689822Y-2214129D01*
X15710933Y-2161493D01*
X15726754Y-2121337D01*
X15736406Y-2095852D01*
X15739101Y-2087326D01*
X15730028Y-2082148D01*
X15704751Y-2070258D01*
X15665827Y-2052747D01*
X15615815Y-2030704D01*
X15557272Y-2005220D01*
X15492757Y-1977385D01*
X15424828Y-1948290D01*
X15356042Y-1919024D01*
X15288958Y-1890677D01*
X15226133Y-1864341D01*
X15170126Y-1841105D01*
X15123495Y-1822060D01*
X15088797Y-1808295D01*
X15068591Y-1800902D01*
X15064809Y-1799937D01*
X15040855Y-1799937D01*
X15042034Y-1797318D01*
X15036428Y-1796650D01*
X15017044Y-1802941D01*
X14997959Y-1810657D01*
X14976448Y-1819753D01*
X14938932Y-1835483D01*
X14888176Y-1856692D01*
X14826942Y-1882227D01*
X14757996Y-1910935D01*
X14684102Y-1941663D01*
X14654547Y-1953942D01*
X14582109Y-1984085D01*
X14515900Y-2011742D01*
X14458201Y-2035953D01*
X14411294Y-2055756D01*
X14377458Y-2070189D01*
X14358974Y-2078293D01*
X14356201Y-2079671D01*
X14318773Y-2079671D01*
X14325571Y-2076191D01*
X14327549Y-2074783D01*
X14325709Y-2063808D01*
X14316775Y-2036291D01*
X14301572Y-1994403D01*
X14280929Y-1940314D01*
X14255671Y-1876196D01*
X14226626Y-1804219D01*
X14197583Y-1733675D01*
X14165706Y-1656611D01*
X14136627Y-1585651D01*
X14111198Y-1522931D01*
X14090276Y-1470587D01*
X14074715Y-1430756D01*
X14065368Y-1405574D01*
X14062989Y-1397183D01*
X14067575Y-1405367D01*
X14079002Y-1430278D01*
X14096382Y-1469854D01*
X14118827Y-1522031D01*
X14145450Y-1584744D01*
X14175361Y-1655929D01*
X14207265Y-1732534D01*
X14347859Y-2071565D01*
X14475789Y-2018391D01*
X14526362Y-1997386D01*
X14590192Y-1970899D01*
X14661759Y-1941219D01*
X14735545Y-1910635D01*
X14806031Y-1881434D01*
X14806920Y-1881066D01*
X14867502Y-1855670D01*
X14922147Y-1832179D01*
X14967898Y-1811912D01*
X15001799Y-1796188D01*
X15020892Y-1786325D01*
X15023567Y-1784467D01*
X15025965Y-1778184D01*
X15024789Y-1765578D01*
X15019426Y-1744960D01*
X15009265Y-1714643D01*
X14993693Y-1672937D01*
X14972098Y-1618155D01*
X14943866Y-1548608D01*
X14908386Y-1462607D01*
X14895997Y-1432769D01*
X14863479Y-1355059D01*
X14833185Y-1283659D01*
X14806033Y-1220657D01*
X14782939Y-1168139D01*
X14764824Y-1128194D01*
X14752603Y-1102910D01*
X14747226Y-1094367D01*
X14734793Y-1098509D01*
X14706654Y-1109400D01*
X14665387Y-1125959D01*
X14613568Y-1147104D01*
X14553776Y-1171756D01*
X14488588Y-1198831D01*
X14420580Y-1227250D01*
X14352331Y-1255931D01*
X14286417Y-1283792D01*
X14225416Y-1309753D01*
X14171905Y-1332732D01*
X14128462Y-1351648D01*
X14097663Y-1365420D01*
X14082087Y-1372967D01*
X14080695Y-1373985D01*
X14089750Y-1378958D01*
X14115823Y-1390913D01*
X14157139Y-1409089D01*
X14211927Y-1432729D01*
X14278415Y-1461074D01*
X14354831Y-1493365D01*
X14439402Y-1528844D01*
X14530357Y-1566752D01*
X14553074Y-1576184D01*
X14645158Y-1614483D01*
X14731176Y-1650451D01*
X14809373Y-1683341D01*
X14877995Y-1712404D01*
X14935286Y-1736895D01*
X14979493Y-1756065D01*
X15008860Y-1769168D01*
X15021634Y-1775457D01*
X15022030Y-1775876D01*
X15012225Y-1772805D01*
X14985476Y-1762610D01*
X14943579Y-1746020D01*
X14888330Y-1723765D01*
X14821528Y-1696572D01*
X14744967Y-1665170D01*
X14660446Y-1630288D01*
X14569762Y-1592655D01*
X14551975Y-1585251D01*
X14459575Y-1546888D01*
X14372380Y-1510921D01*
X14292281Y-1478114D01*
X14221170Y-1449230D01*
X14160939Y-1425033D01*
X14113478Y-1406288D01*
X14080679Y-1393757D01*
X14064435Y-1388205D01*
X14063521Y-1388018D01*
X14050052Y-1391245D01*
X14019727Y-1401627D01*
X13974417Y-1418434D01*
X13915993Y-1440934D01*
X13846326Y-1468394D01*
X13767287Y-1500084D01*
X13680747Y-1535271D01*
X13588577Y-1573225D01*
X13566661Y-1582317D01*
X13474146Y-1620654D01*
X13387441Y-1656390D01*
X13308328Y-1688805D01*
X13238588Y-1717179D01*
X13180003Y-1740789D01*
X13134355Y-1758917D01*
X13103425Y-1770839D01*
X13088995Y-1775837D01*
X13088165Y-1775911D01*
X13096530Y-1771427D01*
X13121926Y-1759944D01*
X13162598Y-1742207D01*
X13216793Y-1718966D01*
X13282754Y-1690966D01*
X13358729Y-1658955D01*
X13442962Y-1623681D01*
X13533700Y-1585891D01*
X13557085Y-1576184D01*
X13649318Y-1537802D01*
X13735599Y-1501666D01*
X13814153Y-1468535D01*
X13883211Y-1439168D01*
X13940997Y-1414323D01*
X13985741Y-1394758D01*
X14015669Y-1381233D01*
X14029009Y-1374505D01*
X14029545Y-1373985D01*
X14020551Y-1369148D01*
X13995339Y-1357670D01*
X13956484Y-1340631D01*
X13906564Y-1319111D01*
X13848156Y-1294191D01*
X13783837Y-1266952D01*
X13716182Y-1238474D01*
X13647770Y-1209837D01*
X13581176Y-1182122D01*
X13518978Y-1156410D01*
X13463752Y-1133780D01*
X13418075Y-1115313D01*
X13384524Y-1102091D01*
X13365676Y-1095193D01*
X13362895Y-1094453D01*
X13357368Y-1103284D01*
X13345043Y-1128827D01*
X13326839Y-1168994D01*
X13303673Y-1221699D01*
X13276462Y-1284856D01*
X13246125Y-1356376D01*
X13214162Y-1432769D01*
X13176352Y-1524114D01*
X13145977Y-1598491D01*
X13122422Y-1657591D01*
X13105074Y-1703106D01*
X13093320Y-1736727D01*
X13086546Y-1760144D01*
X13084140Y-1775049D01*
X13061689Y-1775049D01*
X13202007Y-1438528D01*
X13234624Y-1360046D01*
X13264504Y-1287645D01*
X13290800Y-1223420D01*
X13312664Y-1169465D01*
X13329247Y-1127874D01*
X13339700Y-1100742D01*
X13343176Y-1090162D01*
X13343156Y-1090110D01*
X13332773Y-1092261D01*
X13308250Y-1103139D01*
X13272838Y-1120957D01*
X13229787Y-1143931D01*
X13182348Y-1170277D01*
X13133771Y-1198211D01*
X13087308Y-1225946D01*
X13046208Y-1251698D01*
X13032799Y-1260509D01*
X12879427Y-1374770D01*
X12740897Y-1502589D01*
X12617774Y-1643406D01*
X12542896Y-1746663D01*
X12497381Y-1817348D01*
X12454375Y-1889299D01*
X12416798Y-1957363D01*
X12387572Y-2016386D01*
X12379370Y-2035117D01*
X12363787Y-2072475D01*
X12356660Y-2072475D01*
X12390255Y-1996600D01*
X12448841Y-1882844D01*
X12510630Y-1779663D01*
X12519875Y-1765684D01*
X12546045Y-1726152D01*
X12567438Y-1692836D01*
X12581821Y-1669288D01*
X12586960Y-1659110D01*
X12580116Y-1664166D01*
X12560850Y-1681813D01*
X12531057Y-1710224D01*
X12492635Y-1747575D01*
X12447480Y-1792038D01*
X12404080Y-1835200D01*
X12221200Y-2017868D01*
X12211191Y-2017868D01*
X12205960Y-951280D01*
X11832115Y-948614D01*
X11493609Y-946200D01*
X12221200Y-946200D01*
X12221200Y-2007708D01*
X12404080Y-1825040D01*
X12453527Y-1775976D01*
X12497905Y-1732572D01*
X12535318Y-1696627D01*
X12563875Y-1669941D01*
X12581683Y-1654313D01*
X12586960Y-1651129D01*
X12593154Y-1653045D01*
X12602088Y-1647332D01*
X12612644Y-1633841D01*
X12612797Y-1627628D01*
X12618315Y-1618637D01*
X12636267Y-1597655D01*
X12664579Y-1566920D01*
X12701179Y-1528669D01*
X12743994Y-1485139D01*
X12755149Y-1473971D01*
X12799210Y-1430341D01*
X12837980Y-1392623D01*
X12869348Y-1362816D01*
X12891201Y-1342919D01*
X12901426Y-1334933D01*
X12901920Y-1335064D01*
X12909427Y-1333075D01*
X12929451Y-1321206D01*
X12958241Y-1301757D01*
X12970500Y-1293002D01*
X13131060Y-1188368D01*
X13299539Y-1100859D01*
X13358526Y-1077350D01*
X13376834Y-1077350D01*
X13384098Y-1082724D01*
X13408148Y-1094884D01*
X13446961Y-1112928D01*
X13498513Y-1135953D01*
X13560781Y-1163056D01*
X13631743Y-1193334D01*
X13709375Y-1225883D01*
X13712114Y-1227022D01*
X14055080Y-1369538D01*
X14182080Y-1316808D01*
X14230922Y-1296523D01*
X14293397Y-1270565D01*
X14364376Y-1241067D01*
X14438730Y-1210160D01*
X14511331Y-1179976D01*
X14525031Y-1174279D01*
X14585991Y-1148504D01*
X14639625Y-1125005D01*
X14683425Y-1104950D01*
X14713192Y-1090338D01*
X14766776Y-1090338D01*
X14769982Y-1100104D01*
X14780198Y-1126514D01*
X14796573Y-1167476D01*
X14818257Y-1220894D01*
X14844400Y-1284676D01*
X14874151Y-1356726D01*
X14906661Y-1434952D01*
X14907980Y-1438115D01*
X15051665Y-1782711D01*
X15396652Y-1926839D01*
X15475112Y-1959516D01*
X15547482Y-1989462D01*
X15611670Y-2015827D01*
X15665584Y-2037759D01*
X15707134Y-2054408D01*
X15734226Y-2064922D01*
X15744770Y-2068453D01*
X15744821Y-2068434D01*
X15741982Y-2058897D01*
X15731735Y-2035381D01*
X15715925Y-2001999D01*
X15705582Y-1981031D01*
X15608375Y-1807900D01*
X15508260Y-1665314D01*
X15525205Y-1665314D01*
X15527001Y-1672329D01*
X15540983Y-1692645D01*
X15550500Y-1705191D01*
X15617148Y-1801952D01*
X15680736Y-1913966D01*
X15739101Y-2036188D01*
X15790078Y-2163570D01*
X15831503Y-2291066D01*
X15861211Y-2413630D01*
X15866344Y-2441675D01*
X15883880Y-2544591D01*
X15886596Y-2281614D01*
X15889312Y-2018638D01*
X15888469Y-2017794D01*
X15898936Y-2017794D01*
X16272356Y-2391317D01*
X16344125Y-2463080D01*
X16411411Y-2530314D01*
X16472875Y-2591684D01*
X16527179Y-2645853D01*
X16572982Y-2691488D01*
X16608946Y-2727254D01*
X16633730Y-2751815D01*
X16645997Y-2763837D01*
X16647096Y-2764840D01*
X16647310Y-2754919D01*
X16647552Y-2726116D01*
X16647817Y-2679869D01*
X16648101Y-2617615D01*
X16648399Y-2540792D01*
X16648705Y-2450837D01*
X16649015Y-2349189D01*
X16649324Y-2237285D01*
X16649627Y-2116562D01*
X16649919Y-1988458D01*
X16650193Y-1855394D01*
X16651972Y-945948D01*
X15904200Y-951280D01*
X15898936Y-2017794D01*
X15888469Y-2017794D01*
X15709272Y-1838389D01*
X15645740Y-1775201D01*
X15595861Y-1726545D01*
X15559341Y-1692177D01*
X15535887Y-1671848D01*
X15525205Y-1665314D01*
X15508260Y-1665314D01*
X15497064Y-1649369D01*
X15371449Y-1505219D01*
X15231330Y-1375231D01*
X15076509Y-1259187D01*
X15002535Y-1211792D01*
X14967136Y-1191002D01*
X14926042Y-1168102D01*
X14883031Y-1145040D01*
X14841884Y-1123762D01*
X14806380Y-1106217D01*
X14780301Y-1094351D01*
X14767424Y-1090112D01*
X14766776Y-1090338D01*
X14713192Y-1090338D01*
X14714883Y-1089508D01*
X14731488Y-1079846D01*
X14733311Y-1077337D01*
X14717407Y-1069011D01*
X14685575Y-1057165D01*
X14641673Y-1042912D01*
X14589557Y-1027366D01*
X14533084Y-1011640D01*
X14476112Y-996847D01*
X14422498Y-984099D01*
X14378672Y-974989D01*
X14286960Y-961905D01*
X14182088Y-953759D01*
X14070277Y-950554D01*
X13957750Y-952291D01*
X13850729Y-958973D01*
X13755435Y-970601D01*
X13731487Y-974784D01*
X13684428Y-984687D01*
X13630434Y-997664D01*
X13573356Y-1012601D01*
X13517043Y-1028385D01*
X13465347Y-1043903D01*
X13422118Y-1058041D01*
X13391207Y-1069685D01*
X13376834Y-1077350D01*
X13358526Y-1077350D01*
X13473766Y-1031422D01*
X13651567Y-981006D01*
X13716322Y-967641D01*
X13821400Y-948113D01*
X14288760Y-948113D01*
X14393837Y-967641D01*
X14572397Y-1010946D01*
X14748167Y-1073614D01*
X14918975Y-1154697D01*
X15082650Y-1253248D01*
X15139660Y-1293002D01*
X15170765Y-1314696D01*
X15194506Y-1329669D01*
X15207134Y-1335623D01*
X15208240Y-1335064D01*
X15215037Y-1339569D01*
X15234022Y-1356513D01*
X15263084Y-1383899D01*
X15300111Y-1419727D01*
X15342992Y-1462001D01*
X15355202Y-1474162D01*
X15399196Y-1518509D01*
X15437480Y-1557927D01*
X15467990Y-1590223D01*
X15488664Y-1613204D01*
X15497440Y-1624678D01*
X15497530Y-1625496D01*
X15498511Y-1635721D01*
X15508783Y-1647939D01*
X15520369Y-1653429D01*
X15522477Y-1652766D01*
X15531311Y-1658428D01*
X15552380Y-1676677D01*
X15583666Y-1705617D01*
X15623150Y-1743354D01*
X15668814Y-1787993D01*
X15706637Y-1825598D01*
X15755488Y-1874406D01*
X15799389Y-1918071D01*
X15836368Y-1954649D01*
X15864458Y-1982198D01*
X15881688Y-1998775D01*
X15886311Y-2002840D01*
X15886819Y-1992994D01*
X15887296Y-1964715D01*
X15887731Y-1919888D01*
X15888115Y-1860400D01*
X15888439Y-1788138D01*
X15888693Y-1704986D01*
X15888867Y-1612833D01*
X15888952Y-1513564D01*
X15888960Y-1474520D01*
X15888960Y-946200D01*
X15358200Y-946200D01*
X14827440Y-946199D01*
X15020380Y-1141780D01*
X15213319Y-1337360D01*
X14816889Y-946200D01*
X14552824Y-947156D01*
X14288760Y-948113D01*
X13821400Y-948113D01*
X13293270Y-946199D01*
X13095055Y-1141780D01*
X12896840Y-1337360D01*
X13089779Y-1141780D01*
X13282719Y-946199D01*
X12751959Y-946200D01*
X12221200Y-946200D01*
X11493609Y-946200D01*
X11458271Y-945948D01*
X11449040Y-945948D01*
X11449040Y-184200D01*
X11459200Y-184200D01*
X11459200Y-936040D01*
X12211040Y-936040D01*
X12211040Y-552882D01*
X12221200Y-552882D01*
X12221380Y-637618D01*
X12221892Y-715883D01*
X12222695Y-785366D01*
X12223747Y-843758D01*
X12225007Y-888747D01*
X12226433Y-918023D01*
X12227973Y-929266D01*
X12239148Y-930568D01*
X12268726Y-931787D01*
X12314790Y-932900D01*
X12375423Y-933883D01*
X12448708Y-934710D01*
X12532728Y-935359D01*
X12625566Y-935804D01*
X12725305Y-936021D01*
X12763964Y-936040D01*
X13293182Y-936040D01*
X13303342Y-936040D01*
X14052591Y-936040D01*
X14173971Y-936005D01*
X14289251Y-935906D01*
X14396848Y-935748D01*
X14495177Y-935536D01*
X14582655Y-935275D01*
X14657698Y-934972D01*
X14718721Y-934631D01*
X14764141Y-934258D01*
X14792373Y-933859D01*
X14801840Y-933448D01*
X14794871Y-925984D01*
X14774858Y-905509D01*
X14743134Y-873369D01*
X14701037Y-830907D01*
X14649902Y-779470D01*
X14591065Y-720401D01*
X14525862Y-655045D01*
X14455629Y-584748D01*
X14428408Y-557528D01*
X14057334Y-186555D01*
X14067698Y-186555D01*
X14442389Y-561374D01*
X14817080Y-936192D01*
X15883880Y-930960D01*
X15886545Y-557115D01*
X15889204Y-184200D01*
X15899120Y-184200D01*
X15899120Y-936040D01*
X16650960Y-936040D01*
X16650960Y-184200D01*
X15899120Y-184200D01*
X15889204Y-184200D01*
X15889211Y-183271D01*
X14978454Y-184913D01*
X14067698Y-186555D01*
X14057334Y-186555D01*
X14054977Y-184199D01*
X13679160Y-560119D01*
X13303342Y-936040D01*
X13293182Y-936040D01*
X13667822Y-561297D01*
X14042461Y-186555D01*
X13131830Y-184914D01*
X12221200Y-183272D01*
X12221200Y-552882D01*
X12211040Y-552882D01*
X12211040Y-184200D01*
X11459200Y-184200D01*
X11449040Y-184200D01*
X11449040Y-174040D01*
X16661120Y-174040D01*
X16661120Y-5386120D01*
D14*
%TO.C,J1*%
X9300000Y-7887500D02*
X9300000Y-8337500D01*
X9300000Y-7887500D02*
X9750000Y-7887500D01*
X14900000Y-8437500D02*
X14450000Y-8437500D01*
X14900000Y-10287500D02*
X14900000Y-8437500D01*
X7100000Y-12837500D02*
X7100000Y-12587500D01*
X14900000Y-12837500D02*
X14900000Y-12587500D01*
X7100000Y-10287500D02*
X7100000Y-8437500D01*
X7100000Y-8437500D02*
X7550000Y-8437500D01*
%TO.C,Y1*%
X9365000Y-2105000D02*
X8015000Y-2105000D01*
X9365000Y-355000D02*
X8015000Y-355000D01*
%TO.C,J2*%
X-50000Y-755000D02*
X-1100000Y-755000D01*
X-50000Y-13045000D02*
X-1100000Y-13045000D01*
X3120000Y-11300000D02*
X3120000Y-2500000D01*
%TO.C,D1*%
X8615000Y-6185000D02*
X10900000Y-6185000D01*
X8615000Y-4715000D02*
X8615000Y-6185000D01*
X10900000Y-4715000D02*
X8615000Y-4715000D01*
%TD*%
M02*
