%TF.GenerationSoftware,KiCad,Pcbnew,(5.1.6)-1*%
%TF.CreationDate,2020-09-29T18:05:28+08:00*%
%TF.ProjectId,stlink,73746c69-6e6b-42e6-9b69-6361645f7063,rev?*%
%TF.SameCoordinates,Original*%
%TF.FileFunction,Legend,Bot*%
%TF.FilePolarity,Positive*%
%FSLAX46Y46*%
G04 Gerber Fmt 4.6, Leading zero omitted, Abs format (unit mm)*
G04 Created by KiCad (PCBNEW (5.1.6)-1) date 2020-09-29 18:05:28*
%MOMM*%
%LPD*%
G01*
G04 APERTURE LIST*
%ADD10C,0.300000*%
%ADD11C,0.120000*%
G04 APERTURE END LIST*
D10*
X17128571Y-5445238D02*
X18271428Y-5445238D01*
X17700000Y-3445238D02*
X17700000Y-5445238D01*
X18319047Y-5995238D02*
X17652380Y-6947619D01*
X17176190Y-5995238D02*
X17176190Y-7995238D01*
X17938095Y-7995238D01*
X18128571Y-7900000D01*
X18223809Y-7804761D01*
X18319047Y-7614285D01*
X18319047Y-7328571D01*
X18223809Y-7138095D01*
X18128571Y-7042857D01*
X17938095Y-6947619D01*
X17176190Y-6947619D01*
X12988095Y-11140476D02*
X13273809Y-11045238D01*
X13750000Y-11045238D01*
X13940476Y-11140476D01*
X14035714Y-11235714D01*
X14130952Y-11426190D01*
X14130952Y-11616666D01*
X14035714Y-11807142D01*
X13940476Y-11902380D01*
X13750000Y-11997619D01*
X13369047Y-12092857D01*
X13178571Y-12188095D01*
X13083333Y-12283333D01*
X12988095Y-12473809D01*
X12988095Y-12664285D01*
X13083333Y-12854761D01*
X13178571Y-12950000D01*
X13369047Y-13045238D01*
X13845238Y-13045238D01*
X14130952Y-12950000D01*
X14797619Y-13045238D02*
X15273809Y-11045238D01*
X15654761Y-12473809D01*
X16035714Y-11045238D01*
X16511904Y-13045238D01*
X17654761Y-13045238D02*
X18035714Y-13045238D01*
X18226190Y-12950000D01*
X18416666Y-12759523D01*
X18511904Y-12378571D01*
X18511904Y-11711904D01*
X18416666Y-11330952D01*
X18226190Y-11140476D01*
X18035714Y-11045238D01*
X17654761Y-11045238D01*
X17464285Y-11140476D01*
X17273809Y-11330952D01*
X17178571Y-11711904D01*
X17178571Y-12378571D01*
X17273809Y-12759523D01*
X17464285Y-12950000D01*
X17654761Y-13045238D01*
X15216666Y-9688095D02*
X15026190Y-9783333D01*
X14930952Y-9878571D01*
X14835714Y-10069047D01*
X14835714Y-10164285D01*
X14930952Y-10354761D01*
X15026190Y-10450000D01*
X15216666Y-10545238D01*
X15597619Y-10545238D01*
X15788095Y-10450000D01*
X15883333Y-10354761D01*
X15978571Y-10164285D01*
X15978571Y-10069047D01*
X15883333Y-9878571D01*
X15788095Y-9783333D01*
X15597619Y-9688095D01*
X15216666Y-9688095D01*
X15026190Y-9592857D01*
X14930952Y-9497619D01*
X14835714Y-9307142D01*
X14835714Y-8926190D01*
X14930952Y-8735714D01*
X15026190Y-8640476D01*
X15216666Y-8545238D01*
X15597619Y-8545238D01*
X15788095Y-8640476D01*
X15883333Y-8735714D01*
X15978571Y-8926190D01*
X15978571Y-9307142D01*
X15883333Y-9497619D01*
X15788095Y-9592857D01*
X15597619Y-9688095D01*
X16835714Y-8545238D02*
X16835714Y-10545238D01*
X17502380Y-9116666D01*
X18169047Y-10545238D01*
X18169047Y-8545238D01*
X16469047Y-2895238D02*
X15516666Y-2895238D01*
X15421428Y-1942857D01*
X15516666Y-2038095D01*
X15707142Y-2133333D01*
X16183333Y-2133333D01*
X16373809Y-2038095D01*
X16469047Y-1942857D01*
X16564285Y-1752380D01*
X16564285Y-1276190D01*
X16469047Y-1085714D01*
X16373809Y-990476D01*
X16183333Y-895238D01*
X15707142Y-895238D01*
X15516666Y-990476D01*
X15421428Y-1085714D01*
X17135714Y-2895238D02*
X17802380Y-895238D01*
X18469047Y-2895238D01*
D11*
X8800000Y-3700000D02*
X9200000Y-3700000D01*
X9200000Y-3300000D02*
X8800000Y-3700000D01*
X9200000Y-3700000D02*
X9200000Y-3300000D01*
%TO.C,U1*%
X11364124Y-11669435D02*
X11700000Y-12005311D01*
X11700000Y-12005311D02*
X12035876Y-11669435D01*
X12035876Y-2130565D02*
X11700000Y-1794689D01*
X11700000Y-1794689D02*
X11364124Y-2130565D01*
X16469435Y-6564124D02*
X16805311Y-6900000D01*
X16805311Y-6900000D02*
X16469435Y-7235876D01*
X6930565Y-7235876D02*
X6594689Y-6900000D01*
%TO.C,U2*%
X1453500Y-4500000D02*
X1453500Y-5700000D01*
X5453500Y-4500000D02*
X1453500Y-4500000D01*
X1453500Y-9300000D02*
X4153500Y-9300000D01*
X1453500Y-8100000D02*
X1453500Y-9300000D01*
%TO.C,C4*%
X1741422Y-2690000D02*
X2258578Y-2690000D01*
X1741422Y-4110000D02*
X2258578Y-4110000D01*
%TO.C,C3*%
X2258578Y-11110000D02*
X1741422Y-11110000D01*
X2258578Y-9690000D02*
X1741422Y-9690000D01*
%TD*%
M02*
