M48
; DRILL file {KiCad (5.1.6)-1} date 09/29/20 18:05:29
; FORMAT={-:-/ absolute / inch / decimal}
; #@! TF.CreationDate,2020-09-29T18:05:29+08:00
; #@! TF.GenerationSoftware,Kicad,Pcbnew,(5.1.6)-1
; #@! TF.FileFunction,Plated,1,2,PTH
FMAT,2
INCH
T1C0.0118
T2C0.0197
T3C0.0236
T4C0.0354
%
G90
G05
T1
X0.1319Y-0.185
X0.187Y-0.1339
X0.187Y-0.4094
X0.2087Y-0.3681
X0.252Y-0.1732
X0.2815Y-0.3445
X0.2874Y-0.0925
X0.3445Y-0.1319
X0.3898Y-0.0925
X0.4053Y-0.2847
X0.4352Y-0.2847
X0.4606Y-0.143
X0.4961Y-0.248
X0.5059Y-0.3051
X0.5124Y-0.4665
X0.5669Y-0.2844
X0.5981Y-0.1204
X0.6654Y-0.2717
X0.7106Y-0.2717
X0.7106Y-0.3504
T2
X0.3331Y-0.5157
X0.4331Y-0.5157
X0.5331Y-0.5157
T3
G00X0.2953Y-0.4641
M15
G01X0.2953Y-0.4365
M16
G05
G00X0.5709Y-0.4365
M15
G01X0.5709Y-0.4641
M16
G05
T4
G00X0.1102Y-0.0472
M15
G01X0.0472Y-0.0472
M16
G05
G00X0.1102Y-0.4961
M15
G01X0.0472Y-0.4961
M16
G05
T0
M30
